<svg id="Layer_1" enable-background="new 0 0 512 512" height="512" viewBox="0 0 512 512" width="512" xmlns="http://www.w3.org/2000/svg"><g><path d="m256 464.186c116.211 0 162.892-26.131 175.757-35.361 42.849-44.119 69.243-104.305 69.243-170.665 0-135.31-109.69-245-245-245s-245 109.69-245 245c0 66.36 26.395 126.546 69.243 170.665 12.865 9.23 59.547 35.361 175.757 35.361z" fill="#1e2f59"/><path d="m98.123 229.237h22.084v196.428h-22.084z" fill="#f9efdc"/><path d="m78.09 229.237h21.059v196.428h-21.059z" fill="#f1e0c7"/><path d="m109.678 373.999h-1.025c-3.268 0-6.184-1.492-8.114-3.829-.369-.447-.937-.682-1.517-.682h-.898v56.177h22.084v-62.195c-.001 5.815-4.715 10.529-10.53 10.529z" fill="#f1e0c7"/><path d="m98.336 369.489c-.635 0-1.25.262-1.658.748-1.931 2.299-4.822 3.762-8.059 3.762-5.815 0-10.53-4.714-10.53-10.529v62.196h21.059v-56.177z" fill="#e8d0b1"/><path d="m202.691 229.237h22.084v196.428h-22.084z" fill="#f9efdc"/><path d="m182.657 229.237h21.059v196.428h-21.059z" fill="#f1e0c7"/><path d="m214.246 373.999h-1.025c-3.268 0-6.184-1.492-8.114-3.829-.369-.447-.937-.682-1.517-.682h-.898v56.177h22.084v-62.195c-.001 5.815-4.715 10.529-10.53 10.529z" fill="#f1e0c7"/><path d="m202.904 369.489c-.635 0-1.25.262-1.658.748-1.931 2.299-4.822 3.762-8.059 3.762-5.815 0-10.529-4.714-10.529-10.529v62.196h21.059v-56.177z" fill="#e8d0b1"/><path d="m307.259 229.237h22.084v196.428h-22.084z" fill="#f9efdc"/><path d="m287.225 229.237h21.059v196.428h-21.059z" fill="#f1e0c7"/><path d="m318.813 373.999h-1.025c-3.268 0-6.184-1.492-8.114-3.829-.369-.447-.937-.682-1.517-.682h-.898v56.177h22.084v-62.195c0 5.815-4.714 10.529-10.53 10.529z" fill="#f1e0c7"/><path d="m307.472 369.489c-.635 0-1.25.262-1.658.748-1.931 2.299-4.822 3.762-8.059 3.762-5.816 0-10.53-4.714-10.53-10.529v62.196h21.059v-56.177z" fill="#e8d0b1"/><path d="m411.827 229.237h22.084v196.428h-22.084z" fill="#f9efdc"/><path d="m391.793 229.237h21.059v196.428h-21.059z" fill="#f1e0c7"/><path d="m423.381 373.999h-1.025c-3.268 0-6.184-1.492-8.114-3.829-.369-.447-.937-.682-1.517-.682h-.898v56.177h22.084v-62.195c-.001 5.815-4.715 10.529-10.53 10.529z" fill="#f1e0c7"/><path d="m412.039 369.489c-.635 0-1.25.262-1.658.748-1.931 2.299-4.822 3.762-8.059 3.762-5.815 0-10.53-4.714-10.53-10.529v62.196h21.059v-56.177z" fill="#e8d0b1"/><g><path d="m120.059 409.886h-41.969c-4.246 0-7.687-3.441-7.687-7.687s3.442-7.687 7.687-7.687h41.969c4.246 0 7.687 3.441 7.687 7.687s-3.441 7.687-7.687 7.687z" fill="#f9efdc"/></g><g><path d="m224.627 409.886h-41.97c-4.246 0-7.687-3.441-7.687-7.687s3.442-7.687 7.687-7.687h41.97c4.246 0 7.687 3.441 7.687 7.687s-3.441 7.687-7.687 7.687z" fill="#f9efdc"/></g><g><path d="m329.195 409.886h-41.97c-4.246 0-7.688-3.441-7.688-7.687s3.442-7.687 7.688-7.687h41.97c4.246 0 7.687 3.441 7.687 7.687s-3.441 7.687-7.687 7.687z" fill="#f9efdc"/></g><g><path d="m433.763 409.886h-41.97c-4.246 0-7.687-3.441-7.687-7.687s3.442-7.687 7.687-7.687h41.97c4.246 0 7.687 3.441 7.687 7.687s-3.442 7.687-7.687 7.687z" fill="#f9efdc"/></g><path d="m125.338 424.641h-49.065c9.157 9.881 19.116 19.006 29.778 27.27h30.646v-15.911c.001-6.247-5.111-11.359-11.359-11.359z" fill="#e8d0b1"/><g><path d="m92.107 436c0-6.247 5.112-11.359 11.359-11.359h-27.193c5.038 5.436 10.327 10.634 15.833 15.595v-4.236z" fill="#d6ba9d"/></g><path d="m241.265 451.911v-15.911c0-6.247-5.112-11.359-11.359-11.359h-52.379c-6.248 0-11.359 5.112-11.359 11.359v15.911z" fill="#e8d0b1"/><path d="m345.833 451.911v-15.911c0-6.247-5.112-11.359-11.359-11.359h-52.379c-6.248 0-11.359 5.112-11.359 11.359v15.911z" fill="#e8d0b1"/><path d="m206.401 424.641h-28.875c-6.248 0-11.359 5.112-11.359 11.359v15.911h28.875v-15.911c0-6.247 5.112-11.359 11.359-11.359z" fill="#d6ba9d"/><path d="m310.969 424.641h-28.875c-6.248 0-11.359 5.112-11.359 11.359v15.911h28.875v-15.911c0-6.247 5.112-11.359 11.359-11.359z" fill="#d6ba9d"/><path d="m375.303 436v15.911h30.646c10.663-8.264 20.621-17.389 29.778-27.27h-49.065c-6.248 0-11.359 5.112-11.359 11.359z" fill="#e8d0b1"/><path d="m415.537 424.641h-28.875c-6.248 0-11.359 5.112-11.359 11.359v15.911h28.875v-15.911c0-6.247 5.111-11.359 11.359-11.359z" fill="#d6ba9d"/><path d="m408.557 449.861h-305.114c12.797 10.197 26.63 19.147 41.328 26.65h222.457c14.699-7.502 28.532-16.453 41.329-26.65z" fill="#f1e0c7"/><path d="m103.443 449.861c12.797 10.197 26.63 19.147 41.328 26.65h56.213c-.066-1.05-.567-2.051-1.45-2.717-13.941-10.505-4.492-23.933-4.492-23.933z" fill="#e8d0b1"/><path d="m125.338 203.386h-52.379c-.927 0-1.824-.124-2.688-.337v19.941c0 4.805 3.931 8.736 8.736 8.736h40.283c4.805 0 8.736-3.931 8.736-8.736v-19.941c-.864.212-1.761.337-2.688.337z" fill="#e8d0b1"/><g><path d="m97.29 222.99v-19.605h-24.331c-.927 0-1.824-.125-2.688-.337v19.941c0 4.805 3.931 8.736 8.736 8.736h27.019c-4.804.001-8.736-3.93-8.736-8.735z" fill="#d6ba9d"/></g><path d="m61.599 177.529v15.523c0 6.247 5.112 11.359 11.359 11.359h52.379c6.248 0 11.359-5.112 11.359-11.359v-15.523z" fill="#f1e0c7"/><path d="m88.619 193.051v-15.523h-27.02v15.523c0 6.247 5.112 11.359 11.359 11.359h27.02c-6.247.001-11.359-5.111-11.359-11.359z" fill="#e8d0b1"/><path d="m229.906 203.386h-52.379c-.927 0-1.824-.124-2.688-.337v19.941c0 4.805 3.931 8.736 8.736 8.736h40.283c4.805 0 8.736-3.931 8.736-8.736v-19.941c-.864.212-1.761.337-2.688.337z" fill="#e8d0b1"/><g><path d="m201.858 222.99v-19.605h-24.332c-.927 0-1.824-.125-2.688-.337v19.941c0 4.805 3.931 8.736 8.736 8.736h27.02c-4.805.001-8.736-3.93-8.736-8.735z" fill="#d6ba9d"/></g><path d="m166.167 177.529v15.523c0 6.247 5.112 11.359 11.359 11.359h52.379c6.248 0 11.359-5.112 11.359-11.359v-15.523z" fill="#f1e0c7"/><path d="m193.187 193.051v-15.523h-27.02v15.523c0 6.247 5.111 11.359 11.359 11.359h27.02c-6.248.001-11.359-5.111-11.359-11.359z" fill="#e8d0b1"/><g><path d="m334.474 203.386h-52.379c-.927 0-1.824-.124-2.688-.337v19.941c0 4.805 3.931 8.736 8.736 8.736h40.283c4.805 0 8.736-3.931 8.736-8.736v-19.941c-.864.212-1.761.337-2.688.337z" fill="#e8d0b1"/><g><path d="m306.426 222.99v-19.605h-24.332c-.927 0-1.824-.125-2.688-.337v19.941c0 4.805 3.931 8.736 8.736 8.736h27.02c-4.805.001-8.736-3.93-8.736-8.735z" fill="#d6ba9d"/></g><path d="m270.735 177.529v15.523c0 6.247 5.112 11.359 11.359 11.359h52.379c6.248 0 11.359-5.112 11.359-11.359v-15.523z" fill="#f1e0c7"/><path d="m297.755 193.051v-15.523h-27.02v15.523c0 6.247 5.112 11.359 11.359 11.359h27.02c-6.248.001-11.359-5.111-11.359-11.359z" fill="#e8d0b1"/></g><path d="m439.041 203.386h-52.379c-.927 0-1.824-.124-2.688-.337v19.941c0 4.805 3.931 8.736 8.736 8.736h40.283c4.805 0 8.736-3.931 8.736-8.736v-19.941c-.863.212-1.761.337-2.688.337z" fill="#e8d0b1"/><g><path d="m410.994 222.99v-19.605h-24.332c-.927 0-1.824-.125-2.688-.337v19.941c0 4.805 3.931 8.736 8.736 8.736h27.02c-4.805.001-8.736-3.93-8.736-8.735z" fill="#d6ba9d"/></g><path d="m375.303 177.529v15.523c0 6.247 5.112 11.359 11.359 11.359h52.379c6.248 0 11.359-5.112 11.359-11.359v-15.523z" fill="#f1e0c7"/><path d="m402.322 193.051v-15.523h-27.02v15.523c0 6.247 5.112 11.359 11.359 11.359h27.02c-6.247.001-11.359-5.111-11.359-11.359z" fill="#e8d0b1"/><g><path d="m48.638 148.078v14.783c0 8.667 7.026 15.692 15.692 15.692h383.34c8.666 0 15.692-7.026 15.692-15.692v-14.783z" fill="#f9efdc"/></g><path d="m48.638 162.862c0 8.667 7.026 15.692 15.692 15.692h136.648c1.22-1.319 1.71-3.245 1.027-5.054-4.019-10.643 1.632-17.36 6.025-20.735 1.475-1.133 2.077-2.942 1.8-4.687h-161.192z" fill="#f1e0c7"/><path d="m35.079 150.128h441.842l-55.509-28.627h-330.824z" fill="#f1e0c7"/><path d="m209.115 146.118c-4.982-8.071-1.437-15.876 1.154-19.85.942-1.445 1.044-3.231.368-4.768h-120.049l-55.509 28.627h174.657c.333-1.316.145-2.768-.621-4.009z" fill="#e8d0b1"/><path d="m425.387 123.551-167.196-86.226c-1.375-.709-3.008-.709-4.383 0l-167.195 86.226z" fill="#e8d0b1"/><path d="m211.073 123.551c.002-1.028-.304-2.056-.923-2.939-16.847-24.031-7.85-44.96-1.827-54.443 1.096-1.725.975-3.793-.042-5.365l-121.668 62.747z" fill="#d6ba9d"/><g><path d="m498.149 161.403c-2.136 0-4.302-.495-6.331-1.543l-233.627-120.485c-1.375-.709-3.008-.709-4.383 0l-233.626 120.486c-6.789 3.501-15.137.837-18.64-5.956-3.503-6.792-.837-15.138 5.956-18.64l242.16-124.886c3.978-2.052 8.706-2.052 12.684 0l242.16 124.886c6.793 3.502 9.459 11.848 5.956 18.64-2.457 4.763-7.295 7.498-12.309 7.498z" fill="#f9efdc"/></g><path d="m206.007 58.872c-8.993-3.939-9.85-11.248-9.138-16.374.223-1.61-.34-3.123-1.373-4.187l-187.998 96.954c-6.793 3.502-9.459 11.848-5.956 18.64 3.503 6.793 11.852 9.457 18.64 5.956l188.805-97.37c-.33-1.541-1.386-2.921-2.98-3.619z" fill="#f1e0c7"/><path d="m142.811 475.486c33.858 17.671 72.353 27.675 113.189 27.675s79.331-10.004 113.189-27.675z" fill="#f9efdc"/><path d="m203.635 497.544c-6.341-7.44-4.522-15.384-2.906-19.402.352-.875.343-1.816.04-2.656h-57.958c18.955 9.893 39.365 17.381 60.824 22.058z" fill="#f1e0c7"/></g></svg>