<svg id="Layer_1" enable-background="new 0 0 512 512" height="512" viewBox="0 0 512 512" width="512" xmlns="http://www.w3.org/2000/svg"><g><path d="m256 22c-135.31 0-245 109.69-245 245 0 103.233 63.853 191.544 154.214 227.618h181.572c90.362-36.074 154.214-124.385 154.214-227.618 0-135.31-109.69-245-245-245z" fill="#90482d"/><path d="m143.368 63.009h224.469v39.521h-224.469z" fill="#d6ba9d"/><path d="m164.995 380.82c-.763 0-1.507-.079-2.229-.223v113.021c28.742 11.837 60.222 18.382 93.234 18.382s64.492-6.545 93.234-18.383v-113.02c-.721.144-1.466.223-2.229.223z" fill="#f9efdc"/><path d="m249.995 382.978-4.417-2.158h-80.583c-.763 0-1.507-.079-2.229-.223v113.021c28.742 11.837 60.222 18.382 93.234 18.382v-100.253c-19.391-10.768-6.005-28.769-6.005-28.769z" fill="#f1e0c7"/><path d="m221.583 64.466c-4.819-18.256 4.413-26.981 10.344-30.556 1.233-.743 2.217-1.753 2.902-2.924h-149.339v17.025c0 11.965 9.699 21.665 21.664 21.665h114.143c.629-1.618.754-3.441.286-5.21z" fill="#e8d0b1"/><path d="m277.171 30.986c.685 1.171 1.669 2.18 2.902 2.922 5.931 3.577 15.163 12.302 10.344 30.557-.467 1.769-.342 3.592.286 5.21h114.143c11.965 0 21.664-9.699 21.664-21.665v-17.024z" fill="#f1e0c7"/><path d="m321.255 48.011v-17.025h-44.084c.685 1.171 1.669 2.18 2.902 2.922 5.931 3.577 15.163 12.302 10.344 30.557-.466 1.769-.342 3.592.286 5.21h52.217c-11.966.001-21.665-9.699-21.665-21.664z" fill="#e8d0b1"/><path d="m235.386 26.932c-.017-6.436 1.54-17.196 11.176-22.925h-165.968c-8.047 0-14.569 6.523-14.569 14.569s6.522 14.569 14.569 14.569h151.492c2.076-1.444 3.307-3.723 3.3-6.213z" fill="#f1e0c7"/><path d="m431.407 4.007h-165.968c9.635 5.729 11.193 16.489 11.176 22.925-.007 2.491 1.224 4.769 3.299 6.213h151.493c8.046 0 14.569-6.522 14.569-14.569-.001-8.047-6.523-14.569-14.569-14.569z" fill="#f9efdc"/><path d="m311.79 18.575c0-8.046 6.522-14.569 14.569-14.569h-60.92c9.635 5.729 11.193 16.489 11.176 22.925-.007 2.491 1.224 4.769 3.299 6.212h46.445c-8.047.001-14.569-6.521-14.569-14.568z" fill="#f1e0c7"/><path d="m214.358 102.529h83.285c.064-.152.12-.306.196-.455 3.019-5.913 7.622-19.234-4.164-30.743-1.705-1.665-2.301-4.148-1.693-6.452 1.935-7.33 3.986-23.277-11.074-32.357-1.972-1.189-3.221-3.285-3.215-5.588.019-6.878-1.818-21.185-16.735-26.135-3.211-1.066-6.706-1.066-9.917 0-14.916 4.951-16.753 19.258-16.735 26.135.006 2.303-1.243 4.399-3.215 5.588-15.06 9.08-13.008 25.026-11.074 32.357.608 2.304.012 4.787-1.692 6.452-11.787 11.51-7.183 24.83-4.165 30.743.077.149.134.303.198.455z" fill="#fcf9f0"/><g><path d="m253.086 79.982c1.243-2.033 1.209-4.586.053-6.67-3.678-6.629-9.589-21.581 2.774-34.087 1.619-1.638 2.314-3.976 1.741-6.207-1.695-6.604-3.409-20.728 9.457-29.222-1.753-1.189-3.788-2.211-6.154-2.997-3.211-1.066-6.706-1.066-9.917 0-14.916 4.951-16.753 19.258-16.735 26.135.006 2.303-1.243 4.399-3.215 5.588-15.06 9.08-13.008 25.026-11.074 32.357.608 2.304.012 4.787-1.692 6.452-11.787 11.51-7.183 24.83-4.165 30.743.076.149.133.303.196.455h36.933c-2.568-5.9-3.562-13.78 1.798-22.547z" fill="#f9efdc"/></g><g><path d="m415.586 88.102c-26.367-26.367-69.117-26.367-95.485 0-2.779 2.78-5.324 5.704-7.635 8.75-1.172 1.544-3.005 2.439-4.944 2.439-5.724 0-97.322 0-103.046 0-1.938 0-3.772-.895-4.944-2.439-2.31-3.046-4.855-5.971-7.635-8.75-26.367-26.367-69.117-26.367-95.484 0-21.094 21.094-21.094 55.294 0 76.388 11.633 11.633 28.249 15.247 42.978 10.841 3.044-.911 6.298.474 7.608 3.369l.001.003c.061.134.126.266.196.395 3.987 7.373 7.408 15.004 10.286 22.82.299-.032.598-.055.896-.111 6.831-1.287 12.75-.507 17.601 2.311l3.307 1.922-.922-3.712c-2.118-8.523-.126-15.809 5.922-21.657 1.973-1.907 2.787-4.601 2.182-7.207-1.504-6.458-2.349-18.312 8.882-25.145 2.352-1.432 5.159-2.078 7.901-1.818 13.09 1.239 17.508 12.27 18.976 18.736.593 2.607 2.504 4.674 5.111 5.529 13.544 4.435 15.531 16.983 15.511 24.069l-.009 3.151 2.567-1.828c1.809-1.289 3.876-2.324 6.143-3.076 2.869-.953 6.028-.953 8.897 0 2.267.753 4.333 1.788 6.143 3.076l2.567 1.828-.01-3.151c-.02-7.085 1.968-19.634 15.511-24.069 2.607-.855 4.518-2.921 5.111-5.529 1.468-6.466 5.886-17.497 18.976-18.736 2.738-.259 5.548.386 7.901 1.818 11.233 6.833 10.387 18.686 8.882 25.145-.606 2.605.209 5.3 2.182 7.207 6.048 5.849 8.04 13.135 5.921 21.656l-.923 3.713 3.308-1.922c4.851-2.821 10.771-3.598 17.602-2.311.298.056.597.079.896.111 2.878-7.816 6.299-15.447 10.286-22.82.07-.13.135-.261.196-.395l.004-.003c1.31-2.895 4.565-4.28 7.608-3.369 14.729 4.406 31.345.792 42.978-10.841 21.094-21.093 21.094-55.294 0-76.388z" fill="#f9efdc"/></g><path d="m250.123 99.292c-22.239 0-43.015 0-45.646 0-1.938 0-3.772-.895-4.944-2.439-2.31-3.046-4.855-5.971-7.634-8.75-26.368-26.367-69.118-26.367-95.485 0-21.094 21.094-21.094 55.294 0 76.388 11.633 11.633 28.249 15.247 42.978 10.841 3.044-.911 6.298.474 7.608 3.369l.001.003c.061.134.126.266.196.395 3.987 7.373 7.408 15.004 10.286 22.82.299-.032.598-.055.896-.111 6.831-1.287 12.75-.507 17.601 2.311l3.307 1.922-.922-3.712c-2.118-8.523-.126-15.809 5.922-21.657 1.973-1.907 2.788-4.601 2.182-7.207-1.504-6.458-2.349-18.312 8.882-25.145 2.352-1.432 5.159-2.078 7.901-1.818 8.051.762 12.818 5.229 15.639 10.058v-2.923c-8.166-41.875 31.232-54.345 31.232-54.345z" fill="#f1e0c7"/><g><path d="m372.607 183.427c-.935 0-1.885-.163-2.813-.507l-5.209-1.932c-.164-.061-.326-.128-.486-.199-5.719-2.554-10.882-6.111-15.346-10.575-16.635-16.635-16.635-43.701-.001-60.336 13.939-13.939 36.618-13.939 50.557 0 11.782 11.784 11.781 30.955 0 42.736-4.872 4.871-11.349 7.554-18.239 7.554s-13.367-2.683-18.239-7.555c-3.161-3.161-3.16-8.286 0-11.446 3.161-3.16 8.285-3.161 11.447.001 1.814 1.814 4.226 2.813 6.792 2.813s4.978-.999 6.792-2.814c5.47-5.47 5.47-14.371 0-19.842-7.626-7.626-20.036-7.626-27.664.001-10.323 10.323-10.323 27.119 0 37.441 3.001 3.001 6.457 5.402 10.274 7.139l4.949 1.836c4.191 1.554 6.329 6.213 4.774 10.404-1.208 3.262-4.3 5.281-7.588 5.281z" fill="#e8d0b1"/></g><g><path d="m139.393 183.427c-3.288 0-6.38-2.018-7.59-5.281-1.554-4.191.583-8.85 4.774-10.404l4.95-1.836c3.818-1.737 7.273-4.139 10.274-7.139 10.323-10.323 10.323-27.119 0-37.441-7.627-7.628-20.037-7.628-27.664 0-5.47 5.471-5.47 14.372 0 19.841 1.814 1.815 4.227 2.814 6.792 2.814s4.978-.999 6.792-2.813c3.162-3.162 8.285-3.161 11.447-.001 3.161 3.161 3.161 8.286.001 11.446-4.872 4.872-11.349 7.555-18.239 7.555-6.889 0-13.367-2.683-18.239-7.554-11.781-11.781-11.782-30.953 0-42.735 13.939-13.939 36.619-13.94 50.557-.001 16.634 16.635 16.634 43.701 0 60.336-4.463 4.462-9.626 8.021-15.346 10.575-.16.072-.322.138-.486.199l-5.209 1.932c-.929.343-1.879.507-2.814.507z" fill="#e8d0b1"/></g><g><path d="m357.443 355.459h-202.886c-.337 0-.666-.028-.997-.051v16.135c0 6.289 5.146 11.435 11.435 11.435h182.01c6.289 0 11.435-5.146 11.435-11.435v-16.135c-.331.023-.66.051-.997.051z" fill="#f1e0c7"/></g><g><path d="m238.56 371.543v-16.084h-84.003c-.337 0-.666-.028-.997-.051v16.135c0 6.289 5.146 11.435 11.435 11.435h85c-6.289 0-11.435-5.146-11.435-11.435z" fill="#e8d0b1"/></g><path d="m267.512 196.849c7.316 5.843 8.578 15.087 8.563 20.828-.007 2.855 1.487 5.464 3.998 6.979 5.931 3.577 15.163 12.302 10.344 30.557-.342 1.29-.37 2.669-.082 3.989l.492 2.255 1.953-1.231c3.538-2.229 5.591-6.24 5.359-10.468-.538-9.757 2.166-21.959 18.105-24.671 3.991-.679 7.391-3.468 8.872-7.28 1.531-3.947 4.372-9.166 9.404-12.689 2.323-7.049 3.136-17.082-5.681-25.608-1.524-1.473-2.211-3.611-1.73-5.675 1.436-6.165 2.74-19.377-9.617-26.894-2.66-1.618-5.795-2.34-8.895-2.046-14.4 1.363-19 13.816-20.402 19.989-.47 2.067-2.022 3.689-4.037 4.349-15.381 5.037-16.831 19.763-16.608 26.737.008.293-.007.588-.038.879z" fill="#e8d0b1"/><path d="m276.074 217.676c-.007 2.855 1.487 5.464 3.999 6.979 5.931 3.577 15.163 12.302 10.344 30.557-.341 1.29-.37 2.669-.082 3.989l.493 2.255 1.953-1.231c3.538-2.229 5.591-6.24 5.359-10.468-.514-9.32 1.939-20.864 16.051-24.244-.43-1.466-1.553-2.704-3.109-3.227-11.78-3.965-12.896-13.387-12.551-18.528.13-1.936-.874-3.808-2.629-4.635-14.464-6.816-11.744-29.893-11.744-29.893-15.381 5.036-16.831 19.763-16.608 26.737.009.296-.005.591-.036.882 7.314 5.843 8.576 15.087 8.56 20.827z" fill="#d6ba9d"/><path d="m186.885 217.806c1.481 3.812 4.88 6.602 8.872 7.28 15.939 2.713 18.643 14.915 18.105 24.673-.232 4.227 1.821 8.238 5.359 10.467l1.953 1.231.492-2.255c.288-1.319.259-2.699-.082-3.989-4.819-18.255 4.413-26.981 10.344-30.557 2.511-1.514 4.006-4.124 3.998-6.979-.016-5.741 1.246-14.985 8.563-20.828-.031-.291-.046-.585-.036-.882.223-6.974-1.227-21.701-16.608-26.737-2.014-.66-3.567-2.282-4.037-4.349-1.402-6.173-6.002-18.626-20.402-19.989-3.1-.293-6.235.428-8.895 2.046-12.357 7.518-11.053 20.729-9.617 26.894.481 2.064-.207 4.202-1.73 5.675-8.815 8.525-8.004 18.556-5.682 25.605 5.031 3.525 7.872 8.747 9.403 12.694z" fill="#e8d0b1"/><path d="m231.828 224.165c-4.011.548-8.09-1.096-10.645-4.29-1.982-2.48-4.882-5.425-8.679-7.524-3.562-1.97-6.484-4.986-7.893-8.805-1.975-5.353-2.36-11.903 1.551-19.096 1.012-1.862 1.029-4.107-.048-5.933-3.216-5.452-8.416-17.664 1.12-28.537 1.073-1.223 2.346-2.246 3.748-3.042-2.164-1.038-4.667-1.771-7.577-2.047-3.1-.293-6.235.428-8.895 2.047-12.357 7.518-11.053 20.729-9.617 26.894.481 2.064-.207 4.202-1.73 5.675-8.815 8.525-8.004 18.556-5.682 25.605 5.032 3.524 7.874 8.746 9.405 12.693 1.481 3.812 4.881 6.602 8.872 7.28 15.939 2.713 18.643 14.915 18.105 24.673-.232 4.227 1.821 8.238 5.359 10.467l1.953 1.231.492-2.255c.288-1.319.259-2.699-.082-3.989-4.82-18.255 4.413-26.981 10.344-30.557.305-.184.593-.385.868-.6-.323.034-.641.065-.969.11z" fill="#d6ba9d"/><path d="m395.616 189.533c-17.907-4.006-27.991 2.812-32.695 7.744-2.322 2.436-5.694 3.563-9.001 2.941-19.258-3.627-27.266 9.148-30.315 17.003-1.278 3.29-4.154 5.678-7.634 6.27-17.802 3.03-19.947 17.337-19.45 26.357.227 4.121-2.037 7.967-5.798 9.664-.098.044-.184.095-.281.139.376 1.35 1.084 2.593 2.101 3.585 10.791 10.537 7.045 22.597 3.852 28.85-1.248 2.449-1.154 5.355.252 7.772 8.296 14.279.629 25.523-1.391 28.082v1.619h47.702l8.855-37.029c0-48.668 32.641-84.175 45.615-96.366 2.266-2.13 1.222-5.952-1.812-6.631z" fill="#f1e0c7"/><path d="m290.724 259.511c-.098.044-.184.095-.281.139.376 1.35 1.085 2.593 2.101 3.585 10.791 10.537 7.045 22.597 3.852 28.85-1.248 2.449-1.154 5.355.252 7.772 8.296 14.279.629 25.523-1.391 28.082v1.619h47.702l3.817-15.963c-19.113-10.98-18.136-31.358-16.889-39.395.307-1.98-.626-3.953-2.374-4.932-19.947-11.185-16.298-31.689-13.355-40.979.478-1.508.155-3.069-.714-4.259-15.471 3.905-17.395 17.244-16.922 25.816.227 4.122-2.037 7.968-5.798 9.665z" fill="#e8d0b1"/><path d="m216.752 327.94c-1.971-2.546-9.618-13.937-1.399-28.082 1.406-2.418 1.5-5.323.251-7.774-3.192-6.252-6.937-18.312 3.853-28.848 1.017-.993 1.725-2.236 2.101-3.585-.097-.045-.183-.095-.281-.139-3.762-1.697-6.026-5.543-5.798-9.664.497-9.02-1.647-23.326-19.449-26.357-3.48-.592-6.356-2.98-7.634-6.27-3.049-7.854-11.057-20.629-30.315-17.003-3.307.623-6.679-.505-9.001-2.941-4.704-4.932-14.788-11.75-32.695-7.744-3.034.679-4.078 4.501-1.812 6.63 12.974 12.191 45.615 47.698 45.615 96.366l8.855 37.029h47.71v-1.618z" fill="#f1e0c7"/><path d="m190.89 285.011c2.115-1.838 2.602-4.896 1.23-7.339-19.115-34.013 9.636-52.615 9.658-52.629-1.708-.66-3.613-1.189-5.748-1.553-3.48-.592-6.356-2.98-7.634-6.27-3.049-7.854-11.057-20.629-30.315-17.003-3.307.623-6.678-.505-9.001-2.941-4.704-4.932-14.788-11.75-32.695-7.744-3.034.679-4.078 4.501-1.812 6.63 12.974 12.191 45.615 47.698 45.615 96.366l8.855 37.029h16.52c-14.817-22.763-1.785-38.367 5.327-44.546z" fill="#e8d0b1"/><path d="m378.965 256.36c-12.726-2.847-19.893 1.999-23.236 5.504-1.651 1.731-4.047 2.533-6.397 2.09-13.687-2.578-19.378 6.502-21.545 12.084-.908 2.338-2.952 4.035-5.425 4.456-12.652 2.154-14.176 12.321-13.823 18.732.162 2.928-1.448 5.662-4.121 6.868-1.746.788-3.181 1.756-4.36 2.844 1.633 9.271-2.712 16.221-4.515 18.629.241 1.239.47 1.994.47 1.994h51.821c0-34.588 23.198-59.823 32.418-68.487 1.611-1.515.869-4.232-1.287-4.714z" fill="#f9efdc"/><path d="m296.014 329.559h51.82c0-5.095.514-9.98 1.402-14.646-.001 0-.002-.001-.003-.001-21.664-10.587-20.645-32.342-19.347-40.71.113-.729.055-1.456-.147-2.134-.847 1.385-1.483 2.759-1.953 3.97-.908 2.338-2.952 4.035-5.425 4.456-12.652 2.154-14.177 12.321-13.823 18.732.162 2.928-1.448 5.662-4.121 6.868-1.746.788-3.181 1.756-4.36 2.844 1.633 9.271-2.712 16.221-4.515 18.629.242 1.237.472 1.992.472 1.992z" fill="#f1e0c7"/><path d="m211.968 308.962c-1.185-1.098-2.627-2.076-4.386-2.869-2.673-1.206-4.283-3.94-4.121-6.868.354-6.411-1.171-16.578-13.823-18.732-2.473-.421-4.518-2.118-5.425-4.456-2.167-5.582-7.858-14.661-21.545-12.084-2.35.443-4.746-.359-6.397-2.09-3.343-3.505-10.51-8.35-23.236-5.504-2.156.482-2.898 3.199-1.288 4.712 9.22 8.664 32.418 33.899 32.418 68.487h51.821s.232-.761.474-2.009c-1.771-2.414-6.057-9.397-4.492-18.587z" fill="#f9efdc"/><path d="m190.89 285.011c1.135-.987 1.784-2.327 1.946-3.733-.978-.322-2.04-.588-3.198-.785-2.473-.421-4.517-2.118-5.425-4.456-2.167-5.582-7.858-14.661-21.545-12.084-2.35.443-4.746-.359-6.397-2.09-3.343-3.505-10.51-8.35-23.236-5.504-2.156.482-2.898 3.199-1.288 4.712 9.221 8.664 32.419 33.899 32.419 68.487h21.396c-14.816-22.764-1.784-38.368 5.328-44.547z" fill="#f1e0c7"/><path d="m298.046 299.045c-1.112-1.915-1.214-4.252-.207-6.224 3.019-5.913 7.622-19.234-4.164-30.743-1.705-1.665-2.301-4.148-1.693-6.452 1.935-7.33 3.986-23.277-11.074-32.357-1.972-1.189-3.221-3.285-3.215-5.588.019-6.878-1.818-21.185-16.735-26.135-3.211-1.066-6.706-1.066-9.917 0-14.916 4.951-16.753 19.258-16.735 26.135.006 2.303-1.243 4.399-3.215 5.588-15.06 9.079-13.008 25.026-11.074 32.357.608 2.304.012 4.787-1.692 6.452-11.787 11.51-7.183 24.83-4.165 30.743 1.007 1.972.905 4.31-.208 6.224-10.005 17.218 2.032 30.514 2.032 30.514h40.016 40.014s12.037-13.296 2.032-30.514z" fill="#fcf9f0"/><path d="m256.478 308.448c.59-2.134.094-4.421-1.38-6.073-4.422-4.953-12.257-16.667-3.78-30.793 1.226-2.043 1.172-4.596-.002-6.67-3.733-6.599-9.767-21.502 2.493-34.108 1.606-1.651 2.281-3.995 1.69-6.221-1.765-6.647-3.621-20.952 9.549-29.528.491-.319 1.002-.599 1.522-.86-1.629-1.039-3.484-1.942-5.613-2.648-3.211-1.066-6.706-1.066-9.917 0-14.916 4.951-16.753 19.258-16.735 26.135.006 2.303-1.243 4.399-3.215 5.588-15.06 9.079-13.008 25.026-11.074 32.357.608 2.304.012 4.787-1.692 6.452-11.787 11.51-7.183 24.83-4.165 30.743 1.007 1.972.905 4.31-.208 6.224-10.005 17.218 2.032 30.514 2.032 30.514h40.017 2.99c-2.915-4.842-5.06-11.889-2.512-21.112z" fill="#f9efdc"/><path d="m309.277 411.747c-7.356 0-13.319 5.963-13.319 13.319v83.672c9.055-1.485 17.946-3.454 26.638-5.904v-77.768c0-7.356-5.963-13.319-13.319-13.319z" fill="#e8d0b1"/><path d="m216.043 508.739v-83.672c0-7.356-5.963-13.319-13.319-13.319s-13.319 5.963-13.319 13.319v77.768c8.691 2.449 17.583 4.418 26.638 5.904z" fill="#d6ba9d"/><path d="m256 411.747c-7.356 0-13.319 5.963-13.319 13.319v86.57c4.41.236 8.85.364 13.319.364s8.909-.128 13.319-.364v-86.57c0-7.356-5.963-13.319-13.319-13.319z" fill="#d6ba9d"/><g><path d="m357.443 356.538h-202.886c-8.046 0-14.569-6.523-14.569-14.569s6.523-14.569 14.569-14.569h202.885c8.046 0 14.569 6.523 14.569 14.569s-6.522 14.569-14.568 14.569z" fill="#fcf9f0"/></g><path d="m228.535 341.969c0-8.046 6.523-14.569 14.569-14.569h-88.547c-8.046 0-14.569 6.523-14.569 14.569s6.523 14.569 14.569 14.569h88.547c-8.046 0-14.569-6.522-14.569-14.569z" fill="#f9efdc"/><g fill="#a05838"><path d="m501 267c0-15.435-1.443-30.531-4.172-45.174-9.971-6.337-36.529-18.203-65.421 10.69-36.674 36.674-33.864 85.956-23.26 109.454 19.788 43.851-47.926 80.793-8.466 123.476 61.387-44.521 101.319-116.814 101.319-198.446z"/><path d="m11 267c0-15.435 1.443-30.531 4.172-45.174 9.972-6.337 36.529-18.203 65.421 10.69 36.674 36.674 33.864 85.956 23.26 109.454-19.788 43.851 47.926 80.793 8.466 123.476-61.387-44.521-101.319-116.814-101.319-198.446z"/></g></g></svg>