<svg id="Layer_1" enable-background="new 0 0 512 512" height="512" viewBox="0 0 512 512" width="512" xmlns="http://www.w3.org/2000/svg"><g><path d="m85.665 443.078h340.671c46.034-44.542 74.664-106.962 74.664-176.078 0-135.31-109.69-245-245-245s-245 109.69-245 245c0 69.116 28.63 131.536 74.665 176.078z" fill="#1e2f59"/><path d="m100.534 307.974 25.649-26.783-.913-1.186c-14.724-19.129-23.007-62.316-17.378-90.605l.207-1.039-2.892-2.312-.35-.095c-25.606-6.93-40.26-21.056-48.571-36.059-8.868 34.475-14.887 100.365 42.828 158.08h1.42z" fill="#21b75d"/><path d="m407.142 185.953-.35.095-2.891 2.312.208 1.039c5.468 27.484-2.483 70.229-16.684 89.68l-.83 1.139 24.843 27.756h1.449c57.716-57.716 51.696-123.607 42.828-158.082-8.314 15.005-22.967 29.132-48.573 36.061z" fill="#38c674"/><path d="m404.627 227.717c-2.513 19.953-8.75 39.785-17.203 51.363l-.83 1.139 24.843 27.756h1.449c19.395-19.395 31.585-39.712 38.896-59.451-31.182 2.974-42.821-10.762-47.155-20.807z" fill="#21b75d"/><path d="m209.179 165.042-.041.704.462.534c17.771 20.562 30.669 43.223 38.36 58.613l.582 1.163 1.281-.228c4.089-.726 8.282-.725 12.353.001l1.281.229.583-1.165c7.691-15.389 20.59-38.051 38.361-58.614l.462-.534-.041-.704c-1.497-26.125 5.665-60.496 47.995-76.457l.264-1.973-43.755-13.852c-33.4-10.573-69.25-10.573-102.649 0l-43.757 13.853.038 1.884c42.534 15.924 49.72 50.374 48.221 76.546z" fill="#ffb332"/><path d="m302.862 165.747-.041-.704c-.847-14.779 1.084-32.195 10.578-47.426-.646-.035-1.312-.012-2.001.091-19.174 2.854-20.483-17.02-20.483-17.02l-35.934-7.307v-28.541c-16.972.102-33.933 2.737-50.305 7.92l-43.756 13.852.038 1.884c42.534 15.923 49.721 50.373 48.221 76.546l-.041.704.462.534c17.771 20.562 30.669 43.223 38.36 58.613l.582 1.163 1.281-.228c4.089-.726 8.282-.725 12.353.001l1.281.229.583-1.165c7.691-15.389 20.59-38.051 38.361-58.614z" fill="#ff9100"/><path d="m256 0c-30.328 0-52.629 28.429-45.408 57.885l23.718 96.749c6.431-3.376 13.788-5.307 21.69-5.307s15.259 1.931 21.69 5.307l23.718-96.749c7.221-29.456-15.08-57.885-45.408-57.885z" fill="#38c674"/><path d="m277.69 154.634 13.225-53.947c-1.064-.049-2.137.152-3.121.644-11.778 5.883-22.44-4.604-27.918-7.951-2.365-1.445-5.342-1.23-7.56.432-10.917 8.177-21.86 11.157-27.763 8.373-1.042-.491-2.153-.656-3.238-.559l12.995 53.008c6.431-3.376 13.788-5.307 21.69-5.307s15.259 1.931 21.69 5.307z" fill="#21b75d"/><g><path d="m256 116.178c-4.81 0-8.709-3.899-8.709-8.709v-71.858c0-4.81 3.899-8.709 8.709-8.709s8.709 3.899 8.709 8.709v71.858c0 4.811-3.899 8.709-8.709 8.709z" fill="#49d88b"/></g><path d="m256 148.166c-18.071 0-33.288 10.096-41.112 24.485 15.054 18.756 26.168 38.428 33.072 52.243l.582 1.163 1.281-.228c4.089-.726 8.282-.725 12.353.001l1.281.229.583-1.165c6.904-13.815 18.018-33.487 33.073-52.243-7.824-14.389-23.042-24.485-41.113-24.485z" fill="#ff4155"/><path d="m386.07 120.712c15.161 0 27.478-.807 37.507-2.115 9.799-25.874 2.489-52.045-3.991-67.424-1.794-4.258-7.691-4.808-10.137-.888-5.78 9.262-20.719 22.519-58.37 36.328-46.891 17.199-51.699 56.738-49.853 80.687 21.57-24.906 50.271-46.588 84.844-46.588z" fill="#ffdd40"/><path d="m355.441 121.726c-20.472-7.304-16.253-26.566-15.356-29.886.04-.149.065-.302.085-.455-36.732 18.944-40.633 53.972-38.942 75.915 15.392-17.772 34.418-33.897 56.615-41.679.235-1.663-.754-3.307-2.402-3.895z" fill="#ffc839"/><path d="m125.93 120.712c34.573 0 63.275 21.683 84.844 46.588 1.846-23.949-2.962-63.488-49.853-80.687-37.651-13.809-52.59-27.066-58.37-36.328-2.446-3.92-8.343-3.37-10.137.888-6.48 15.38-13.79 41.55-3.991 67.424 10.028 1.308 22.346 2.115 37.507 2.115z" fill="#ffc839"/><path d="m125.93 120.712c7.388 0 14.506.997 21.346 2.798 1.02-1.813 1.179-4.024.348-6.009-6.634-15.843 2.171-24.513 8.299-28.376 1.295-.816 2.215-2.013 2.725-3.36-35.973-13.503-50.436-26.407-56.098-35.48-2.446-3.92-8.343-3.37-10.137.888-6.48 15.38-13.79 41.55-3.991 67.424 10.029 1.308 22.347 2.115 37.508 2.115z" fill="#ffb332"/><path d="m467.973 105.343c-.032-2.776-3.325-4.194-5.389-2.337-7.46 6.713-26.731 15.383-76.514 15.383-65.647 0-110.136 78.166-124.79 108.154 13.186 2.124 26.035 12.142 28.037 29.452l1.192 10.31h3.092l1.353-4.254c.27-.852.634-1.648 1.08-2.363 54.514-87.418 81.085-95.765 92.105-92.958 7.55 1.927 12.943 10.55 15.402 24.15l4.056-3.245c54.827-14.837 60.613-61.588 60.376-82.292z" fill="#fcea9d"/><path d="m261.281 226.543c13.186 2.124 26.035 12.142 28.037 29.452l1.192 10.31h3.092l1.353-4.254c.271-.852.635-1.648 1.08-2.363 40.015-64.168 64.974-85.732 79.779-91.553.003-.006.006-.012.01-.018 1.061-1.86.253-4.213-1.707-5.074-23.115-10.159-19.252-28.965-16.45-36.718.359-.992.233-2.025-.233-2.884-49.934 17.766-83.744 77.707-96.153 103.102z" fill="#ffdd40"/><path d="m44.027 105.343c.032-2.776 3.325-4.194 5.389-2.337 7.46 6.713 26.731 15.383 76.514 15.383 65.647 0 110.136 78.166 124.79 108.154-13.186 2.124-26.035 12.142-28.036 29.452l-1.192 10.31h-3.092l-1.352-4.254c-.271-.852-.635-1.648-1.08-2.363-54.514-87.418-81.085-95.765-92.105-92.958-7.55 1.927-12.943 10.55-15.402 24.15l-4.056-3.245c-54.829-14.837-60.615-61.588-60.378-82.292z" fill="#ffdd40"/><path d="m104.403 187.635 4.056 3.245c2.458-13.6 7.851-22.222 15.402-24.15 4.09-1.042 10.326-.542 19.335 4.962.659-1.906.409-4.058-.672-5.84-12.443-20.521-2.308-34.89 3.654-40.873.997-1 1.627-2.254 1.869-3.582-7.076-1.931-14.449-3.008-22.116-3.008-49.782 0-69.054-8.67-76.514-15.383-2.064-1.857-5.357-.439-5.389 2.337-.238 20.704 5.548 67.455 60.375 82.292z" fill="#ffc839"/><path d="m412.595 308.094-.29-1.762-24.426-27.289c-3.333 4.256-7.002 7.349-10.941 8.855-33.378 12.768-64.306-3.867-79.387-14.54-3.301-2.336-5.216-5.772-5.576-9.375h-1.466-69.019-1.466c-.36 3.603-2.275 7.038-5.576 9.375-15.081 10.674-46.009 27.308-79.387 14.54-3.634-1.39-7.038-4.129-10.16-7.886l-25.206 26.32-.688 1.61c.036.012.072.02.108.032 7.204 2.549 11.022 10.495 8.506 17.728-1.38 4.095-3.929 16.426.796 24.205 2.838 4.674 8.575 7.705 17.052 9.01 18.377 2.829 31.677-2.231 50.085-9.231 19.593-7.449 43.978-16.721 80.447-16.721 36.468 0 60.853 9.272 80.446 16.721 18.407 6.998 31.704 12.057 50.086 9.231 12.847-1.977 16.051-7.336 17.103-9.097 4.759-7.957 2.078-20.347.763-24.06-2.527-7.144 1.147-14.992 8.196-17.666z" fill="#49d88b"/><path d="m189.169 344.654c-.419-1.927-1.62-3.628-3.437-4.574-24.73-12.881-19.576-33.926-16.209-42.393.747-1.878.717-3.992-.177-5.771-10.706 1.343-22.336.553-34.285-4.018-3.633-1.39-7.038-4.129-10.16-7.886l-25.206 26.32-.688 1.61c.036.012.072.02.107.032 7.204 2.549 11.022 10.495 8.506 17.728-1.38 4.095-3.929 16.426.796 24.205 2.838 4.674 8.575 7.705 17.052 9.01 18.377 2.829 31.677-2.231 50.086-9.231 4.284-1.629 8.796-3.345 13.615-5.032z" fill="#38c674"/><path d="m391.885 470.869c12.712-8.492 24.59-18.135 35.475-28.79-1.756-27.838-10.696-50.045-16.837-62.324-5.252 2.706-11.648 4.9-19.487 6.106-24.892 3.83-42.696-2.298-65.111-10.82-19.123-7.27-38.895-14.787-69.924-14.787-31.028 0-50.802 7.517-69.925 14.787-22.343 8.495-40.215 14.649-65.111 10.82-7.839-1.206-14.236-3.4-19.488-6.106-6.141 12.278-15.081 34.486-16.837 62.324 10.885 10.655 22.763 20.299 35.475 28.791z" fill="#ffb332"/><path d="m247.128 458c-38.996-19.121-37.568-66.388-35.667-83.412.342-3.069-1.418-5.933-4.21-7.06-7.46 2.302-14.361 4.923-21.176 7.514-22.343 8.495-40.215 14.649-65.111 10.82-7.839-1.206-14.236-3.4-19.488-6.106-6.141 12.278-15.081 34.486-16.837 62.324 10.885 10.655 22.763 20.299 35.475 28.791h127.302c.631-.852 1.263-1.66 1.883-2.41 2.805-3.392 1.779-8.524-2.171-10.461z" fill="#ff9100"/><path d="m395.046 385.134c-1.294.271-2.63.514-4.011.726-24.892 3.83-42.696-2.298-65.111-10.82-19.123-7.27-38.895-14.787-69.924-14.787-31.028 0-50.802 7.517-69.925 14.787-22.343 8.495-40.215 14.649-65.111 10.82-1.381-.212-2.717-.456-4.01-.726-3.645 18.252-7.888 52.22 1.647 84.735 22.473 15.25 47.617 26.857 74.579 33.991h125.64c26.962-7.134 52.105-18.74 74.579-33.991 9.535-32.514 5.291-66.482 1.647-84.735z" fill="#ff7186"/><path d="m249.3 468.459c2.804-3.39 1.778-8.522-2.172-10.459-38.996-19.121-37.568-66.388-35.667-83.412.342-3.069-1.418-5.933-4.21-7.06-7.46 2.302-14.361 4.923-21.176 7.514-22.343 8.495-40.215 14.649-65.111 10.82-1.381-.212-2.717-.456-4.01-.726-3.645 18.252-7.888 52.22 1.647 84.735 22.473 15.25 47.617 26.857 74.579 33.991h48.674c-6.618-14.368 1.073-27.697 7.446-35.403z" fill="#ff4155"/><path d="m325.924 375.041c-19.123-7.27-38.895-14.787-69.924-14.787-31.028 0-50.802 7.517-69.925 14.787-16.596 6.31-30.73 11.319-47.104 11.914-4.522 31.565-4.52 90.309 50.525 115.905 21.149 5.95 43.453 9.14 66.504 9.14s45.355-3.189 66.503-9.14c55.043-25.595 55.047-84.335 50.525-115.901-16.351-.591-30.459-5.59-47.104-11.918z" fill="#ff4155"/><path d="m247.041 511.836c-14.671-17.267-5.282-34.258 2.259-43.377 2.804-3.39 1.778-8.522-2.172-10.459-38.996-19.121-37.568-66.388-35.667-83.412.342-3.069-1.418-5.933-4.21-7.061-7.46 2.302-14.361 4.923-21.176 7.514-16.596 6.31-30.73 11.319-47.104 11.914-4.522 31.565-4.52 90.309 50.525 115.905 18.397 5.176 37.669 8.26 57.545 8.976z" fill="#e80054"/><path d="m256 360.254c-31.028 0-50.802 7.517-69.925 14.787-3.796 1.443-7.46 2.814-11.055 4.083-2.901 29.82 3.013 82.482 80.979 82.482s83.881-52.661 80.98-82.482c-3.592-1.269-7.256-2.639-11.055-4.084-19.122-7.269-38.895-14.786-69.924-14.786z" fill="#e80054"/><path d="m175.021 379.124c-2.83 29.086 2.74 79.893 75.36 82.378-.591-1.463-1.688-2.735-3.253-3.503-38.996-19.121-37.568-66.388-35.667-83.412.342-3.069-1.418-5.933-4.21-7.06-7.46 2.302-14.361 4.923-21.176 7.514-3.795 1.443-7.459 2.813-11.054 4.083z" fill="#cc0053"/><path d="m432.314 315.88c-2.888-8.16-11.846-12.44-20.008-9.548-8.161 2.888-12.436 11.846-9.548 20.008 1.013 2.86 3.875 15.078-.616 22.586-.949 1.588-3.839 6.417-15.874 8.269-17.916 2.752-31.04-2.233-49.202-9.138-19.727-7.5-44.278-16.834-81.065-16.834s-61.339 9.334-81.066 16.834c-18.162 6.905-31.284 11.892-49.202 9.138-7.943-1.222-13.268-3.978-15.827-8.192-4.361-7.18-1.861-19.106-.634-22.745 2.832-8.14-1.442-17.049-9.577-19.927-8.162-2.889-17.12 1.387-20.008 9.548-.995 2.809-9.346 28.052 3.265 49.14 5.204 8.699 16.022 19.78 38.014 23.163 24.896 3.829 42.768-2.325 65.111-10.82 19.123-7.27 38.896-14.787 69.925-14.787s50.801 7.517 69.924 14.787c22.414 8.521 40.218 14.65 65.111 10.82 21.992-3.383 32.81-14.464 38.014-23.163 12.609-21.087 4.257-46.33 3.263-49.139z" fill="#fcea9d"/><path d="m209.621 369.136c-.865-.909-1.985-1.589-3.281-1.911-16.515-4.098-17.889-14.081-17.061-20.088.2-1.448-.051-2.887-.677-4.131-4.837 1.694-9.368 3.416-13.669 5.052-18.162 6.905-31.283 11.892-49.202 9.138-7.943-1.222-13.268-3.978-15.827-8.192-4.361-7.18-1.861-19.106-.634-22.745 2.832-8.14-1.442-17.049-9.577-19.927-8.162-2.889-17.12 1.387-20.008 9.548-.994 2.809-9.346 28.052 3.265 49.14 5.204 8.699 16.022 19.78 38.014 23.163 24.896 3.829 42.768-2.325 65.111-10.82 7.531-2.863 15.166-5.762 23.546-8.227z" fill="#ffdd40"/><path d="m293.859 258.331c-3.635 5.829-2.075 13.266 3.693 17.349 15.081 10.674 46.009 27.308 79.387 14.54 46.282-17.703 55.452-254.037-83.08-31.889z" fill="#e9efff"/><path d="m293.859 258.331c-3.635 5.829-2.075 13.266 3.693 17.349 11.065 7.831 30.666 18.857 53.501 19.138-7.461-5.01-5.772-12.468-4.195-16.325.616-1.505.106-3.238-1.184-4.228-15.15-11.632-6.284-24.393-5.048-26.027.101-.133.187-.266.269-.412l14.677-26.306c.292-.523.442-1.117.453-1.715.298-17.167 8.958-21.781 14.472-22.976 2.077-.45 3.338-2.614 2.646-4.623-3.585-10.414.003-19.392 2.681-24.088.516-.906.583-1.927.296-2.837-18.049 6.348-44.733 32.87-82.261 93.05z" fill="#dae2fe"/><path d="m218.141 258.331c3.635 5.829 2.075 13.266-3.693 17.349-15.081 10.674-46.009 27.308-79.387 14.54-46.282-17.703-55.452-254.037 83.08-31.889z" fill="#e9efff"/><path d="m175.589 248.522-16.941-32.893c-19.924-3.723-14.211-26.58-14.211-26.58-7.715-7.715-.92-20.135-.912-20.15-57.558-33.73-43.873 107.777-8.465 121.321 12.192 4.664 24.053 5.394 34.939 3.935-4.809-10.516 5.59-16.785 5.59-16.785-15.441-15.441 0-28.848 0-28.848z" fill="#dae2fe"/><path d="m256 333.546c15.66 0 29.096 1.695 40.893 4.216l-5.028-82.06c-2.303-19.916-18.514-32.162-35.866-32.162-17.297 0-33.553 12.158-35.866 32.162l-5.028 82.06c11.799-2.522 25.235-4.216 40.895-4.216z" fill="#ffc839"/><path d="m254.93 265.881c.953-16.843 12-28.757 25.712-32.777-6.645-6.15-15.484-9.564-24.643-9.564-17.297 0-33.553 12.158-35.866 32.162l-5.028 82.06c11.479-2.453 24.527-4.111 39.648-4.199z" fill="#ffb332"/><circle cx="296.562" cy="318.219" fill="#ff4155" r="23.38"/><ellipse cx="301.635" cy="311.849" fill="#ff7186" rx="9.729" ry="9.729" transform="matrix(.707 -.707 .707 .707 -132.164 304.627)"/><path d="m280.642 173.444c0 7.086-5.745 12.831-12.831 12.831s-12.831-5.744-12.831-12.831c0-7.086 5.745-12.831 12.831-12.831 7.087 0 12.831 5.745 12.831 12.831z" fill="#ff7186"/><path d="m386.07 227.71c0-21.648-13.856-40.05-33.18-46.848-15.315 14.19-34.287 38.097-57.434 74.927 8.951 13.03 23.952 21.58 40.955 21.58 27.426.001 49.659-22.233 49.659-49.659z" fill="#ff4155"/><path d="m373.177 194.339c-5.484-6.035-12.434-10.714-20.287-13.477-15.315 14.19-34.287 38.097-57.434 74.927 8.951 13.03 23.952 21.58 40.955 21.58 3.632 0 7.169-.4 10.579-1.141-.207-.762-.658-1.46-1.315-1.965-15.15-11.632-6.284-24.393-5.048-26.027.101-.133.187-.266.269-.412l14.677-26.306c.292-.523.442-1.117.453-1.715.298-17.167 8.958-21.781 14.472-22.976 1.33-.286 2.318-1.282 2.679-2.488z" fill="#e80054"/><path d="m125.93 227.71c0-21.648 13.856-40.05 33.18-46.848 15.315 14.19 34.288 38.097 57.434 74.927-8.951 13.03-23.952 21.58-40.955 21.58-27.426.001-49.659-22.233-49.659-49.659z" fill="#ff4155"/><path d="m175.589 248.522-16.941-32.893c-19.908-3.72-14.22-26.542-14.211-26.578-11.285 9.1-18.507 23.033-18.507 38.66 0 27.426 22.234 49.66 49.659 49.66-15.441-15.442 0-28.849 0-28.849z" fill="#e80054"/><path d="m336.411 206.898c-2.992 0-5.829.643-8.4 1.779-3.915 5.023-7.995 10.52-12.248 16.531-.099.822-.165 1.654-.165 2.502 0 11.494 9.318 20.812 20.812 20.812s20.812-9.318 20.812-20.812c.001-11.494-9.317-20.812-20.811-20.812z" fill="#2d3c6b"/><path d="m329.769 208.058c-.066 0-.131.009-.197.01-.529.185-1.052.385-1.561.61-2.58 3.309-5.238 6.846-7.962 10.577.669 4.776 4.759 8.455 9.72 8.455 5.427 0 9.826-4.399 9.826-9.826s-4.399-9.826-9.826-9.826z" fill="#3c5082"/><path d="m175.589 206.898c2.992 0 5.829.643 8.4 1.779 3.915 5.023 7.995 10.52 12.247 16.531.099.822.165 1.654.165 2.502 0 11.494-9.318 20.812-20.812 20.812s-20.812-9.318-20.812-20.812 9.318-20.812 20.812-20.812z" fill="#2d3c6b"/><circle cx="215.438" cy="318.219" fill="#ff4155" r="23.38"/><ellipse cx="220.51" cy="311.849" fill="#ff7186" rx="9.729" ry="9.728" transform="matrix(.16 -.987 .987 .16 -122.552 479.728)"/><circle cx="169.746" cy="217.884" fill="#3c5082" r="9.826"/></g></svg>