<svg id="Layer_1" enable-background="new 0 0 495.427 495.427" height="512" viewBox="0 0 495.427 495.427" width="512" xmlns="http://www.w3.org/2000/svg"><g><path d="m245 2.713c-55.783 0-107.202 18.656-148.386 50.052l-47.69 48.043-.007-.001c-17.653 23.524-31.169 50.328-39.474 79.335l.005.011-3.24 122.585c24.971 108.814 122.402 189.976 238.792 189.976 135.31 0 245-109.69 245-245s-109.69-245.001-245-245.001z" fill="#ffdd40"/><path d="m73.99 327.197v35.125c0 9.918 4.112 19.393 11.356 26.168 7.244 6.775 11.356 16.249 11.356 26.168v43.861c0 7.375 5.979 13.354 13.354 13.354 7.375 0 13.354-5.979 13.354-13.354v-123.95c-16.794-1.059-33.3-3.516-49.42-7.372z" fill="#b76c4e"/><path d="m110.056 471.872c3.123 0 5.989-1.08 8.263-2.876-6.196-5.165-7.055-14.347-7.055-14.347v-48.896c0-6.618-1.173-13.201-3.625-19.348-2.117-5.305-4.375-13.329-4.375-23.423 0-11.714 11.4-13.289 20.146-12.776v-15.637c-16.794-1.059-33.3-3.517-49.42-7.373v35.125c0 9.918 4.112 19.393 11.356 26.168 7.244 6.775 11.356 16.249 11.356 26.168v43.861c0 7.376 5.979 13.354 13.354 13.354z" fill="#a05838"/><path d="m407.381 369.209c-21.709 18.632-5.1 52.849 21.375 49.608 4.422-.542 7.939-4.268 7.742-8.719-.222-5.03-4.694-8.659-9.565-7.967-10.23 1.476-17.694-12.402-8.624-20.188 18.198-15.614 44.238-.312 42.941 25.362-.799 15.791-10.736 25.185-24.261 33-17.207 9.941-34.584 12.644-53.864 11.588-100.811-5.551-157.573-78.393-183.177-123.34-18.078 3.599-36.68 5.507-55.527 5.634.069 1.264.403 2.518 1.044 3.658 10.124 17.988 32.375 52.573 67.654 82.104 42.81 35.836 91.731 54.006 145.403 54.006 35.426 0 74.276-6.342 101.416-29.316 10.773-9.12 17.359-22.419 18.071-36.486 2.066-40.853-41.571-63.878-70.628-38.944z" fill="#b76c4e"/><path d="m368.428 461.415c-110.403-6.074-173.174-79.307-175.331-95.599-2.25-17 18.13-19.001 18.13-19.001l.001-.001c-4.278-6.406-8.031-12.56-11.28-18.262-18.078 3.599-36.68 5.507-55.527 5.634.069 1.264.403 2.518 1.044 3.658 10.124 17.988 32.375 52.573 67.653 82.104 42.81 35.836 91.731 54.006 145.404 54.006 10.305 0 20.898-.542 31.41-1.869-5.342-6.351-13.121-10.209-21.504-10.67z" fill="#a05838"/><path d="m477.912 225.257h-100.586c-23.322 0-45.988-7.618-64.634-21.629-47.388-35.608-107.509-55.488-170.26-55.488-37.077 0-72.951 6.729-106.623 20-9.078 3.578-17.863 7.596-26.361 12.012-5.085 17.758-8.216 36.339-9.148 55.499l.004-.003-.304 12.065c0 18.92 2.148 37.337 6.207 55.025 9.493 5.097 19.368 9.671 29.601 13.704 33.673 13.271 69.546 20 106.623 20 62.752 0 122.873-19.88 170.26-55.488 18.646-14.01 41.312-21.629 64.635-21.629h101.065c9.681 0 17.475-8.075 17.015-17.857-.429-9.162-8.322-16.211-17.494-16.211z" fill="#90482d"/><path d="m142.432 148.14c-37.077 0-72.951 6.729-106.623 20-9.078 3.578-17.863 7.596-26.361 12.012-5.085 17.758-8.216 36.339-9.148 55.499l.004-.003-.304 12.065c0 18.92 2.148 37.337 6.208 55.025 9.493 5.097 19.368 9.671 29.601 13.704 33.673 13.271 69.546 20 106.623 20 6.607 0 13.182-.234 19.719-.669-11.228-8.445-7.015-18.915-4.421-23.362.761-1.304.625-2.92-.275-4.132-3.604-4.855-2.65-9.411-1.434-12.139.699-1.568.155-3.376-1.21-4.418-10.785-8.226-5.543-20.035-4.055-22.875.233-.445.375-.927.416-1.428l4.063-49.203c.048-.585-.054-1.174-.271-1.72-5.015-12.603 2.192-20.038 6.547-23.18 1.481-1.068 1.954-3.029 1.167-4.677-2.77-5.799-.479-9.884 1.466-12.033 1.048-1.159 1.283-2.845.549-4.224-6.342-11.93-.545-18.646 3.074-21.415.561-.429.957-.998 1.191-1.624-8.77-.788-17.62-1.203-26.526-1.203z" fill="#7f3822"/><path d="m142.432 83.287c41.242 0 81.718 9.702 117.049 28.057 61.783 32.094 132.468 49.059 204.411 49.059h14.501c9.408 0 17.034-7.626 17.034-17.034s-7.626-17.034-17.034-17.034h-14.501c-66.499 0-131.752-15.638-188.705-45.224-40.163-20.865-86.069-31.893-132.755-31.893-15.504 0-30.794 1.193-45.804 3.533-18.029 13.74-34.094 29.924-47.703 48.057 29.206-11.41 61.058-17.521 93.507-17.521z" fill="#90482d"/><path d="m299.475 248.051c3.654-2.989 3.654-8.53 0-11.518-42.515-34.774-98.396-54.324-157.043-54.324-51.318 0-101.154 15.27-141.368 42.657-.695 7.524-1.064 15.142-1.064 22.847 0 3.842.1 7.66.275 11.459 40.35 27.727 90.502 43.202 142.157 43.202 58.648 0 114.53-19.549 157.043-54.323z" fill="#e9efff"/><path d="m210.19 241.881c0-24.013-12.504-45.092-31.344-57.124-11.952-1.678-24.12-2.548-36.414-2.548-12.274 0-24.462.883-36.456 2.587-18.807 12.039-31.285 33.098-31.285 57.086 0 24.694 13.216 46.295 32.956 58.135 11.455 1.551 23.08 2.358 34.785 2.358 11.718 0 23.323-.794 34.736-2.32 19.777-11.832 33.022-33.453 33.022-58.174z" fill="#7f3822"/><path d="m142.432 182.209c-12.274 0-24.462.883-36.456 2.587-18.807 12.039-31.284 33.098-31.284 57.086 0 24.694 13.216 46.295 32.955 58.135 11.455 1.551 23.08 2.358 34.785 2.358 4.196 0 8.378-.106 12.542-.307-.21-2.361.377-4.423 1.048-5.928.699-1.568.155-3.376-1.21-4.418-10.785-8.226-5.543-20.035-4.055-22.875.233-.445.375-.927.416-1.428l4.063-49.203c.048-.585-.054-1.174-.271-1.72-5.015-12.603 2.192-20.038 6.547-23.18 1.481-1.068 1.954-3.029 1.167-4.677-1.028-2.152-1.357-4.067-1.267-5.735-6.285-.457-12.615-.695-18.98-.695z" fill="#6d2b19"/><ellipse cx="142.441" cy="241.881" fill="#90482d" rx="27.724" ry="27.724" transform="matrix(.38 -.925 .925 .38 -135.4 281.882)"/><ellipse cx="149.108" cy="235.593" fill="#b76c4e" rx="10.672" ry="10.672" transform="matrix(.923 -.385 .385 .923 -79.242 75.613)"/><path d="m304.787 254.545c3.698-3.024 5.819-7.489 5.819-12.252.001-4.763-2.121-9.229-5.819-12.256-44.324-36.253-101.983-56.219-162.355-56.219-50.647 0-99.452 14.11-140.113 40.137-.984 7.137-1.66 14.372-2.015 21.692 39.996-29.125 89.983-45.049 142.128-45.049 56.1 0 109.612 18.349 150.827 51.693-41.212 33.344-94.724 51.692-150.827 51.692-52.271 0-102.374-15.998-142.419-45.259.029 7.092.367 14.109.986 21.047 40.923 26.571 90.235 40.992 141.433 40.992 60.375.001 118.034-19.965 162.355-56.218z" fill="#b76c4e"/><g fill="#90482d"><path d="m156.022 296.139c.369-.828.383-1.721.121-2.535-4.55.244-9.121.379-13.711.379-52.271 0-102.374-15.998-142.419-45.259.029 7.092.367 14.109.986 21.047 40.923 26.571 90.235 40.992 141.433 40.992 5.284 0 10.546-.162 15.782-.466-.053-.715-.311-1.418-.758-2.02-3.604-4.854-2.65-9.41-1.434-12.138z"/><path d="m2.319 213.955c-.984 7.137-1.66 14.372-2.015 21.692 39.997-29.125 89.983-45.049 142.128-45.049 6.858 0 13.675.278 20.438.821.281-.89.239-1.88-.191-2.78-2.77-5.799-.479-9.884 1.466-12.033.481-.531.781-1.175.904-1.848-7.482-.624-15.028-.94-22.618-.94-50.646 0-99.451 14.11-140.112 40.137z"/></g><path d="m175.842 51.115c-11.046-1.254-22.205-1.896-33.409-1.896-15.504 0-30.794 1.193-45.804 3.533-18.03 13.74-34.094 29.924-47.703 48.057 29.206-11.41 61.059-17.522 93.508-17.522 9.3 0 18.561.498 27.733 1.473-16.101-24.556 5.673-33.645 5.675-33.645z" fill="#7f3822"/></g></svg>