<svg id="Layer_1" enable-background="new 0 0 512 512" height="512" viewBox="0 0 512 512" width="512" xmlns="http://www.w3.org/2000/svg"><g><path d="m26.853 353.834c35.051 92.444 124.416 158.166 229.147 158.166 104.224 0 193.233-65.086 228.637-156.824z" fill="#2d3c6b"/><circle cx="256" cy="267" fill="#2d3c6b" r="245"/><path d="m360.329 10.351c-6.674-6.675-15.549-10.351-24.989-10.351h-158.68c-9.44 0-18.315 3.676-24.99 10.351l-130.319 130.32c-6.675 6.675-10.351 15.549-10.351 24.99v101.344c.001 31.185 5.84 61.004 16.465 88.438l124.206 124.206c6.674 6.676 15.549 10.351 24.989 10.351h158.68c9.44 0 18.315-3.676 24.99-10.352l124.206-124.206c10.624-27.434 16.464-57.252 16.464-88.437v-101.344c0-9.44-3.676-18.315-10.352-24.99z" fill="#49d88b"/><path d="m428.272 408.696c-12.957-1.2-15.738-10.503-16.303-15.332-.176-1.5-1.469-2.651-2.979-2.627-6.242.097-8.255-3.388-8.866-6.193-.372-1.708-2.128-2.698-3.809-2.22-16.678 4.747-25.834-5.205-27.181-6.813-.124-.148-.259-.285-.409-.408-1.736-1.428-12.995-10.625-30.122-23.163-13.273-9.716-13.823-21.042-13.033-26.773.247-1.797-1.147-3.365-2.96-3.415-6.455-.178-7.683-4.631-7.751-7.727-.036-1.624-1.314-2.941-2.938-2.986-61.263-1.683-64.271-51.714-64.163-63.069.013-1.337-.869-2.522-2.151-2.902-47.372-14.037-39.792-60.363-36.912-72.523.361-1.522-.506-3.068-1.995-3.549-5.381-1.742-5.972-5.971-5.614-9.004.201-1.701-1.005-3.268-2.714-3.369-15.946-.938-25.364-15.586-26.277-17.066-.056-.091-.11-.169-.176-.253-1.126-1.451-11.416-14.597-25.148-28.33-10.466-10.466-9.937-21.405-8.811-26.73.353-1.672-.721-3.278-2.396-3.618-5.061-1.028-6.443-4.396-6.755-6.846-.19-1.494-1.435-2.628-2.941-2.655-15.697-.286-16.533-11.341-16.031-16.627.064-.678-.116-1.319-.455-1.857l-88.031 88.031c-6.675 6.674-10.351 15.548-10.351 24.989v101.344c.001 31.185 5.84 61.004 16.465 88.438l124.206 124.206c6.674 6.676 15.549 10.351 24.989 10.351h158.68c9.44 0 18.315-3.676 24.99-10.352l69.931-69.931c-.491-.563-1.19-.947-1.989-1.021z" fill="#21b75d"/><path d="m176.66 34.087c-.33 0-.653.134-.887.367l-130.32 130.319c-.233.234-.367.557-.367.887v158.68c0 .33.134.653.367.887l130.319 130.319c.234.233.557.367.887.367h158.68c.33 0 .653-.134.887-.367l130.319-130.319c.233-.234.367-.557.367-.887v-158.68c0-.33-.134-.653-.367-.887l-130.318-130.319c-.234-.233-.557-.367-.887-.367z" fill="#ff4155"/><path d="m400.123 384.544c-.372-1.708-2.128-2.698-3.809-2.22-16.678 4.747-25.834-5.205-27.181-6.813-.124-.148-.259-.285-.409-.408-1.736-1.428-12.995-10.625-30.122-23.163-13.273-9.716-13.823-21.042-13.033-26.773.247-1.797-1.147-3.365-2.96-3.415-6.455-.178-7.683-4.631-7.751-7.727-.036-1.624-1.314-2.941-2.938-2.986-61.263-1.683-64.271-51.714-64.163-63.069.013-1.337-.869-2.522-2.151-2.902-47.372-14.037-39.792-60.363-36.912-72.523.361-1.522-.506-3.068-1.995-3.549-5.381-1.742-5.972-5.971-5.614-9.004.201-1.701-1.005-3.268-2.714-3.369-15.946-.938-25.364-15.586-26.277-17.066-.056-.091-.11-.169-.176-.253-1.126-1.451-11.416-14.597-25.148-28.33-10.466-10.466-9.937-21.405-8.811-26.73.353-1.672-.721-3.278-2.396-3.618-1.802-.366-3.131-1.032-4.118-1.844l-85.992 85.992c-.233.234-.367.557-.367.887v158.68c0 .33.134.653.367.887l130.319 130.319c.234.233.557.367.888.367h158.68c.33 0 .653-.134.887-.367l66.551-66.551c-1.582-1.239-2.326-2.942-2.655-4.452z" fill="#e80054"/><g><path d="m335.34 463.218h-158.679c-2.247 0-4.45-.91-6.042-2.496l-130.33-130.33c-1.597-1.604-2.507-3.806-2.507-6.053v-158.679c0-2.246.91-4.449 2.496-6.041l130.33-130.331c1.603-1.596 3.805-2.506 6.053-2.506h158.679c2.246 0 4.449.91 6.041 2.496l130.33 130.33c1.597 1.604 2.506 3.806 2.506 6.053v158.68c0 2.246-.91 4.449-2.496 6.041l-130.33 130.331c-1.602 1.595-3.805 2.505-6.051 2.505zm-156.175-14.609h153.669l126.775-126.775v-153.669l-126.775-126.775h-153.669l-126.775 126.775v153.669zm156.175-407.219h.009z" fill="#ff7186"/></g><path d="m400.123 384.544c-.179-.824-.685-1.474-1.344-1.88l-65.945 65.945h-153.669l-126.775-126.774v-153.67l85.478-85.478c-.327-1.017-1.172-1.832-2.305-2.062-5.061-1.028-6.443-4.396-6.755-6.846-.09-.706-.421-1.326-.898-1.793l-87.632 87.632c-1.586 1.592-2.496 3.795-2.496 6.041v158.68c0 2.246.91 4.449 2.507 6.053l130.33 130.33c1.592 1.585 3.795 2.496 6.042 2.496h158.68c2.246 0 4.449-.91 6.052-2.506l69.383-69.383c-.504-.375-1.12-.602-1.785-.591-6.243.097-8.256-3.389-8.868-6.194z" fill="#ff4155"/><ellipse cx="256" cy="245" fill="#2d3c6b" rx="96.02" ry="96.02" transform="matrix(.707 -.707 .707 .707 -98.261 252.778)"/><path d="m314.858 314.026c-.036-1.624-1.314-2.941-2.938-2.986-61.263-1.683-64.271-51.714-64.163-63.069.013-1.337-.869-2.522-2.151-2.902-47.372-14.037-39.792-60.363-36.912-72.523.361-1.522-.506-3.068-1.995-3.549-2.37-.767-3.809-2.017-4.649-3.435-25.392 17.278-42.07 46.409-42.07 79.438 0 53.03 42.99 96.02 96.02 96.02 23.022 0 44.148-8.106 60.69-21.614-1.402-1.585-1.794-3.684-1.832-5.38z" fill="#1e2f59"/><g><path d="m312.352 72.992h-112.704c-4.034 0-7.304-3.27-7.304-7.304s3.27-7.304 7.304-7.304h112.704c4.034 0 7.304 3.27 7.304 7.304s-3.27 7.304-7.304 7.304z" fill="#ffdd40"/></g><g><path d="m288.781 125.583h-65.563c-4.034 0-7.304-3.27-7.304-7.304s3.27-7.304 7.304-7.304h65.563c4.034 0 7.304 3.27 7.304 7.304.001 4.034-3.27 7.304-7.304 7.304z" fill="#ffdd40"/></g><g><path d="m239.437 99.287h-28.004c-4.034 0-7.304-3.27-7.304-7.304 0-4.035 3.27-7.304 7.304-7.304h28.004c4.034 0 7.304 3.27 7.304 7.304.001 4.035-3.27 7.304-7.304 7.304z" fill="#ffdd40"/></g><g><path d="m300.567 99.287h-28.496c-4.034 0-7.304-3.27-7.304-7.304 0-4.035 3.27-7.304 7.304-7.304h28.496c4.034 0 7.304 3.27 7.304 7.304 0 4.035-3.27 7.304-7.304 7.304z" fill="#ffdd40"/></g><g><path d="m312.352 431.617h-39.715c-4.034 0-7.304-3.27-7.304-7.304 0-4.035 3.27-7.304 7.304-7.304h39.715c4.034 0 7.304 3.27 7.304 7.304 0 4.035-3.271 7.304-7.304 7.304z" fill="#ffdd40"/></g><g><path d="m239.037 431.617h-39.388c-4.034 0-7.304-3.27-7.304-7.304 0-4.035 3.27-7.304 7.304-7.304h39.388c4.034 0 7.304 3.27 7.304 7.304 0 4.035-3.27 7.304-7.304 7.304z" fill="#ffdd40"/></g><g><path d="m300.567 405.322h-89.133c-4.034 0-7.304-3.27-7.304-7.304 0-4.035 3.27-7.304 7.304-7.304h89.133c4.034 0 7.304 3.27 7.304 7.304s-3.27 7.304-7.304 7.304z" fill="#ffdd40"/></g><g><path d="m239.037 379.027h-15.819c-4.034 0-7.304-3.27-7.304-7.304s3.27-7.304 7.304-7.304h15.819c4.034 0 7.304 3.27 7.304 7.304.001 4.034-3.27 7.304-7.304 7.304z" fill="#ffdd40"/></g><g><path d="m288.781 379.027h-16.15c-4.034 0-7.304-3.27-7.304-7.304s3.27-7.304 7.304-7.304h16.15c4.034 0 7.304 3.27 7.304 7.304.001 4.034-3.27 7.304-7.304 7.304z" fill="#ffdd40"/></g><g><path d="m435.313 233.033c-4.034 0-7.304-3.27-7.304-7.304v-37.08c0-4.035 3.27-7.304 7.304-7.304s7.304 3.27 7.304 7.304v37.08c0 4.034-3.271 7.304-7.304 7.304z" fill="#ffdd40"/></g><g><path d="m435.313 308.656c-4.034 0-7.304-3.27-7.304-7.304v-42.509c0-4.034 3.27-7.304 7.304-7.304s7.304 3.27 7.304 7.304v42.509c0 4.035-3.271 7.304-7.304 7.304z" fill="#ffdd40"/></g><g><path d="m409.017 296.872c-4.034 0-7.304-3.27-7.304-7.304v-89.133c0-4.034 3.27-7.304 7.304-7.304s7.304 3.27 7.304 7.304v89.133c0 4.034-3.27 7.304-7.304 7.304z" fill="#ffdd40"/></g><g><path d="m382.722 285.086c-4.034 0-7.304-3.27-7.304-7.304v-65.562c0-4.034 3.27-7.304 7.304-7.304s7.304 3.27 7.304 7.304v65.562c0 4.034-3.27 7.304-7.304 7.304z" fill="#ffdd40"/></g><g><path d="m76.687 308.656c-4.034 0-7.304-3.27-7.304-7.304v-41.871c0-4.034 3.27-7.304 7.304-7.304s7.304 3.27 7.304 7.304v41.871c0 4.035-3.27 7.304-7.304 7.304z" fill="#ffdd40"/></g><g><path d="m76.687 232.866c-4.034 0-7.304-3.27-7.304-7.304v-36.913c0-4.035 3.27-7.304 7.304-7.304s7.304 3.27 7.304 7.304v36.913c0 4.034-3.27 7.304-7.304 7.304z" fill="#ffdd40"/></g><g><path d="m102.982 296.872c-4.034 0-7.304-3.27-7.304-7.304v-30.084c0-4.034 3.27-7.304 7.304-7.304s7.304 3.27 7.304 7.304v30.084c.001 4.034-3.269 7.304-7.304 7.304z" fill="#ffdd40"/></g><g><path d="m102.982 232.863c-4.034 0-7.304-3.27-7.304-7.304v-25.125c0-4.034 3.27-7.304 7.304-7.304s7.304 3.27 7.304 7.304v25.125c.001 4.034-3.269 7.304-7.304 7.304z" fill="#ffdd40"/></g><g><path d="m129.277 285.087c-4.034 0-7.304-3.27-7.304-7.304v-65.563c0-4.034 3.27-7.304 7.304-7.304s7.304 3.27 7.304 7.304v65.563c.001 4.034-3.27 7.304-7.304 7.304z" fill="#ffdd40"/></g><g><path d="m169.053 418.944c-1.869 0-3.739-.713-5.165-2.139l-79.693-79.693c-2.853-2.853-2.853-7.477 0-10.331 2.852-2.851 7.477-2.851 10.33 0l79.693 79.693c2.853 2.853 2.853 7.477 0 10.331-1.426 1.426-3.295 2.139-5.165 2.139z" fill="#ffdd40"/></g><g><path d="m89.36 165.359c-1.869 0-3.739-.713-5.165-2.139-2.853-2.853-2.853-7.477 0-10.331l79.693-79.694c2.852-2.851 7.477-2.851 10.33 0 2.853 2.853 2.853 7.477 0 10.331l-79.693 79.694c-1.426 1.425-3.295 2.139-5.165 2.139z" fill="#ffdd40"/></g><g><path d="m342.946 418.944c-1.869 0-3.739-.713-5.165-2.139-2.853-2.853-2.853-7.477 0-10.331l79.693-79.693c2.853-2.852 7.478-2.85 10.33 0 2.853 2.853 2.853 7.477 0 10.331l-79.693 79.693c-1.426 1.426-3.296 2.139-5.165 2.139z" fill="#ffdd40"/></g><g><path d="m368.787 111.505c-1.869 0-3.739-.713-5.165-2.139l-25.84-25.84c-2.853-2.853-2.853-7.477 0-10.331 2.852-2.851 7.477-2.851 10.329 0l25.84 25.84c2.853 2.853 2.853 7.477 0 10.331-1.426 1.426-3.295 2.139-5.164 2.139z" fill="#ffdd40"/></g><g><path d="m422.64 165.359c-1.869 0-3.739-.713-5.165-2.14l-31.876-31.877c-2.853-2.852-2.853-7.476 0-10.33 2.853-2.851 7.478-2.852 10.33.001l31.876 31.877c2.853 2.852 2.853 7.476 0 10.33-1.426 1.425-3.296 2.139-5.165 2.139z" fill="#ffdd40"/></g><g><path d="m179.314 392.017c-1.869 0-3.739-.713-5.165-2.139l-23.053-23.052c-2.853-2.853-2.853-7.477 0-10.331 2.852-2.851 7.477-2.851 10.33 0l23.053 23.052c2.853 2.853 2.853 7.477 0 10.331-1.427 1.426-3.296 2.139-5.165 2.139z" fill="#ffdd40"/></g><g><path d="m133.208 345.912c-1.869 0-3.739-.713-5.165-2.139l-16.921-16.921c-2.853-2.853-2.853-7.477 0-10.331 2.852-2.851 7.477-2.851 10.33 0l16.921 16.921c2.853 2.853 2.853 7.477 0 10.331-1.426 1.426-3.296 2.139-5.165 2.139z" fill="#ffdd40"/></g><g><path d="m332.686 392.017c-1.869 0-3.739-.713-5.165-2.139-2.853-2.853-2.853-7.477 0-10.331l63.026-63.026c2.852-2.851 7.477-2.851 10.33 0 2.853 2.853 2.853 7.477 0 10.331l-63.026 63.026c-1.426 1.426-3.296 2.139-5.165 2.139z" fill="#ffdd40"/></g><g><path d="m116.287 175.619c-1.869 0-3.739-.713-5.165-2.139-2.853-2.853-2.853-7.477 0-10.331l63.027-63.027c2.852-2.851 7.477-2.851 10.33 0 2.853 2.853 2.853 7.477 0 10.331l-63.027 63.027c-1.427 1.426-3.296 2.139-5.165 2.139z" fill="#ffdd40"/></g><g><path d="m349.442 129.347c-1.869 0-3.739-.713-5.165-2.139l-16.756-16.755c-2.853-2.853-2.853-7.477 0-10.331 2.852-2.851 7.477-2.851 10.33 0l16.756 16.755c2.853 2.853 2.853 7.477 0 10.331-1.426 1.426-3.296 2.139-5.165 2.139z" fill="#ffdd40"/></g><g><path d="m395.714 175.619c-1.869 0-3.739-.713-5.165-2.139l-23.136-23.136c-2.853-2.853-2.853-7.477 0-10.331 2.852-2.851 7.477-2.851 10.33 0l23.136 23.136c2.853 2.853 2.853 7.477 0 10.331-1.427 1.426-3.296 2.139-5.165 2.139z" fill="#ffdd40"/></g><g><path d="m189.574 365.091c-1.869 0-3.739-.713-5.165-2.14l-14.56-14.561c-2.852-2.852-2.852-7.477 0-10.33 2.852-2.851 7.477-2.852 10.33.001l14.56 14.561c2.852 2.852 2.852 7.477-.001 10.33-1.425 1.426-3.295 2.139-5.164 2.139z" fill="#ffdd40"/></g><g><path d="m151.879 327.396c-1.869 0-3.739-.713-5.165-2.139l-8.665-8.665c-2.853-2.853-2.853-7.477 0-10.331 2.852-2.851 7.477-2.851 10.33 0l8.665 8.665c2.853 2.853 2.853 7.477 0 10.331-1.426 1.426-3.295 2.139-5.165 2.139z" fill="#ffdd40"/></g><g><path d="m143.214 185.879c-1.869 0-3.739-.713-5.165-2.139-2.853-2.853-2.853-7.477 0-10.331l10.66-10.66c2.852-2.851 7.477-2.851 10.329 0 2.853 2.853 2.853 7.477 0 10.331l-10.66 10.66c-1.426 1.426-3.295 2.139-5.164 2.139z" fill="#ffdd40"/></g><g><path d="m177.186 151.907c-1.869 0-3.739-.713-5.165-2.139-2.853-2.853-2.853-7.477 0-10.331l12.388-12.388c2.852-2.851 7.477-2.851 10.329 0 2.853 2.853 2.853 7.477 0 10.331l-12.388 12.388c-1.425 1.425-3.295 2.139-5.164 2.139z" fill="#ffdd40"/></g><g><path d="m322.426 365.091c-1.869 0-3.739-.713-5.165-2.139-2.853-2.853-2.853-7.477 0-10.331l46.36-46.36c2.852-2.851 7.477-2.851 10.33 0 2.853 2.853 2.853 7.477 0 10.331l-46.36 46.36c-1.426 1.426-3.296 2.139-5.165 2.139z" fill="#ffdd40"/></g><g><path d="m331.095 148.187c-1.869 0-3.738-.713-5.165-2.139l-8.669-8.668c-2.852-2.852-2.853-7.477 0-10.33 2.852-2.853 7.477-2.852 10.33-.001l8.669 8.668c2.852 2.852 2.853 7.477.001 10.33-1.426 1.427-3.296 2.14-5.166 2.14z" fill="#ffdd40"/></g><g><path d="m368.787 185.879c-1.869 0-3.739-.713-5.165-2.139l-15.453-15.453c-2.853-2.853-2.853-7.477 0-10.331 2.852-2.851 7.477-2.851 10.33 0l15.453 15.453c2.853 2.853 2.853 7.477 0 10.331-1.427 1.426-3.296 2.139-5.165 2.139z" fill="#ffdd40"/></g><ellipse cx="256" cy="293.024" fill="#e9efff" rx="13.391" ry="13.391" transform="matrix(.707 -.707 .707 .707 -132.218 266.844)"/><path d="m159.98 245c0-53.03 42.99-96.02 96.02-96.02h.009c26.511.005 48.001 21.498 48.001 48.01 0 26.515-21.495 48.01-48.01 48.01-26.515 0-48.01 21.495-48.01 48.01s21.495 48.01 48.01 48.01c-53.03 0-96.02-42.99-96.02-96.02z" fill="#e9efff"/><path d="m159.98 245c0 53.03 42.99 96.02 96.02 96.02-26.515 0-48.01-21.495-48.01-48.01 0-23.407 16.755-42.891 38.923-47.14-.353-.367-.796-.65-1.308-.802-47.372-14.037-39.792-60.363-36.912-72.523.361-1.522-.506-3.068-1.995-3.549-2.37-.767-3.809-2.017-4.649-3.435-25.391 17.28-42.069 46.411-42.069 79.439z" fill="#bec8f7"/><ellipse cx="256" cy="196.977" fill="#2d3c6b" rx="13.391" ry="13.391" transform="matrix(.707 -.707 .707 .707 -64.303 238.713)"/><g><path d="m256 348.324c-56.973 0-103.324-46.351-103.324-103.324s46.351-103.324 103.324-103.324 103.324 46.351 103.324 103.324-46.351 103.324-103.324 103.324zm0-192.04c-48.918 0-88.715 39.798-88.715 88.715s39.798 88.715 88.715 88.715c48.918 0 88.716-39.798 88.716-88.715s-39.798-88.715-88.716-88.715z" fill="#ff7186"/></g><path d="m322.609 321.753c-6.455-.178-7.683-4.631-7.751-7.727-.017-.771-.321-1.468-.802-1.997-15.571 13.504-35.876 21.687-58.057 21.687-48.918 0-88.715-39.798-88.715-88.715 0-31.368 16.365-58.986 41.005-74.765-.363-.565-.906-1.017-1.59-1.238-5.381-1.742-5.972-5.971-5.614-9.004.093-.787-.125-1.538-.545-2.136-28.757 18.366-47.865 50.564-47.865 87.143 0 56.973 46.351 103.324 103.324 103.324 26.207 0 50.162-9.813 68.396-25.95-.495-.374-1.111-.604-1.786-.622z" fill="#ff4155"/></g></svg>