<svg id="Layer_1" enable-background="new 0 0 512 512" height="512" viewBox="0 0 512 512" width="512" xmlns="http://www.w3.org/2000/svg"><g><path d="m466.157 392.981c22.116-36.813 34.843-79.909 34.843-125.981 0-135.31-109.69-245-245-245s-245 109.69-245 245c0 46.072 12.727 89.168 34.842 125.981z" fill="#2d3c6b"/><path d="m442.002 319.777c0-1.364.248-2.667.68-3.884-1.551-1.768-3.247-3.426-5.088-4.946l-29.593-24.42-15.751 14.993c-6.661 6.34-11.272 15.18-12.324 24.96l-13.623 126.643c-.252 2.341-.767 4.608-1.513 6.772h-.028c-3.289 9.539-11.087 17.052-21.106 19.775l-44.813 6.094v22.496c56.791-10.017 106.832-39.595 142.921-81.527.154-2.21.238-4.439.238-6.687z" fill="#ff4155"/><path d="m147.238 459.895h-.028c-.745-2.164-1.261-4.431-1.513-6.772l-13.622-126.643c-1.052-9.78-5.663-18.62-12.324-24.96l-15.752-14.993-29.593 24.42c-1.841 1.519-3.538 3.177-5.089 4.946.433 1.217.68 2.521.68 3.884v100.27c0 2.248.084 4.477.238 6.687 36.09 41.933 86.13 71.511 142.922 81.527v-22.496l-44.813-6.094c-10.019-2.724-17.816-10.236-21.106-19.776z" fill="#e80054"/><path d="m280.033 242.436c-15.275 0-32.791 0-48.066 0 0 0-10.489-8.152-20.175-19.603v136.873c12.873 7.883 28.008 12.432 44.208 12.432s31.335-4.549 44.208-12.432v-136.873c-9.686 11.451-20.175 19.603-20.175 19.603z" fill="#ffdd40"/><path d="m280.033 242.436c-15.275 0-32.791 0-48.066 0 0 0-10.489-8.152-20.175-19.603v60.052l.862 1.082s13.781-2.166 23.577 9.226c1.465 1.703 3.976 1.985 5.835.724 5.076-3.444 15.459-8.111 27.497-.144 1.956 1.294 4.584.888 5.985-.993 3.363-4.518 10.699-11.165 23.8-8.812.267.048.559.087.862.123v-61.257c-9.688 11.45-20.177 19.602-20.177 19.602z" fill="#ffc839"/><path d="m211.792 357.703v150.31c14.341 2.613 29.113 3.987 44.208 3.987s29.868-1.374 44.209-3.987v-150.31c-12.873 7.883-28.008 12.431-44.208 12.431-16.201 0-31.336-4.548-44.209-12.431z" fill="#ff4155"/><path d="m211.792 357.703v150.31c14.341 2.613 29.113 3.987 44.208 3.987.466 0 .929-.013 1.395-.016-10.266-8.985-9.573-20.522-9.573-20.522s0-47.527 0-68.491 16.342-25.185 16.342-25.185l-2.805-27.828c-1.773.111-3.558.176-5.359.176-16.2 0-31.335-4.548-44.208-12.431z" fill="#e80054"/><path d="m423.803 184.311c-2.384-9.871-4.928-19.29-7.561-28.235h-63.547c-1.121 2.819-1.883 5.68-2.231 8.518-.709 5.77-3.403 15.75-13.477 17.764-3.353.668-6.945.245-10.383-1.23l-4.848-2.079-.492 1.52c-.418 1.291-.847 2.529-1.282 3.742z" fill="#ffdd40"/><path d="m412.122 285.423 10.293-9.797c5.361-5.103 9.148-11.5 11.087-18.439h-134.155v28.236z" fill="#ffdd40"/><path d="m299.347 257.187h30.221v28.236h-30.221z" fill="#ffc839"/><path d="m433.72 234.867c-1.473-9.72-3.15-19.135-4.982-28.235h-116.928c-.038.129-.077.252-.115.382-2.179 7.545-7.018 15.085-12.349 21.675v6.178z" fill="#ffdd40"/><path d="m329.568 226.964c0-6.849.421-13.632 1.202-20.332h-18.96c-.038.129-.077.252-.115.382-2.179 7.545-7.018 15.085-12.348 21.675v6.178h30.221z" fill="#ffc839"/><path d="m380.949 335.979.917-8.528c.772-7.177 3.447-13.97 7.689-19.707h-90.208v28.236h81.602z" fill="#ffdd40"/><path d="m299.347 307.743h30.221v28.236h-30.221z" fill="#ffc839"/><path d="m336.14 133.756c5.037-1.941 11.651-3.358 16.038 0h57.007c-3.464-10.24-6.972-19.671-10.387-28.236h-65.964c-2.926 7.972-4.774 16.477-4.774 25.287-.02 1.003-.045 1.982-.072 2.949z" fill="#ffdd40"/><g fill="#ffc839"><path d="m352.178 133.756h4.223c6.343-10.112 13.716-19.578 22.021-28.236h-45.587c-2.926 7.972-4.774 16.477-4.774 25.287-.02 1.003-.045 1.982-.072 2.949h8.152c5.036-1.941 11.65-3.357 16.037 0z"/><path d="m389.306 83.2c-10.313-22.733-18.067-35.216-18.067-35.216l-1.317.718c.077.085.156.168.233.253 1.209 1.351 1.089 3.442-.269 4.661-5.082 4.56-16.114 15.242-25.575 29.584z"/><path d="m389.306 83.2c-10.313-22.733-18.067-35.216-18.067-35.216l-1.317.718c.077.085.156.168.233.253 1.209 1.351 1.089 3.442-.269 4.661-5.082 4.56-16.114 15.242-25.575 29.584z"/></g><path d="m375.511 386.534 3.037-28.235h-79.201v28.235z" fill="#ffdd40"/><path d="m299.347 358.299h30.221v28.235h-30.221z" fill="#ffc839"/><path d="m299.347 459.409v26.355c0 3.753 3.567 6.48 7.189 5.496l39.061-10.619c10.525-2.861 18.61-11.002 21.58-21.232z" fill="#ffdd40"/><path d="m331.147 459.409h-31.8v26.355c0 3.753 3.567 6.48 7.189 5.496l39.062-10.619c.766-.208 1.515-.452 2.254-.715-7.907-4.401-13.979-11.739-16.705-20.517z" fill="#ffc839"/><path d="m370.073 437.089 3.037-28.235h-73.763v28.235z" fill="#ffdd40"/><path d="m299.347 408.854h30.221v28.235h-30.221z" fill="#ffc839"/><path d="m433.055 258.643c1.817-5.669 2.397-11.74 1.543-17.799-.353-2.499-.724-4.972-1.103-7.433h-134.148v25.232z" fill="#90d8f9"/><path d="m299.347 233.411h30.221v25.232h-30.221z" fill="#61a2f9"/><path d="m388.528 309.199c1.628-2.419 3.522-4.671 5.663-6.708l19.461-18.523h-114.305v25.232h89.181z" fill="#90d8f9"/><path d="m299.347 283.967h30.221v25.232h-30.221z" fill="#61a2f9"/><path d="m352.133 157.532h64.534c-2.59-8.883-5.27-17.305-7.974-25.232h-59.319c1.362.439 2.621 1.151 3.7 2.23 5.325 5.326 2.238 15.287-.075 20.752-.315.747-.603 1.497-.866 2.25z" fill="#90d8f9"/><path d="m354.638 136.635c.876-1.459 1.776-2.903 2.695-4.335h-7.958c1.362.439 2.621 1.151 3.7 2.23.639.64 1.15 1.349 1.563 2.105z" fill="#61a2f9"/><path d="m429.032 208.087c-1.73-8.706-3.605-17.121-5.586-25.232h-102.956c-1.168 3.382-2.392 6.503-3.587 9.522-1.785 4.516-3.633 9.185-5.208 14.635-.103.358-.218.716-.333 1.074h117.67z" fill="#90d8f9"/><path d="m335.22 182.856h-14.73c-1.168 3.382-2.392 6.503-3.587 9.522-1.785 4.516-3.632 9.185-5.208 14.635-.103.358-.218.716-.334 1.074h19.229c.926-8.572 2.491-16.998 4.63-25.231z" fill="#61a2f9"/><path d="m366.73 460.866c.746-2.164 1.261-4.431 1.513-6.772l1.986-18.459h-70.883v25.232h67.384z" fill="#90d8f9"/><path d="m329.568 448.983v-13.349h-30.221v25.232h32.292c-1.337-3.719-2.071-7.719-2.071-11.883z" fill="#61a2f9"/><path d="m332.31 106.976h67.069c-3.746-9.474-7.385-17.905-10.738-25.232h-43.366c-5.072 7.475-9.762 16.01-12.965 25.232z" fill="#90d8f9"/><path d="m393.131 91.859c-1.54-3.57-3.043-6.951-4.49-10.114h-43.366c-5.071 7.475-9.762 16.009-12.964 25.232h44.721c5.019-5.357 10.4-10.4 16.099-15.118z" fill="#61a2f9"/><path d="m378.392 359.754 2.714-25.231h-81.759v25.231z" fill="#90d8f9"/><path d="m299.347 334.523h30.221v25.232h-30.221z" fill="#61a2f9"/><path d="m372.953 410.31 2.715-25.232h-76.321v25.232z" fill="#90d8f9"/><path d="m299.347 385.078h30.221v25.232h-30.221z" fill="#61a2f9"/><path d="m88.197 184.311c2.385-9.871 4.928-19.29 7.561-28.235h63.548c1.121 2.819 1.883 5.68 2.231 8.518.709 5.77 3.403 15.75 13.477 17.764 3.353.668 6.945.245 10.383-1.23l4.848-2.079.492 1.52c.418 1.291.847 2.529 1.282 3.742z" fill="#ffc839"/><path d="m99.878 285.423-10.294-9.797c-5.361-5.103-9.148-11.5-11.087-18.439h134.155v28.236z" fill="#ffc839"/><path d="m181.82 257.187h30.833v28.236h-30.833z" fill="#ffb332"/><path d="m78.28 234.867c1.472-9.72 3.15-19.135 4.982-28.235h116.928c.038.129.077.252.115.382 2.18 7.545 7.019 15.085 12.349 21.675v6.178z" fill="#ffc839"/><path d="m200.305 207.014c-.037-.13-.077-.253-.115-.382h-19.571c.781 6.7 1.202 13.483 1.202 20.332v7.903h30.833v-6.178c-5.331-6.59-10.17-14.13-12.349-21.675z" fill="#ffb332"/><path d="m131.051 335.979-.917-8.528c-.772-7.177-3.447-13.97-7.689-19.707h90.209v28.236h-81.603z" fill="#ffc839"/><path d="m181.82 307.743h30.833v28.236h-30.833z" fill="#ffb332"/><path d="m175.86 133.756c-5.037-1.941-11.652-3.358-16.038 0h-57.007c3.464-10.24 6.972-19.671 10.387-28.236h65.964c2.926 7.972 4.774 16.477 4.774 25.287.02 1.003.045 1.982.072 2.949z" fill="#ffc839"/><path d="m154.988 133.756h4.834c4.386-3.358 11.001-1.941 16.038 0h8.152c-.027-.968-.052-1.946-.072-2.949 0-8.81-1.848-17.315-4.774-25.287h-46.199c8.305 8.659 15.678 18.124 22.021 28.236z" fill="#ffb332"/><path d="m122.695 83.2c10.313-22.733 18.067-35.216 18.067-35.216l1.317.718c-.077.085-.156.168-.233.253-1.209 1.351-1.089 3.442.269 4.661 5.082 4.56 16.114 15.242 25.575 29.584z" fill="#ffb332"/><path d="m136.489 386.534-3.037-28.235h79.202v28.235z" fill="#ffc839"/><path d="m181.82 358.299h30.833v28.235h-30.833z" fill="#ffb332"/><path d="m212.654 459.409v26.355c0 3.753-3.567 6.48-7.189 5.496l-39.061-10.619c-10.525-2.861-18.61-11.002-21.58-21.232z" fill="#ffc839"/><path d="m180.242 459.409c-2.698 8.687-8.674 15.961-16.461 20.376.858.318 1.728.612 2.623.856l39.061 10.619c3.622.984 7.189-1.742 7.189-5.496v-26.355z" fill="#ffb332"/><path d="m141.927 437.089-3.037-28.235h73.764v28.235z" fill="#ffc839"/><path d="m181.82 408.854h30.833v28.235h-30.833z" fill="#ffb332"/><path d="m78.946 258.643c-1.817-5.669-2.397-11.74-1.543-17.799.353-2.499.724-4.972 1.103-7.433h134.148v25.232z" fill="#90d8f9"/><path d="m181.82 233.411h30.833v25.232h-30.833z" fill="#61a2f9"/><path d="m123.472 309.199c-1.628-2.419-3.522-4.671-5.662-6.708l-19.461-18.523h114.305v25.232h-89.182z" fill="#90d8f9"/><path d="m181.82 283.967h30.833v25.232h-30.833z" fill="#61a2f9"/><path d="m159.867 157.532h-64.534c2.59-8.883 5.27-17.305 7.974-25.232h59.319c-1.362.439-2.621 1.151-3.7 2.23-5.325 5.326-2.239 15.287.075 20.752.316.747.603 1.497.866 2.25z" fill="#90d8f9"/><path d="m157.09 137.208c.451-.973 1.039-1.881 1.835-2.677 1.079-1.079 2.338-1.791 3.7-2.23h-8.569c1.038 1.619 2.05 3.254 3.034 4.907z" fill="#61a2f9"/><path d="m171.158 132.3h12.816c.024 1.01.051 2.008.083 2.981l.086 2.585-2.255-1.268c-1.913-1.076-6.167-3.262-10.73-4.298z" fill="#ffc839"/><path d="m82.968 208.087c1.73-8.706 3.606-17.121 5.587-25.232h102.955c1.167 3.382 2.391 6.503 3.587 9.522 1.786 4.516 3.633 9.185 5.208 14.635.103.358.219.716.334 1.074h-117.671z" fill="#90d8f9"/><path d="m180.798 208.087h19.84c-.115-.358-.23-.716-.334-1.074-1.575-5.45-3.422-10.119-5.208-14.635-1.195-3.02-2.419-6.14-3.587-9.522h-15.342c2.141 8.233 3.705 16.659 4.631 25.231z" fill="#61a2f9"/><path d="m145.27 460.866c-.746-2.164-1.261-4.431-1.513-6.772l-1.986-18.459h70.883v25.232h-67.384z" fill="#90d8f9"/><path d="m181.82 435.634v13.349c0 4.164-.734 8.164-2.07 11.883h32.903v-25.232z" fill="#61a2f9"/><path d="m179.69 106.976h-67.069c3.746-9.474 7.385-17.905 10.738-25.232h43.366c5.072 7.475 9.763 16.01 12.965 25.232z" fill="#90d8f9"/><path d="m134.358 106.976h45.332c-3.203-9.222-7.893-17.757-12.964-25.232h-43.366c-1.498 3.273-3.055 6.78-4.652 10.488 5.532 4.612 10.762 9.53 15.65 14.744z" fill="#61a2f9"/><path d="m133.609 359.754-2.714-25.231h81.759v25.231z" fill="#90d8f9"/><path d="m181.82 334.523h30.833v25.232h-30.833z" fill="#61a2f9"/><path d="m139.047 410.31-2.714-25.232h76.321v25.232z" fill="#90d8f9"/><path d="m181.82 385.078h30.833v25.232h-30.833z" fill="#61a2f9"/><path d="m340.842 132.3h-12.816c-.024 1.01-.051 2.008-.084 2.981l-.086 2.585 2.255-1.268c1.915-1.076 6.168-3.262 10.731-4.298z" fill="#ffc839"/><path d="m232.709 250.602 3.471 25.166c4.581 33.215 6.88 66.706 6.88 100.236v17.007c0 2.637 2.138 4.775 4.775 4.775h16.328c2.637 0 4.775-2.138 4.775-4.775v-17.007c0-33.53 2.299-67.02 6.88-100.236l3.471-25.166c-14.802 0-31.776 0-46.58 0z" fill="#90d8f9"/><path d="m279.291 250.602c-14.804 0-31.778 0-46.581 0l3.471 25.166c.863 6.254 1.617 12.52 2.318 18.791 1.188.286 2.486.09 3.566-.643 5.076-3.444 15.459-8.111 27.497-.144 1.216.805 2.692.95 3.972.494.692-6.174 1.436-12.342 2.285-18.498z" fill="#61a2f9"/><path d="m71.845 428.575c-.255-2.81-.392-5.654-.392-8.529v-100.27c0-7.236-5.865-13.101-13.101-13.101s-13.101 5.865-13.101 13.101v72.204c7.741 13.026 16.652 25.273 26.594 36.595z" fill="#ff7186"/><path d="m466.749 391.981v-72.204c0-7.236-5.865-13.101-13.101-13.101s-13.101 5.865-13.101 13.101v100.27c0 2.875-.137 5.719-.392 8.529 9.942-11.323 18.853-23.57 26.594-36.595z" fill="#fc92a7"/><path d="m71.453 362.043c0 7.236-5.865 13.101-13.101 13.101s-13.101-5.865-13.101-13.101v29.938c7.742 13.026 16.652 25.272 26.594 36.595-.255-2.81-.392-5.654-.392-8.529z" fill="#ff4155"/><path d="m453.648 375.144c-7.236 0-13.101-5.865-13.101-13.101v58.003c0 2.875-.137 5.719-.392 8.529 9.942-11.322 18.853-23.569 26.594-36.595v-29.938c0 7.237-5.865 13.102-13.101 13.102z" fill="#ff7186"/><path d="m328.407 135.902c3.598-2.147 18.085-10.013 25.698-2.401 5.894 5.893 2.766 16.374.236 22.348-1.209 2.855-2.054 5.844-2.432 8.921-.757 6.16-3.662 16.82-14.635 19.014-3.779.756-7.703.2-11.244-1.319l-4.233-1.817c3.194-9.993 5.856-22.912 6.61-44.746z" fill="#ffdd40"/><path d="m183.594 135.902c-3.598-2.147-18.085-10.013-25.698-2.401-5.894 5.893-2.766 16.374-.236 22.348 1.209 2.855 2.054 5.844 2.432 8.921.757 6.16 3.662 16.82 14.635 19.014 3.779.756 7.703.2 11.243-1.319l4.233-1.817c-3.193-9.993-5.855-22.912-6.609-44.746z" fill="#ffc839"/><path d="m273.232.902c-4.785 31.453-6.275 70.047-6.738 90.711 8.44.88 16.756 2.826 24.676 5.835 3.076-28.137 8.553-50.894 12.977-65.958 2.743-9.339 5.373-16.757 7.382-21.983-12.448-4.396-25.309-7.258-38.297-8.605z" fill="#ffdd40"/><path d="m245.507 91.614c-.462-20.666-1.95-59.265-6.735-90.711-12.987 1.346-25.847 4.207-38.294 8.604 5.538 14.392 15.721 45.324 20.354 87.94 7.921-3.009 16.236-4.954 24.675-5.833z" fill="#ffdd40"/><path d="m240.137 10.749c-.423-3.338-.876-6.631-1.365-9.847-12.987 1.346-25.847 4.207-38.294 8.604 5.538 14.392 15.721 45.324 20.354 87.94 6.815-2.589 13.924-4.385 21.151-5.397 1.114-2.116 2.012-3.195 2.012-3.195-.361 0-.713-.007-1.056-.022-7.19-.307-12.918-6.254-13.193-13.446-.624-16.346-4.929-38.284-4.929-38.284-1.782-12.674 5.67-20.962 15.32-26.353z" fill="#ffc839"/><path d="m174.186 21.466c-11.907 6.756-23.484 15.417-33.424 26.519-1.747 1.951-1.569 4.966.381 6.715 10.594 9.506 41.342 40.192 41.342 76.136l.179-.097c.558-4.553 2.552-8.836 5.777-12.174 4.493-4.648 9.45-8.702 14.748-12.172-11.052-46.163-22.008-71.807-29.003-84.927z" fill="#ffc839"/><path d="m371.238 47.985c-9.94-11.102-21.517-19.762-33.424-26.519-6.995 13.121-17.951 38.764-29.003 84.928 5.299 3.471 10.256 7.524 14.748 12.172 3.225 3.337 5.219 7.621 5.777 12.174l.179.097c0-35.944 30.749-66.63 41.342-76.136 1.95-1.75 2.129-4.765.381-6.716z" fill="#ffdd40"/><path d="m201.901 107.276c6.333-4.31 13.179-7.757 20.338-10.348-4.668-42.539-14.852-73.486-20.384-87.89-6.65 2.283-13.189 4.984-19.567 8.134-3.144 1.553-6.283 3.237-9.398 5.045 6.96 13.098 17.973 38.84 29.011 85.059z" fill="#61a2f9"/><path d="m267.937 91.781c.447-20.58 1.916-59.195 6.738-90.735-12.408-1.395-24.94-1.395-37.348 0 4.822 31.542 6.29 70.155 6.737 90.735 7.92-.941 15.952-.941 23.873 0z" fill="#90d8f9"/><g fill="#61a2f9"><path d="m243.995 88.854h.001z"/><path d="m237.327 1.046c.523 3.422 1.005 6.931 1.452 10.488 14.818-8.914 35.895-10.488 35.895-10.488-12.407-1.395-24.94-1.395-37.347 0z"/></g><path d="m339.11 22.217c-3.115-1.808-6.254-3.492-9.398-5.045-6.378-3.15-12.917-5.851-19.567-8.134-5.533 14.407-15.717 45.354-20.385 87.891 7.16 2.591 14.006 6.038 20.339 10.348 11.038-46.22 22.051-71.962 29.011-85.06z" fill="#90d8f9"/><path d="m323.56 115.654c-35.473-36.698-99.664-36.68-135.12 0-3.93 4.066-6.067 9.529-5.956 15.182.947 47.806 10.433 55.854 16.421 76.581 6.308 21.835 33.804 43.185 33.804 43.185h46.581s27.496-21.35 33.804-43.185c5.988-20.728 15.474-28.775 16.421-76.581.113-5.653-2.026-11.116-5.955-15.182z" fill="#fcea9d"/><path d="m256.35 222.59-7.63-14.502 7.28-18.485-6.386-30.375c-4.5-2.333-2.795-7.383-2.795-7.383l-5.496-21.008c-9.213-27.02 2.201-41.402 2.652-41.956-20.739 2.483-40.665 11.391-55.534 26.774-3.929 4.066-6.067 9.529-5.956 15.182.947 47.806 10.433 55.854 16.421 76.581 6.308 21.835 33.804 43.185 33.804 43.185h23.64c-10.973-18.501 0-28.013 0-28.013z" fill="#ffdd40"/><g><path d="m268.298 152.553c-4.02 0-7.278-3.258-7.278-7.278v-8.04c0-3.77 2.879-6.916 6.634-7.25 14.214-1.262 28.432.755 41.117 5.839 3.732 1.495 5.544 5.732 4.049 9.464-1.495 3.73-5.734 5.543-9.463 4.049-8.508-3.409-17.879-5.161-27.44-5.161-.113 0-.227 0-.34.001v1.099c0 4.019-3.259 7.277-7.279 7.277z" fill="#ffc839"/></g><g><path d="m243.702 152.553c-4.02 0-7.278-3.258-7.278-7.278v-1.099c-.113-.001-.227-.001-.34-.001-9.562 0-18.931 1.751-27.44 5.161-3.732 1.493-7.968-.318-9.463-4.049s.318-7.968 4.049-9.464c12.685-5.083 26.903-7.098 41.117-5.839 3.755.334 6.634 3.48 6.634 7.25v8.04c-.001 4.021-3.259 7.279-7.279 7.279z" fill="#ffc839"/></g><path d="m268.038 189.068-4.799-29.098c-.202-.92-1.017-1.576-1.959-1.576-.353 0-11.257 0-10.561 0-.942 0-1.757.656-1.959 1.576l-4.798 29.098c-.272 1.24.526 2.462 1.771 2.711l4.19.838c4.012.802 8.142.802 12.154 0l4.19-.838c1.245-.248 2.043-1.47 1.771-2.711z" fill="#ffc839"/><g><path d="m238.275 223.362c-3.16 0-6.069-2.074-6.989-5.261-1.115-3.862 1.111-7.896 4.973-9.012l10.092-2.915c1.306-.377 2.691-.381 3.999-.011l7.63 2.157c3.868 1.093 6.117 5.116 5.024 8.983-1.094 3.868-5.118 6.118-8.984 5.024l-5.629-1.591-8.094 2.338c-.674.196-1.354.288-2.022.288z" fill="#ffc839"/></g><g><path d="m273.726 223.362c-.669 0-1.348-.093-2.023-.288l-8.095-2.338-5.627 1.591c-3.868 1.098-7.89-1.154-8.984-5.024-1.094-3.868 1.156-7.89 5.024-8.983l7.629-2.157c1.308-.37 2.694-.366 4 .011l10.093 2.915c3.862 1.115 6.089 5.15 4.973 9.012-.922 3.188-3.831 5.261-6.99 5.261z" fill="#ffc839"/></g></g></svg>