<svg id="Layer_1" enable-background="new 0 0 512 512" height="512" viewBox="0 0 512 512" width="512" xmlns="http://www.w3.org/2000/svg"><g><path d="m437.841 431.183c39.252-43.446 63.159-101.021 63.159-164.183 0-135.31-109.69-245-245-245s-245 109.69-245 245c0 63.163 23.908 120.738 63.16 164.184h363.681z" fill="#e80054"/><path d="m132.545 478.651c36.253 21.192 78.432 33.349 123.455 33.349s87.202-12.157 123.455-33.349z" fill="#f1e0c7"/><g><path d="m236.293 478.651h-103.748c30.463 17.807 65.111 29.232 102.114 32.428-13.781-5.94-12.916-27.737 1.634-32.428z" fill="#e8d0b1"/></g><path d="m87.197 0c-7.691 0-13.925 6.234-13.925 13.925v416.258c17.524 19.609 38.147 36.387 61.116 49.546h243.225c11.667-6.684 22.725-14.307 33.086-22.753v-456.879c-.768-.058-1.54-.097-2.322-.097z" fill="#ffc839"/><path d="m190.12 29.108c0-26.862 28.366-29.108 28.366-29.108h-131.289c-7.691 0-13.925 6.234-13.925 13.925v416.258c17.524 19.609 38.147 36.387 61.115 49.546h69.916c-16.6-2.7-14.183-29.109-14.183-29.109s0-394.649 0-421.512z" fill="#ffb332"/><path d="m409.62 457.844c10.442-8.416 20.179-17.669 29.108-27.661 0-125.67 0-369.284 0-399.832 0-16.346-12.923-29.667-29.108-30.319z" fill="#ffdd40"/><path d="m380.512 369.188v-256.144l-83.936-83.935h-112.684l-81.512 81.511v259.484l80.516 80.516h116.184z" fill="#38c674"/><path d="m190.12 29.109h-6.228l-81.512 81.511v259.484l80.516 80.516h7.224s0-394.648 0-421.511z" fill="#21b75d"/><path d="m190.12 29.108h-80.524c-3.986 0-7.216 3.231-7.216 7.216v80.524z" fill="#ffdd40"/><path d="m292.772 29.108h80.524c3.985 0 7.216 3.231 7.216 7.216v80.524z" fill="#fcea9d"/><path d="m190.12 450.62h-80.524c-3.986 0-7.216-3.231-7.216-7.216v-80.524z" fill="#ffdd40"/><path d="m292.772 450.62h80.524c3.985 0 7.216-3.231 7.216-7.216v-80.524z" fill="#fcea9d"/><path d="m321.999 281.41c-13.016 6.677-27.878 10.267-43.62 9.796-47.064-1.407-85.475-39.818-86.883-86.883-.471-15.741 3.118-30.603 9.796-43.62.795-1.55-1.023-3.105-2.46-2.12-24.251 16.605-39.985 44.734-39.265 76.507 1.085 47.865 40.179 86.961 88.044 88.044 31.774.72 59.902-15.014 76.507-39.265.985-1.435-.57-3.254-2.119-2.459z" fill="#ffdd40"/><path d="m317.044 192.49c.893-.871.4-2.388-.834-2.567l-22.32-3.243c-.491-.072-.915-.38-1.134-.824l-9.983-20.225c-.552-1.119-2.147-1.119-2.699 0l-9.983 20.226c-.219.444-.643.751-1.133.823l-22.32 3.243c-1.235.18-1.728 1.697-.835 2.568l16.151 15.743c.356.346.517.844.434 1.333l-3.813 22.23c-.211 1.23 1.08 2.167 2.184 1.587l19.964-10.496c.439-.231.963-.231 1.401 0l19.964 10.495c1.105.581 2.395-.357 2.184-1.586l-3.812-22.23c-.084-.489.078-.987.433-1.333z" fill="#ffdd40"/><g fill="#49d88b"><path d="m259.026 83.214h-35.159c-4.466 0-8.086-3.62-8.086-8.086s3.62-8.086 8.086-8.086h35.159c4.466 0 8.086 3.62 8.086 8.086s-3.621 8.086-8.086 8.086z"/><path d="m277.68 114.255h-72.469c-4.466 0-8.086-3.62-8.086-8.086s3.62-8.086 8.086-8.086h72.469c4.466 0 8.086 3.62 8.086 8.086s-3.62 8.086-8.086 8.086z"/><path d="m259.026 414.393h-35.159c-4.466 0-8.086-3.62-8.086-8.086s3.62-8.086 8.086-8.086h35.159c4.466 0 8.086 3.62 8.086 8.086s-3.621 8.086-8.086 8.086z"/><path d="m277.68 383.352h-72.469c-4.466 0-8.086-3.62-8.086-8.086s3.62-8.086 8.086-8.086h72.469c4.466 0 8.086 3.62 8.086 8.086s-3.62 8.086-8.086 8.086z"/></g><path d="m245.801 192.49 16.152 15.743c.356.346.517.844.434 1.333l-3.813 22.23c-.211 1.23 1.08 2.167 2.184 1.587l19.964-10.496c.439-.231.963-.231 1.401 0l19.964 10.495c1.105.581 2.395-.357 2.184-1.586l-3.812-22.23c-29.86 3.929-31.503-22.888-31.503-22.888l-22.32 3.244c-1.235.18-1.728 1.697-.835 2.568z" fill="#ffc839"/><path d="m191.497 204.324c-.471-15.741 3.118-30.603 9.796-43.619.795-1.55-1.023-3.105-2.46-2.12-24.251 16.605-39.985 44.734-39.265 76.507.587 25.907 12.323 49.229 30.544 65.361-.346-1.05-10.119-31.721 28.376-34.907.006 0 .011-.002.018-.002-16.053-15.72-26.296-37.351-27.009-61.22z" fill="#ffc839"/></g></svg>