<svg id="Layer_1" enable-background="new 0 0 512 512" height="512" viewBox="0 0 512 512" width="512" xmlns="http://www.w3.org/2000/svg"><g><path d="m456.141 408.342c28.347-40.066 44.963-89.011 44.859-141.827-.268-135.31-110.176-244.783-245.485-244.515s-244.783 110.175-244.515 245.485c.104 52.82 16.917 101.701 45.424 141.656z" fill="#38c674"/><path d="m256.485 512c83.366-.165 156.911-41.959 201.039-105.66-.181-2.313-.355-4.699-.517-7.185-3.088-47.294-23.363-85.693-70.615-89.462-6.023-.48-9.232-2.81-16.338-6.798-13.282-7.455-21.331-10.513-27.638-13.193-9.307-3.608-18.039-6.392-27.981-8.665-.291-.29-.557-.612-.834-.919-8.345-9.217-10.554-25.603-10.976-37.198-4.703 5.501-9.641 10.103-14.361 13.783-9.196 7.171-20.554 11.078-32.26 11.101-11.705.023-23.079-3.839-32.303-10.973-4.735-3.661-9.692-8.245-14.416-13.726-.376 11.596-2.52 27.992-10.829 37.241-.277.308-.541.631-.832.922-9.683 2.254-19.233 5.292-27.946 8.776-9.013 3.583-18.281 8.032-27.585 13.302-7.09 4.016-10.289 6.359-16.31 6.863-47.48 3.976-67.364 42.729-70.261 89.741-.147 2.399-.311 4.797-.485 7.194 44.378 63.521 118.085 105.02 201.448 104.856z" fill="#ce846a"/><path d="m406.207 460.545c-5.046-24.331-12.98-49.12-25.354-62.084-3.091-3.239-8.556-1.042-8.556 3.436v80.783c11.935-6.452 23.272-13.865 33.91-22.135z" fill="#c3785c"/><path d="m256.002 267.803c-11.705.023-23.079-3.839-32.303-10.973-4.735-3.661-9.692-8.245-14.416-13.726-.377 11.596-2.521 27.992-10.829 37.241-.276.308-.541.631-.832.922-9.683 2.254-19.232 5.292-27.946 8.776-9.013 3.583-18.281 8.032-27.585 13.302-7.089 4.016-10.289 6.359-16.311 6.863-47.48 3.976-67.364 42.729-70.261 89.741-.147 2.399-.311 4.797-.485 7.194 21.192 30.333 49.076 55.638 81.501 73.789-4.863-15.846-10.562-40.481-10.562-68.98 0-49.697 96.334-84.993 96.334-84.993 26.312-18.533 32.534-45.817 33.978-59.162-.094.001-.188.006-.283.006z" fill="#c3785c"/><g fill="#b76c4e"><path d="m381.207 477.624c.534-1.913.98-3.895 1.309-5.967.447-2.818-1.476-5.465-4.294-5.911-2.817-.446-5.465 1.477-5.911 4.294-1.024 6.462-3.29 11.837-6.795 16.171 5.344-2.676 10.578-5.54 15.691-8.587z"/><path d="m140.494 470.498c-.458-2.816-3.113-4.727-5.928-4.271-2.816.458-4.728 3.112-4.271 5.928.337 2.071.791 4.051 1.332 5.962 5.124 3.026 10.37 5.869 15.725 8.524-3.522-4.319-5.809-9.685-6.858-16.143z"/><path d="m326.935 499.762c-10.843.021-25.658-3.275-42.847-9.533-13.456-4.899-22.516-17.837-22.544-32.195l-.136-68.942 36.287-18.955c2.529-1.321 3.509-4.442 2.187-6.971-1.32-2.529-4.443-3.509-6.97-2.187l-36.688 19.164-36.763-19.019c-2.533-1.311-5.651-.32-6.962 2.215-1.311 2.534-.32 5.651 2.215 6.962l36.362 18.811.136 68.942c.029 14.358-8.98 27.332-22.417 32.284-17.163 6.326-31.965 9.681-42.809 9.702-2.204.004-4.312-.066-6.354-.188 9.363 3.07 18.975 5.591 28.797 7.524 7.314-1.717 15.3-4.16 23.939-7.344 10.561-3.892 19.015-11.593 24.051-21.193 5.074 9.58 13.558 17.248 24.135 21.098 8.651 3.15 16.647 5.56 23.968 7.249 9.815-1.972 19.416-4.531 28.767-7.638-2.042.131-4.15.21-6.354.214z"/><path d="m338.783 484.386c2.945-.618 4.993-3.156 4.987-6.112-.006-2.888-2.023-5.468-5.011-6.083-3.677-.752-7.432 2.048-7.424 6.107.007 3.747 3.374 6.843 7.448 6.088z"/><path d="m176.514 484.707c2.945-.618 4.993-3.156 4.987-6.112-.006-2.888-2.023-5.468-5.011-6.083-3.677-.752-7.432 2.048-7.424 6.107.007 3.747 3.374 6.843 7.448 6.088z"/></g><path d="m360.462 69.74c0-9.361-6.693-17.211-15.604-18.91-2.512-.479-4.178-2.842-3.835-5.377.181-1.332.224-2.707.114-4.113-.753-9.62-8.789-17.344-18.432-17.722-2.611-.102-5.11.316-7.405 1.16-2.652.974-5.521-.638-6.229-3.373-2.149-8.311-9.726-14.411-18.65-14.411-4.143 0-7.974 1.312-11.111 3.541-2.314 1.644-5.462.968-6.962-1.442-3.397-5.459-9.444-9.093-16.348-9.093s-12.951 3.634-16.349 9.093c-1.5 2.41-4.648 3.085-6.962 1.441-3.137-2.228-6.968-3.541-11.111-3.541-8.934 0-16.501 6.108-18.649 14.41-.708 2.735-3.577 4.349-6.229 3.374-2.295-.843-4.795-1.262-7.406-1.16-9.642.378-17.679 8.102-18.432 17.722-.11 1.406-.066 2.781.114 4.113.344 2.534-1.322 4.897-3.835 5.377-8.913 1.699-15.604 9.552-15.604 18.911 0 5.614 2.405 10.661 6.238 14.18 1.682 1.544 1.981 4.14.718 6.042-2.02 3.041-3.201 6.685-3.201 10.611 0 7.407 4.182 13.832 10.312 17.054 2.28 1.199 3.217 3.902 2.202 6.27-1.153 2.69-1.711 5.695-1.503 8.854.671 10.202 9.484 17.968 19.708 17.968h139.976c10.224 0 19.037-7.766 19.708-17.968.208-3.158-.35-6.163-1.503-8.854-1.015-2.368-.078-5.072 2.202-6.27 6.13-3.222 10.312-9.648 10.312-17.054 0-3.926-1.181-7.57-3.201-10.611-1.264-1.902-.964-4.498.718-6.042 3.834-3.519 6.239-8.566 6.239-14.18z" fill="#2d3c6b"/><g><path d="m264.777 141.677c-1.011-2.999-1.243-6.047-.819-8.943.373-2.549-1.226-4.922-3.737-5.495-6.751-1.541-12.442-6.679-14.342-13.838-1.007-3.794-.801-7.619.372-11.077.733-2.162-.222-4.595-2.244-5.656-4.608-2.417-8.228-6.679-9.668-12.104-2.401-9.045 2.05-18.352 10.229-22.281 2.305-1.108 3.309-3.819 2.327-6.18-.517-1.241-.911-2.559-1.165-3.945-1.741-9.491 4.045-19.019 13.267-21.858 2.497-.769 5.021-1.006 7.456-.779 2.813.261 5.172-2.034 5.154-4.86-.031-4.985 1.907-9.714 5.224-13.258-1.736.116-3.477-.698-4.48-2.31-3.4-5.459-9.447-9.093-16.351-9.093-6.903 0-12.951 3.634-16.349 9.093-1.5 2.41-4.648 3.085-6.962 1.441-3.138-2.228-6.969-3.541-11.111-3.541-8.934 0-16.501 6.108-18.649 14.41-.708 2.735-3.577 4.349-6.229 3.374-2.295-.843-4.795-1.262-7.406-1.16-9.642.378-17.679 8.102-18.431 17.722-.11 1.405-.066 2.781.114 4.113.344 2.534-1.322 4.897-3.835 5.377-8.913 1.699-15.604 9.552-15.604 18.911 0 5.614 2.405 10.661 6.238 14.18 1.682 1.544 1.982 4.14.718 6.042-2.021 3.041-3.201 6.685-3.201 10.611 0 7.407 4.182 13.832 10.312 17.054 2.28 1.198 3.217 3.902 2.202 6.27-1.153 2.69-1.71 5.695-1.503 8.854.671 10.202 9.484 17.968 19.708 17.968h85.363c-2.978-2.22-5.334-5.293-6.598-9.042z" fill="#1e2f59"/></g><path d="m344.315 140.448c-3.651-3.346-10.923-1.65-14.067.399.689 4.289.728 8.678.133 13.011l-3.711 27.024c0 2.178-.069 4.316-.195 6.416 9.048 2.729 13.542-5.394 14.299-10.968.326-2.4.859-4.765 1.598-7.072 2.408-7.518 11.09-20.428 1.943-28.81z" fill="#ce846a"/><path d="m338.059 163.197c-3.213 0-6.171-1.062-8.57-2.837l-2.818 20.522c0 2.178-.069 4.316-.195 6.416 9.048 2.729 13.542-5.393 14.299-10.968.326-2.4.859-4.765 1.598-7.072.748-2.335 2.101-5.191 3.337-8.27-2.22 1.392-4.838 2.209-7.651 2.209z" fill="#c3785c"/><path d="m167.686 140.448c3.651-3.346 10.923-1.65 14.067.399-.689 4.289-.728 8.678-.133 13.011l3.71 27.024c0 2.178.069 4.316.195 6.416-9.048 2.729-13.542-5.394-14.299-10.968-.326-2.4-.859-4.765-1.598-7.072-2.406-7.518-11.088-20.428-1.942-28.81z" fill="#ce846a"/><path d="m182.593 160.939c-2.237 1.423-4.884 2.258-7.731 2.258-3.371 0-6.464-1.164-8.921-3.1 1.323 3.417 2.869 6.601 3.689 9.16.739 2.308 1.272 4.673 1.598 7.072.757 5.574 5.252 13.697 14.299 10.968-.126-2.1-.195-4.237-.195-6.416z" fill="#c3785c"/><path d="m324.801 126.031c-2.247-3.525-3.235-7.694-2.934-11.852.534-7.363.562-19.061-3.161-28.611-2.757-7.074-11.248-9.589-17.732-5.639-2.957 1.802-6.427 2.838-10.127 2.838-4.194 0-8.072-1.328-11.248-3.584-2.343-1.664-5.53-.98-7.049 1.459-3.44 5.526-9.562 9.205-16.551 9.205s-13.112-3.679-16.551-9.205c-1.519-2.44-4.706-3.124-7.049-1.459-3.176 2.256-7.054 3.584-11.248 3.584-3.703 0-7.173-1.037-10.13-2.84-6.486-3.954-14.973-1.429-17.73 5.649-3.736 9.593-3.69 21.349-3.15 28.704.303 4.125-.712 8.252-2.942 11.75-1.285 2.016-2.313 4.15-3.135 6.262-2.667 6.852-3.445 14.282-2.445 21.558l3.711 27.03c0 38.859 20.743 65.272 38.388 78.974 9.21 7.152 20.576 11.037 32.282 11.037s23.072-3.885 32.282-11.037c17.645-13.702 38.388-40.115 38.388-78.974l3.682-26.814c.97-7.065.336-14.292-2.119-20.988-.868-2.365-1.987-4.78-3.432-7.047z" fill="#dd9883"/><g><path d="m256.702 259.856c-17.645-13.702-38.388-40.115-38.388-78.974l-3.711-27.03c-.999-7.276-.222-14.707 2.445-21.558.822-2.112 1.85-4.246 3.135-6.262 2.23-3.498 3.245-7.625 2.942-11.75-.54-7.355-.586-19.111 3.15-28.704.778-1.998 2.023-3.618 3.54-4.847-2.608 1.302-5.548 2.037-8.663 2.037-3.704 0-7.173-1.038-10.13-2.84-6.485-3.954-14.973-1.429-17.73 5.649-3.736 9.593-3.69 21.349-3.15 28.704.303 4.125-.712 8.252-2.942 11.75-1.285 2.016-2.313 4.15-3.135 6.262-2.667 6.852-3.444 14.283-2.445 21.558l3.711 27.03c0 38.859 20.744 65.272 38.388 78.974 9.21 7.152 20.576 11.037 32.282 11.037 5.645 0 11.208-.912 16.492-2.65-5.673-1.865-11.023-4.683-15.791-8.386z" fill="#ce846a"/></g><path d="m326.06 187.01-25.444-9.018c-1.995-.707-4.186.337-4.893 2.332l-3.28 9.255c-.707 1.995.337 4.186 2.332 4.893l27.896 9.887c1.221.433 2.562-.291 2.838-1.556.942-4.323 1.625-8.85 1.997-13.581.076-.976-.524-1.885-1.446-2.212z" fill="#f9efdc"/><path d="m319.59 215.127-28.549-10.119c-1.995-.707-4.186.337-4.893 2.332l-3.28 9.254c-.707 1.995.337 4.186 2.332 4.893l27.231 9.652c.987.35 2.092-.047 2.608-.958 2.16-3.81 4.135-7.887 5.854-12.228.449-1.134-.153-2.418-1.303-2.826z" fill="#f9efdc"/><path d="m189.331 204.357 27.894-9.887c1.995-.707 3.039-2.898 2.332-4.893l-3.28-9.255c-.707-1.995-2.898-3.039-4.893-2.332l-25.442 9.018c-.922.327-1.522 1.236-1.445 2.212.372 4.731 1.054 9.258 1.997 13.581.276 1.266 1.616 1.989 2.837 1.556z" fill="#f9efdc"/><path d="m199.572 231.139 27.229-9.651c1.995-.707 3.039-2.898 2.332-4.893l-3.28-9.255c-.707-1.995-2.898-3.039-4.893-2.332l-28.548 10.119c-1.15.408-1.752 1.692-1.303 2.827 1.719 4.341 3.694 8.417 5.854 12.227.517.91 1.622 1.307 2.609.958z" fill="#f9efdc"/><g><path d="m255.993 343.032c-34.496 0-62.561-28.509-62.561-63.551 0-2.762 2.238-5 5-5s5 2.238 5 5c0 29.528 23.578 53.551 52.561 53.551s52.562-24.022 52.562-53.551c0-2.762 2.238-5 5-5s5 2.238 5 5c0 35.042-28.065 63.551-62.562 63.551z" fill="#503b27"/></g><path d="m270.939 406.984c-7.996-13.105-5.375-30.659-2.967-40.324.904-3.627-1.838-7.131-5.576-7.131h-16.072c-3.315 0-5.959 2.805-5.742 6.113 1.763 26.892 15.095 39.789 25.855 45.861 2.948 1.665 6.265-1.628 4.502-4.519z" fill="#f9efdc"/><g><path d="m257.694 377.361c3.09 0 5.876 1.114 8.044 2.924.389-5.221 1.326-9.983 2.233-13.625.904-3.627-1.838-7.131-5.577-7.131h-16.072c-3.315 0-5.959 2.805-5.742 6.113.564 8.603 2.316 15.767 4.785 21.741 1.179-5.629 6.164-10.022 12.329-10.022z" fill="#e8d0b1"/></g><path d="m268.769 354.284h-29.006c-3.473 0-6.314 2.841-6.314 6.314s2.841 6.314 6.314 6.314h29.006c3.473 0 6.314-2.841 6.314-6.314s-2.841-6.314-6.314-6.314z" fill="#e8d0b1"/><g><path d="m260.58 355.449v-22.176c0-3.473-2.841-6.314-6.313-6.314s-6.313 2.841-6.313 6.314v22.176z" fill="#ffc839"/></g><g><path d="m345.259 195.774v-15.583c0-3.23-2.302-6.14-5.507-6.543-3.828-.482-7.12 2.525-7.12 6.263v15.863c0 3.487 2.827 6.314 6.313 6.314 3.487 0 6.314-2.827 6.314-6.314z" fill="#ffc839"/></g><g><path d="m179.926 195.774v-15.583c0-3.23-2.302-6.14-5.507-6.543-3.828-.482-7.12 2.525-7.12 6.263v15.863c0 3.487 2.827 6.314 6.313 6.314 3.487 0 6.314-2.827 6.314-6.314z" fill="#ffc839"/></g><path d="m391.445 62.827c1.167 24.995-.533 66.726-19.147 104.822-28.991 59.333-19.766 97.153 16.955 103.243 30.286 5.023 72.813 11.417 98.181 76.684 8.838-25.383 13.623-52.661 13.567-81.061-.17-85.055-43.667-159.89-109.556-203.688z" fill="#49d88b"/><path d="m120.555 62.827c-1.168 24.995.533 66.726 19.147 104.822 28.991 59.333 19.766 97.153-16.955 103.243-30.286 5.023-72.813 11.417-98.181 76.684-8.837-25.383-13.622-52.661-13.566-81.061.169-85.055 43.666-159.89 109.555-203.688z" fill="#49d88b"/></g></svg>