<svg id="Layer_1" enable-background="new 0 0 512 512" height="512" viewBox="0 0 512 512" width="512" xmlns="http://www.w3.org/2000/svg"><g><path d="m366.883 26.478-15.232-7.1c-29.389-12.474-61.713-19.378-95.651-19.378-31.176 0-60.985 5.835-88.412 16.453l-16.354 7.029c-82.896 39.275-140.234 123.695-140.234 221.518 0 135.31 109.69 245 245 245s245-109.69 245-245c0-95.4-54.53-178.057-134.117-218.522z" fill="#38c674"/><path d="m256 98.493c-109.545 0-198.349 88.804-198.349 198.349 0 74.822 41.435 139.958 102.605 173.739 29.413 12.5 61.77 19.419 95.744 19.419s66.331-6.919 95.743-19.419c61.17-33.781 102.605-98.917 102.605-173.739.001-109.545-88.803-198.349-198.348-198.349z" fill="#49d88b"/><g><path d="m159.411 512c-4.516 0-8.177-3.66-8.177-8.177v-20.045c0-4.517 3.661-8.177 8.177-8.177s8.177 3.66 8.177 8.177v20.045c0 4.517-3.661 8.177-8.177 8.177z" fill="#ffdd40"/></g><path d="m167.328 471.428c-4.942 2.656-10.893 2.656-15.835 0-1.929-1.036-4.207-2.059-6.801-2.927v15.923c0 8.129 6.59 14.718 14.719 14.718s14.719-6.589 14.719-14.718v-15.923c-2.594.869-4.873 1.891-6.802 2.927z" fill="#ffc839"/><path d="m161.026 490.358c0-5.382 5.74-8.906 10.486-6.366l.09.048c.812.437 1.645.817 2.489 1.161.013-.259.039-.515.039-.777v-15.923c-2.594.868-4.872 1.89-6.801 2.927-4.942 2.656-10.893 2.656-15.835 0-1.929-1.036-4.208-2.059-6.801-2.927v15.923c0 8.129 6.59 14.719 14.718 14.719.546 0 1.084-.035 1.615-.093z" fill="#ffb332"/><path d="m188.666 473.659c-9.19 0-16.383 2.603-21.338 5.265-4.942 2.656-10.893 2.656-15.835 0-4.954-2.662-12.148-5.265-21.338-5.265-18.807 0-24.894-25.076-24.894-25.076h54.15 54.149s-6.087 25.076-24.894 25.076z" fill="#b76c4e"/><path d="m130.155 473.659c6.524 0 12.036 1.314 16.461 3.028-14.312-7.618-12.645-27.013-12.645-27.013l-.326-1.09h-28.384c0-.001 6.087 25.075 24.894 25.075z" fill="#a05838"/><g><path d="m171.114 138.741c-2.508 0-4.982-1.149-6.586-3.322-2.681-3.634-1.91-8.753 1.724-11.435 2.995-2.209 4.712-5.59 4.712-9.274 0-6.371-5.183-11.554-11.554-11.554s-11.554 5.183-11.554 11.554c0 3.684 1.717 7.064 4.712 9.274 3.634 2.682 4.406 7.801 1.724 11.435-2.682 3.635-7.802 4.404-11.435 1.725-7.111-5.248-11.356-13.634-11.356-22.433 0-15.388 12.519-27.908 27.908-27.908s27.908 12.52 27.908 27.908c0 8.8-4.245 17.185-11.356 22.433-1.459 1.077-3.161 1.597-4.847 1.597z" fill="#ffc839"/></g><path d="m151.234 23.482v79.85c0 4.516 3.661 8.177 8.177 8.177s8.177-3.661 8.177-8.177v-86.879c-5.552 2.149-11.006 4.495-16.354 7.029z" fill="#e9efff"/><path d="m149.43 159.066c.724-.34 1.415-.687 2.063-1.035 4.942-2.656 10.893-2.656 15.835 0 .648.348 1.339.694 2.063 1.035 5.827-3.429 9.75-9.749 9.75-17 0-10.897-8.834-19.731-19.731-19.731s-19.731 8.834-19.731 19.731c.001 7.251 3.924 13.571 9.751 17z" fill="#ffdd40"/><path d="m188.666 162.206c-9.19 0-16.383-2.603-21.338-5.265-4.942-2.656-10.893-2.656-15.835 0-4.954 2.662-12.148 5.265-21.338 5.265-18.807 0-24.894 25.076-24.894 25.076h54.15 54.149c0 .001-6.087-25.076-24.894-25.076z" fill="#b76c4e"/><g><path d="m133.971 186.192s1.895-19.889 13.313-27.275c-4.533 1.84-10.275 3.289-17.128 3.289-18.807 0-24.894 25.076-24.894 25.076h28.401z" fill="#a05838"/></g><path d="m82.366 238.707h77.606v158.451h-77.606z" fill="#ffb332"/><path d="m142.678 240.887 1.648-2.181h-61.961v158.451h60.313c-21.75-3.646-21.51-21.854-21.51-21.854s0-84.75 0-109.25 21.51-25.166 21.51-25.166z" fill="#ff9100"/><path d="m159.411 238.707h77.045v158.451h-77.045z" fill="#ffc839"/><path d="m201.05 275.837c-1.956-.985-4.278-.985-6.234 0-20.997 10.583-35.406 32.326-35.406 57.444v63.877h77.045v-63.877c.001-25.118-14.407-46.861-35.405-57.444z" fill="#ffdd40"/><path d="m124.005 275.837c-1.956-.985-4.278-.985-6.234 0-20.997 10.583-35.406 32.326-35.406 57.444v63.877h77.045v-63.877c.001-25.118-14.408-46.861-35.405-57.444z" fill="#ffc839"/><path d="m121.169 375.305s0-68.583 0-100.19c-1.163-.047-2.334.187-3.398.723-20.997 10.583-35.406 32.326-35.406 57.444v63.877h60.313c-21.75-3.647-21.509-21.854-21.509-21.854z" fill="#ffb332"/><g><path d="m236.456 213.631v-14.355c0-7.196-5.887-13.083-13.083-13.083h-127.924c-7.196 0-13.083 5.887-13.083 13.083v14.355z" fill="#a05838"/></g><path d="m133.971 186.192h-38.522c-7.196 0-13.083 5.887-13.083 13.083v14.355h38.523v-14.355c-.001-7.196 5.887-13.083 13.082-13.083z" fill="#90482d"/><g><path d="m236.456 422.234v14.355c0 7.196-5.887 13.083-13.083 13.083h-127.924c-7.196 0-13.083-5.887-13.083-13.083v-14.355z" fill="#a05838"/></g><path d="m120.888 436.59v-14.355h-38.523v14.355c0 7.196 5.888 13.083 13.083 13.083h38.522c-7.194 0-13.082-5.887-13.082-13.083z" fill="#90482d"/><g><path d="m242.18 240.887h-165.538c-8.129 0-14.719-6.59-14.719-14.719s6.59-14.719 14.719-14.719h165.538c8.129 0 14.719 6.589 14.719 14.719s-6.59 14.719-14.719 14.719z" fill="#b76c4e"/></g><g><path d="m242.18 394.978h-165.538c-8.129 0-14.719 6.589-14.719 14.718s6.59 14.719 14.719 14.719h165.538c8.129 0 14.719-6.589 14.719-14.719 0-8.129-6.59-14.718-14.719-14.718z" fill="#b76c4e"/></g><path d="m100.446 226.169c0-8.129 6.59-14.719 14.719-14.719h-38.523c-8.129 0-14.719 6.589-14.719 14.719 0 8.129 6.59 14.719 14.719 14.719h38.522c-8.129-.001-14.718-6.59-14.718-14.719z" fill="#a05838"/><path d="m100.446 409.696c0-8.129 6.59-14.718 14.719-14.718h-38.523c-8.129 0-14.719 6.589-14.719 14.718s6.59 14.719 14.719 14.719h38.522c-8.129 0-14.718-6.59-14.718-14.719z" fill="#a05838"/><g><path d="m370.168 91.097c-2.336 0-4.641-1.07-6.135-3.094-2.498-3.385-1.779-8.153 1.606-10.652 2.789-2.058 4.39-5.207 4.39-8.638 0-5.935-4.828-10.763-10.763-10.763-5.934 0-10.762 4.828-10.762 10.763 0 3.432 1.6 6.58 4.389 8.638 3.385 2.498 4.104 7.267 1.606 10.652-2.498 3.386-7.268 4.102-10.651 1.607-6.624-4.888-10.578-12.7-10.578-20.897 0-14.334 11.662-25.997 25.996-25.997 14.335 0 25.997 11.662 25.997 25.997 0 8.197-3.954 16.008-10.578 20.897-1.361 1.003-2.946 1.487-4.517 1.487z" fill="#ffc839"/></g><path d="m351.65 19.378v38.736c0 4.207 3.41 7.617 7.617 7.617s7.617-3.41 7.617-7.617v-31.636c-4.983-2.533-10.062-4.905-15.234-7.1z" fill="#e9efff"/><circle cx="164.928" cy="135.805" fill="#fcea9d" r="7.25"/><g><path d="m359.266 438.79c-4.207 0-7.617-3.41-7.617-7.617v-18.672c0-4.207 3.41-7.617 7.617-7.617s7.617 3.41 7.617 7.617v18.672c0 4.207-3.41 7.617-7.617 7.617z" fill="#ffdd40"/></g><path d="m366.641 400.997c-4.604 2.474-10.147 2.474-14.75 0-1.797-.965-3.919-1.918-6.335-2.727v14.833c0 7.572 6.138 13.71 13.71 13.71s13.71-6.138 13.71-13.71v-14.833c-2.416.81-4.538 1.762-6.335 2.727z" fill="#ffc839"/><path d="m360.77 418.631c0-5.014 5.347-8.296 9.767-5.93.028.015.056.03.084.045.757.407 1.533.761 2.319 1.081.012-.241.036-.479.036-.724v-14.832c-2.416.809-4.538 1.761-6.335 2.727-4.604 2.474-10.147 2.474-14.75 0-1.797-.965-3.919-1.918-6.335-2.727v14.832c0 7.572 6.138 13.71 13.71 13.71.509 0 1.01-.032 1.504-.086z" fill="#ffb332"/><path d="m386.517 403.075c-8.56 0-15.261 2.425-19.876 4.905-4.604 2.474-10.147 2.474-14.75 0-4.615-2.48-11.316-4.905-19.876-4.905-17.519 0-23.189-23.358-23.189-23.358h50.441 50.441c-.002 0-5.672 23.358-23.191 23.358z" fill="#b76c4e"/><path d="m332.014 403.075c6.077 0 11.211 1.224 15.333 2.82-13.332-7.096-11.779-25.163-11.779-25.163l-.303-1.015h-26.44s5.67 23.358 23.189 23.358z" fill="#a05838"/><path d="m349.969 110.03c.674-.317 1.318-.64 1.922-.964 4.604-2.474 10.147-2.474 14.75 0 .604.324 1.247.647 1.922.964 5.428-3.195 9.082-9.081 9.082-15.835 0-10.151-8.229-18.379-18.379-18.379s-18.38 8.229-18.38 18.379c0 6.754 3.654 12.641 9.083 15.835z" fill="#ffdd40"/><path d="m386.517 112.955c-8.56 0-15.261-2.425-19.876-4.905-4.604-2.474-10.147-2.474-14.75 0-4.615 2.48-11.316 4.905-19.876 4.905-17.519 0-23.189 23.358-23.189 23.358h50.441 50.441c-.002.001-5.672-23.358-23.191-23.358z" fill="#b76c4e"/><g><path d="m335.569 135.298s1.765-18.527 12.401-25.407c-4.222 1.715-9.571 3.064-15.955 3.064-17.519 0-23.189 23.359-23.189 23.359h26.456z" fill="#a05838"/></g><path d="m287.498 184.216h72.291v147.598h-72.291z" fill="#ffb332"/><path d="m343.679 186.247 1.535-2.031h-57.717v147.598h56.182c-20.26-3.397-20.036-20.357-20.036-20.357s0-78.945 0-101.767 20.036-23.443 20.036-23.443z" fill="#ff9100"/><path d="m359.266 184.216h71.768v147.598h-71.768z" fill="#ffc839"/><path d="m398.054 218.803c-1.822-.918-3.985-.918-5.807 0-19.559 9.858-32.981 30.112-32.981 53.51v59.502h71.768v-59.502c0-23.398-13.421-43.652-32.98-53.51z" fill="#ffdd40"/><path d="m326.285 218.803c-1.822-.918-3.985-.918-5.807 0-19.559 9.858-32.98 30.112-32.98 53.51v59.502h71.768v-59.502c0-23.398-13.422-43.652-32.981-53.51z" fill="#ffc839"/><path d="m323.643 311.457s0-63.885 0-93.328c-1.083-.044-2.174.174-3.165.673-19.559 9.858-32.98 30.112-32.98 53.51v59.501h56.182c-20.261-3.395-20.037-20.356-20.037-20.356z" fill="#ffb332"/><g><path d="m431.034 160.857v-13.372c0-6.703-5.484-12.187-12.187-12.187h-119.162c-6.703 0-12.187 5.484-12.187 12.187v13.372z" fill="#a05838"/></g><path d="m335.569 135.298h-35.884c-6.703 0-12.187 5.484-12.187 12.187v13.372h35.884v-13.372c0-6.703 5.484-12.187 12.187-12.187z" fill="#90482d"/><g><path d="m431.034 355.173v13.372c0 6.703-5.484 12.187-12.187 12.187h-119.162c-6.703 0-12.187-5.484-12.187-12.187v-13.372z" fill="#a05838"/></g><path d="m323.382 368.545v-13.372h-35.884v13.372c0 6.703 5.484 12.187 12.187 12.187h35.884c-6.703 0-12.187-5.484-12.187-12.187z" fill="#90482d"/><g><path d="m436.366 186.247h-154.2c-7.572 0-13.71-6.138-13.71-13.71s6.138-13.71 13.71-13.71h154.2c7.572 0 13.71 6.138 13.71 13.71s-6.138 13.71-13.71 13.71z" fill="#b76c4e"/></g><g><path d="m436.366 329.783h-154.2c-7.572 0-13.71 6.138-13.71 13.71s6.138 13.71 13.71 13.71h154.2c7.572 0 13.71-6.138 13.71-13.71s-6.138-13.71-13.71-13.71z" fill="#b76c4e"/></g><path d="m304.34 172.537c0-7.572 6.138-13.71 13.711-13.71h-35.884c-7.572 0-13.711 6.138-13.711 13.71s6.138 13.71 13.711 13.71h35.884c-7.573 0-13.711-6.138-13.711-13.71z" fill="#a05838"/><path d="m304.34 343.494c0-7.572 6.138-13.71 13.711-13.71h-35.884c-7.572 0-13.711 6.138-13.711 13.71s6.138 13.71 13.711 13.71h35.884c-7.573 0-13.711-6.138-13.711-13.71z" fill="#a05838"/><path d="m371.159 88.362c0 3.73-3.024 6.753-6.753 6.753-3.73 0-6.753-3.024-6.753-6.753 0-3.73 3.024-6.754 6.753-6.754s6.753 3.024 6.753 6.754z" fill="#fcea9d"/></g></svg>