<svg id="Layer_1" enable-background="new 0 0 512 512" height="512" viewBox="0 0 512 512" width="512" xmlns="http://www.w3.org/2000/svg"><g><path d="m437.841 431.183c39.252-43.446 63.159-101.021 63.159-164.183 0-135.31-109.69-245-245-245s-245 109.69-245 245c0 63.163 23.907 120.737 63.16 164.184h363.681z" fill="#ffdd40"/><path d="m132.545 478.651c36.253 21.192 78.432 33.349 123.455 33.349s87.202-12.157 123.455-33.349z" fill="#f1e0c7"/><path d="m234.525 486.747c.601-3.588-1.6-6.976-5.112-7.929-.185-.05-.355-.114-.535-.168h-96.333c34.453 20.14 74.26 32.111 116.772 33.251-14.744-7.463-15.96-18.175-14.792-25.154z" fill="#e8d0b1"/><path d="m134.387 479.729h243.225c22.968-13.159 43.592-29.937 61.116-49.546v-416.258c0-7.69-6.235-13.925-13.926-13.925h-321.179c-.782 0-1.554.039-2.321.097v456.879c10.36 8.447 21.419 16.069 33.085 22.753z" fill="#934a2e"/><path d="m213.653 29.109c0-25.196 20-29.109 20-29.109h-130.03c-.782 0-1.554.039-2.321.097v456.879c10.361 8.447 21.419 16.069 33.086 22.753h97.052c-.609-.396-1.286-.71-2.026-.911-18.166-4.929-15.761-28.199-15.761-28.199s0-396.314 0-421.51z" fill="#7f3822"/><path d="m73.272 30.351v399.832c8.93 9.992 18.666 19.245 29.108 27.661v-457.812c-16.185.652-29.108 13.974-29.108 30.319z" fill="#a05838"/><path d="m402.404 29.109h-263.7c-3.986 0-7.216 3.231-7.216 7.216v407.08c0 3.985 3.23 7.216 7.216 7.216h263.7c3.985 0 7.216-3.23 7.216-7.216v-407.08c0-3.986-3.231-7.216-7.216-7.216z" fill="#b76c4e"/><path d="m131.488 36.325v407.08c0 3.985 3.23 7.216 7.216 7.216h74.949c0-.005 0-396.316 0-421.511h-74.949c-3.986-.001-7.216 3.229-7.216 7.215z" fill="#a05838"/><path d="m376.583 58.217h-212.058c-2.169 0-3.928 1.759-3.928 3.928v355.438c0 2.169 1.759 3.928 3.928 3.928h212.059c2.169 0 3.928-1.759 3.928-3.928v-355.437c-.001-2.17-1.76-3.929-3.929-3.929z" fill="#a05838"/><path d="m164.524 58.217c-2.169 0-3.928 1.759-3.928 3.928v355.438c0 2.169 1.759 3.928 3.928 3.928h49.128c0-76.908 0-284.985 0-363.294z" fill="#934a2e"/><path d="m344.286 165.228h-50.422c-3.853 0-6.977-3.124-6.977-6.977v-51.5c0-3.853-3.124-6.977-6.977-6.977h-18.714c-3.853 0-6.977 3.124-6.977 6.977v51.5c0 3.853-3.124 6.977-6.977 6.977h-50.422c-3.853 0-6.977 3.123-6.977 6.977v18.715c0 3.853 3.124 6.977 6.977 6.977h50.422c3.853 0 6.977 3.124 6.977 6.977v135.035c0 3.853 3.124 6.977 6.977 6.977h18.714c3.853 0 6.977-3.123 6.977-6.977v-135.037c0-3.853 3.124-6.977 6.977-6.977h50.422c3.853 0 6.977-3.124 6.977-6.977v-18.715c0-3.852-3.124-6.975-6.977-6.975z" fill="#f1e0c7"/><g><path d="m295.17 392.41h-50.311c-4.466 0-8.086-3.62-8.086-8.086s3.62-8.086 8.086-8.086h50.311c4.466 0 8.086 3.62 8.086 8.086s-3.62 8.086-8.086 8.086z" fill="#b76c4e"/></g><path d="m286.888 339.907v-135.035c0-1.939.793-3.693 2.07-4.957-33.945-2.64-36.626-36.902-36.626-36.902-1.273 1.36-3.079 2.215-5.089 2.215h-50.422c-3.853 0-6.977 3.124-6.977 6.977v18.715c0 3.853 3.124 6.976 6.977 6.976h50.422c3.853 0 6.977 3.124 6.977 6.977v135.035c0 3.853 3.124 6.977 6.977 6.977h18.714c3.853-.001 6.977-3.125 6.977-6.978z" fill="#e8d0b1"/></g></svg>