<svg id="Layer_1" enable-background="new 0 0 512 512" height="512" viewBox="0 0 512 512" width="512" xmlns="http://www.w3.org/2000/svg"><g><path d="m500.77 234.719-93.282-182.28c-41.689-32.842-94.299-52.439-151.488-52.439-28.947 0-56.714 5.035-82.492 14.251l-16.452 6.568c-86.021 38.022-146.056 124.084-146.056 224.181 0 135.31 109.69 245 245 245s245-109.69 245-245c0-3.446-.09-6.87-.23-10.281z" fill="#2d3c6b"/><g><path d="m414.96 314.51c-11.694 0-21.208-9.514-21.208-21.208 0-4.237 1.249-8.332 3.612-11.84 2.113-3.139 6.37-3.967 9.508-1.855 3.138 2.114 3.968 6.37 1.855 9.508-.834 1.239-1.275 2.686-1.275 4.188 0 4.14 3.368 7.508 7.508 7.508s7.509-3.368 7.509-7.508c0-1.501-.441-2.949-1.275-4.188-2.113-3.138-1.283-7.394 1.855-9.508 3.138-2.112 7.394-1.282 9.508 1.855 2.363 3.507 3.611 7.602 3.611 11.84 0 11.694-9.513 21.208-21.208 21.208z" fill="#ffb332"/></g><g><path d="m414.96 335.285c-3.783 0-6.85-3.066-6.85-6.85v-23.442c0-3.783 3.067-6.85 6.85-6.85s6.85 3.066 6.85 6.85v23.442c0 3.784-3.067 6.85-6.85 6.85z" fill="#ffdd40"/></g><path d="m430.818 380.571-7.135-48.222c-.333-2.248-2.262-3.913-4.534-3.913h-8.377c-2.273 0-4.202 1.665-4.534 3.913l-7.135 48.222c-.227 1.531.96 2.906 2.507 2.906h26.701c1.547-.001 2.733-1.375 2.507-2.906z" fill="#ff4155"/><path d="m430.818 380.571-4.123-27.865c-2.496 3.789-6.775 6.344-11.735 6.344-4.96 0-9.239-2.555-11.734-6.344l-4.123 27.865c-.227 1.531.96 2.906 2.507 2.906h26.7c1.548-.001 2.734-1.376 2.508-2.906z" fill="#e80054"/><path d="m439.924 260.786v16.542c0 6.028-4.932 10.96-10.96 10.96h-28.008c-6.028 0-10.96-4.932-10.96-10.96v-16.542z" fill="#38c674"/><path d="m410.954 277.328v-16.542h-20.957v16.542c0 6.028 4.932 10.96 10.96 10.96h20.957c-6.029 0-10.96-4.932-10.96-10.96z" fill="#21b75d"/><g><path d="m165.282 429.181c-14.043 0-25.468-11.425-25.468-25.468 0-5.089 1.5-10.006 4.337-14.218 2.538-3.769 7.649-4.764 11.418-2.228 3.768 2.538 4.765 7.65 2.227 11.417-1.001 1.488-1.531 3.226-1.531 5.029 0 4.972 4.045 9.016 9.017 9.016s9.017-4.044 9.017-9.016c0-1.803-.529-3.542-1.531-5.029-2.538-3.768-1.541-8.879 2.227-11.417 3.768-2.536 8.879-1.539 11.418 2.228 2.837 4.211 4.337 9.129 4.337 14.218 0 14.044-11.425 25.468-25.468 25.468z" fill="#ffb332"/></g><g><path d="m165.282 454.13c-4.543 0-8.226-3.682-8.226-8.226v-28.151c0-4.543 3.683-8.226 8.226-8.226s8.226 3.682 8.226 8.226v28.151c0 4.543-3.683 8.226-8.226 8.226z" fill="#ffdd40"/></g><path d="m184.325 508.511-8.568-57.909c-.4-2.699-2.716-4.699-5.445-4.699h-10.059c-2.729 0-5.046 1.999-5.445 4.699l-8.568 57.909c-.272 1.838 1.152 3.489 3.011 3.489h32.064c1.857 0 3.282-1.651 3.01-3.489z" fill="#ff4155"/><path d="m184.325 508.511-4.951-33.462c-2.997 4.55-8.135 7.618-14.092 7.618-5.956 0-11.095-3.068-14.092-7.618l-4.951 33.462c-.272 1.838 1.152 3.489 3.011 3.489h32.064c1.858 0 3.283-1.651 3.011-3.489z" fill="#e80054"/><path d="m157.056 20.819v73.612c0 4.543 3.683 8.226 8.226 8.226s8.226-3.682 8.226-8.226v-80.18c-5.581 1.996-11.067 4.188-16.452 6.568z" fill="#ffdd40"/><g><path d="m165.282 136.838c-6.057 0-10.968-4.911-10.968-10.968v-31.44c0-6.057 4.91-10.968 10.968-10.968 6.057 0 10.968 4.911 10.968 10.968v31.44c-.001 6.058-4.911 10.968-10.968 10.968z" fill="#ffb332"/></g><path d="m165.282 110.151c-6.058 0-10.968-4.911-10.968-10.968v26.688c0 6.057 4.91 10.968 10.968 10.968 6.057 0 10.968-4.911 10.968-10.968v-26.688c-.001 6.057-4.911 10.968-10.968 10.968z" fill="#ff9100"/><path d="m195.26 155.764v-19.864c0-7.239-5.922-13.161-13.161-13.161h-33.634c-7.239 0-13.161 5.923-13.161 13.161v19.864z" fill="#38c674"/><path d="m173.632 122.739h-25.167c-7.239 0-13.161 5.922-13.161 13.161v19.864h25.167v-19.864c0-7.239 5.922-13.161 13.161-13.161z" fill="#21b75d"/><path d="m195.26 364.667v19.864c0 7.239-5.922 13.161-13.161 13.161h-33.634c-7.239 0-13.161-5.922-13.161-13.161v-19.864z" fill="#38c674"/><path d="m160.471 384.531v-19.864h-25.167v19.864c0 7.239 5.922 13.161 13.161 13.161h25.167c-7.239 0-13.161-5.923-13.161-13.161z" fill="#21b75d"/><path d="m293.472 305.92h-256.38c6.396 11.275 15.067 21.561 25.578 30.47h205.223c10.512-8.909 19.182-19.195 25.579-30.47z" fill="#ff4155"/><path d="m62.67 336.39h124.938c-.872-1.368-2.192-2.438-3.803-2.961-15.145-4.917-18.38-14.558-18.821-20.58-.226-3.085-2.357-5.66-5.341-6.473-.527-.144-1.038-.298-1.543-.455h-121.008c6.397 11.274 15.067 21.56 25.578 30.469z" fill="#e80054"/><path d="m305.813 260.215c0-5.17-.469-10.252-1.327-15.235h-278.407c-.858 4.983-1.327 10.065-1.327 15.235s.469 10.252 1.327 15.235h278.406c.859-4.983 1.328-10.065 1.328-15.235z" fill="#ff4155"/><path d="m24.752 260.215c0 5.17.469 10.252 1.327 15.235h108.209c-.88-1.344-2.202-2.39-3.792-2.923-13.725-4.601-17.161-14.871-17.95-21.007-.368-2.861-2.367-5.243-5.145-6.024-.581-.164-1.148-.336-1.701-.516h-79.621c-.859 4.983-1.327 10.065-1.327 15.235z" fill="#e80054"/><path d="m37.092 214.51h256.38c-6.396-11.275-15.067-21.561-25.579-30.47h-205.222c-10.512 8.91-19.183 19.195-25.579 30.47z" fill="#ff4155"/><path d="m79.137 211.821c-14.29-3.977-17.538-15.451-18.218-21.793-.132-1.225-.579-2.361-1.252-3.335-9.16 8.281-16.802 17.641-22.576 27.818h45.867c-.919-1.274-2.243-2.251-3.821-2.69z" fill="#e80054"/><path d="m304.776 246.625c-1.829-11.938-6.036-23.293-12.233-33.76h-254.522c-6.197 10.467-10.405 21.822-12.233 33.76z" fill="#ff7186"/><path d="m107.401 245.496c-19.025-5.352-22.621-19.519-23.102-27.31-.134-2.17-1.278-4.108-2.994-5.321h-43.284c-6.197 10.467-10.405 21.822-12.233 33.76h83.882c-.674-.497-1.43-.893-2.269-1.129z" fill="#ff4155"/><path d="m60.793 334.745c16.231 14.315 37.049 25.291 60.639 31.433 1.796.467 3.65.682 5.506.682h76.688c1.856 0 3.71-.214 5.506-.682 23.59-6.142 44.408-17.118 60.639-31.433z" fill="#ff7186"/><path d="m204.192 366.844c-12.344-6.007-14.983-19.7-15.47-27.114-.13-1.984-1.094-3.761-2.565-4.984h-125.364c16.231 14.315 37.048 25.291 60.639 31.433 1.796.467 3.65.682 5.506.682h76.688c.189-.001.377-.013.566-.017z" fill="#ff4155"/><path d="m304.776 273.805h-278.989c1.829 11.938 6.036 23.293 12.233 33.76h254.522c6.199-10.467 10.406-21.822 12.234-33.76z" fill="#ff7186"/><path d="m38.021 307.565h124.037c-.713-.527-1.519-.946-2.414-1.19-19.454-5.305-23.487-20.107-24.238-27.796-.188-1.919-1.167-3.603-2.613-4.774h-107.006c1.829 11.938 6.036 23.293 12.234 33.76z" fill="#ff4155"/><path d="m269.77 185.685c-16.231-14.315-37.049-25.291-60.639-31.433-1.796-.468-3.65-.682-5.506-.682h-76.688c-1.856 0-3.71.214-5.506.682-23.59 6.142-44.407 17.118-60.638 31.433z" fill="#ff7186"/><g><path d="m193.616 375.086c-2.085 0-4.17-.787-5.772-2.366-3.236-3.189-3.275-8.397-.086-11.633 18.73-19.01 30.833-58.619 30.833-100.909 0-42.227-12.079-81.812-30.772-100.843-3.184-3.242-3.137-8.449.104-11.633 3.242-3.184 8.45-3.135 11.632.104 21.889 22.286 35.487 65.345 35.487 112.372 0 47.1-13.628 90.191-35.566 112.455-1.61 1.634-3.735 2.453-5.86 2.453z" fill="#ffdd40"/></g><g><path d="m136.948 375.086c-2.126 0-4.25-.818-5.86-2.453-21.938-22.265-35.566-65.356-35.566-112.455 0-47.027 13.598-90.086 35.487-112.372 3.183-3.239 8.391-3.287 11.632-.104s3.288 8.391.105 11.633c-18.694 19.033-30.773 58.616-30.773 100.843 0 42.29 12.103 81.898 30.833 100.909 3.188 3.236 3.15 8.444-.086 11.633-1.601 1.578-3.688 2.366-5.772 2.366z" fill="#ffdd40"/></g><path d="m405.835 51.162v10.749c0 5.044 4.089 9.134 9.134 9.134 3.607 0 6.715-2.096 8.2-5.131-5.545-5.178-11.328-10.102-17.334-14.752z" fill="#ffb332"/><path d="m439.934 83.175c-7.484-8.499-15.54-16.481-24.121-23.873h-14.849c-6.028 0-10.961 4.932-10.961 10.96v16.543h49.931z" fill="#38c674"/><path d="m418.9 62.057c-1.03-.918-2.043-1.854-3.088-2.755h-14.849c-6.028 0-10.961 4.932-10.961 10.96v16.543h25.167v-16.542c0-3.261 1.452-6.193 3.731-8.206z" fill="#21b75d"/><path d="m500.851 236.851c-.276-8.448-.98-16.786-2.09-24.996h-190.548c5.327 9.39 12.548 17.955 21.302 25.375h170.908c.145-.124.283-.254.428-.379z" fill="#ff4155"/><path d="m486.255 161.105h-187.214c-.715 4.15-1.105 8.382-1.105 12.688s.39 8.538 1.105 12.688h194.907c-2.119-8.648-4.684-17.118-7.693-25.376z" fill="#ff4155"/><path d="m463.581 114.878-3.462-4.523h-130.605c-8.754 7.42-15.975 15.985-21.302 25.375h167.11c-3.574-7.162-7.506-14.112-11.741-20.852z" fill="#ff4155"/><g fill="#ff7186"><path d="m474.643 134.359h-165.657c-5.161 8.717-8.665 18.173-10.188 28.115h187.939c-3.458-9.666-7.5-19.053-12.094-28.115z"/><path d="m500.813 235.86h-172.862c13.517 11.921 30.853 21.062 50.499 26.177 1.496.389 3.04.568 4.585.568h63.865c1.546 0 3.089-.178 4.585-.568 19.105-4.974 36.015-13.764 49.365-25.208-.011-.323-.025-.646-.037-.969z"/><path d="m493.614 185.11h-194.816c1.523 9.942 5.027 19.398 10.188 28.115h189.965c-1.237-9.557-3.032-18.937-5.337-28.115z"/><path d="m440.7 84.979h-57.665c-1.545 0-3.089.178-4.585.568-19.646 5.115-36.982 14.256-50.499 26.177h133.216z"/></g><path d="m329.512 237.239h104.041c-.726-1.139-1.825-2.031-3.167-2.466-12.612-4.094-15.306-12.123-15.673-17.138-.188-2.569-1.963-4.713-4.448-5.391-.439-.12-.864-.248-1.285-.379h-100.768c5.327 9.39 12.547 17.955 21.3 25.374z" fill="#e80054"/><path d="m297.936 173.806c0 4.306.39 8.537 1.105 12.687h90.109c-.733-1.119-1.833-1.99-3.157-2.434-11.43-3.831-14.29-12.384-14.947-17.494-.306-2.382-1.971-4.366-4.284-5.016-.484-.136-.956-.28-1.417-.429h-66.304c-.715 4.149-1.105 8.38-1.105 12.686z" fill="#e80054"/><path d="m343.225 133.506c-11.9-3.312-14.604-12.867-15.171-18.148-.109-1.02-.482-1.966-1.042-2.777-7.628 6.895-13.992 14.69-18.8 23.165h38.195c-.766-1.061-1.868-1.874-3.182-2.24z" fill="#e80054"/><path d="m366.761 161.548c-15.843-4.456-18.837-16.254-19.238-22.742-.112-1.807-1.064-3.421-2.493-4.431h-36.045c-5.161 8.716-8.665 18.172-10.187 28.113h69.852c-.561-.413-1.19-.743-1.889-.94z" fill="#ff4155"/><path d="m447.362 262.599c-10.28-5.002-12.477-16.405-12.883-22.579-.109-1.652-.911-3.132-2.136-4.151h-104.394c13.517 11.92 30.852 21.061 50.496 26.176 1.496.389 3.039.568 4.585.568h63.861c.157 0 .314-.01.471-.014z" fill="#ff4155"/><path d="m308.985 213.236h103.29c-.594-.439-1.265-.787-2.01-.991-16.2-4.418-19.558-16.744-20.184-23.147-.156-1.598-.971-3-2.176-3.975h-89.107c1.523 9.941 5.027 19.397 10.187 28.113z" fill="#ff4155"/><g><path d="m391.366 269.463c-1.77 0-3.539-.681-4.88-2.042-18.268-18.541-29.617-54.424-29.617-93.645 0-39.161 11.324-75.017 29.552-93.576 2.651-2.697 6.987-2.737 9.687-.087 2.699 2.651 2.738 6.987.087 9.687-15.567 15.849-25.625 48.811-25.625 83.976 0 35.216 10.079 68.2 25.676 84.03 2.655 2.694 2.623 7.032-.072 9.687-1.335 1.314-3.073 1.97-4.808 1.97z" fill="#ffdd40"/></g><path d="m433.757 267.485c1.334 1.315 3.071 1.97 4.807 1.97 1.77 0 3.54-.682 4.88-2.043 18.27-18.541 29.619-54.427 29.619-93.651 0-21.296-3.355-41.607-9.341-58.699-8.142-12.989-17.467-25.159-27.827-36.361-.749.325-1.455.784-2.073 1.391-2.699 2.651-2.738 6.988-.087 9.688 15.567 15.849 25.627 48.815 25.627 83.981 0 35.219-10.079 68.204-25.678 84.036-2.654 2.695-2.622 7.032.073 9.688z" fill="#ffdd40"/></g></svg>