<svg id="Layer_1" enable-background="new 0 0 512 512" height="512" viewBox="0 0 512 512" width="512" xmlns="http://www.w3.org/2000/svg"><g><path d="m449.745 416.955c32.123-41.443 51.255-93.462 51.255-149.955 0-135.31-109.69-245-245-245s-245 109.69-245 245c0 56.503 19.138 108.529 51.271 149.976z" fill="#90d8f9"/><path d="m180.403 137.641c-1.449.258-2.924.085-4.252-.467.805 5.188 1.571 8.519 1.571 8.519 2.361.158 4.833 1.114 6.676 2.007.451-2.809 1.188-5.575 2.229-8.248.434-1.115.934-2.235 1.495-3.34-2.549.547-5.117 1.066-7.719 1.529z" fill="#2d3c6b"/><path d="m331.596 137.641c-2.603-.463-5.17-.985-7.72-1.534.595 1.172 1.122 2.359 1.575 3.54 1.001 2.612 1.714 5.311 2.154 8.052 2.324-1.126 5.645-2.352 8.486-1.95.086-2.97.218-5.995.368-8.871-1.478.776-3.186 1.061-4.863.763z" fill="#2d3c6b"/><path d="m449.597 403.742c-2.453-38.745-16.886-71.313-49.095-82.531l.007-.012-61.213-23.233c-5.553-2.165-10.896-4.024-16.434-5.652l-66.873 27.13-66.851-27.127c-5.679 1.665-11.211 3.573-16.432 5.648l-62.225 23.589.006.005c-31.646 11.582-45.658 44.049-48.083 82.181-.259 4.081-.559 8.159-.901 12.233 37.981 49.512 94.434 84.1 159.06 93.467l80.455-1.589c60.621-11.264 113.401-44.84 149.493-91.898-.33-3.813-.638-7.868-.914-12.211z" fill="#ff4155"/><path d="m189.138 292.319c-5.679 1.665-11.211 3.573-16.432 5.648l-62.225 23.589.006.005c-31.646 11.582-45.658 44.049-48.083 82.181-.259 4.081-.559 8.159-.901 12.233 17.501 22.814 38.932 42.449 63.269 57.918 0-17.445 0-43.69 0-73.622 0-47.715 72.652-80.951 89.488-88.013 1.937-.812 3.203-2.731 3.129-4.831-.046-1.286.011-2.475.141-3.589z" fill="#e80054"/><path d="m322.294 275.627c-1.538-4.53-6.551-6.855-11.002-5.101l-44.799 17.654c-6.317 2.489-10.613 8.582-10.495 15.371.001.043.002.086.003.129v22.263l68.452-26.974c2.896-1.156 4.377-4.381 3.368-7.331-2.421-6.851-4.194-12.042-5.527-16.011z" fill="#ff7186"/><path d="m200.709 270.527c-4.451-1.754-9.464.57-11.001 5.1-1.333 3.968-3.106 9.16-5.528 16.012-1.01 2.951.471 6.175 3.368 7.331l68.452 26.974v-22.263c.001-.043.002-.086.003-.129.118-6.789-4.178-12.882-10.495-15.372z" fill="#ff7186"/><path d="m217.39 307.429c-.551-15.48 12.709-18.022 12.709-18.022l2.129-6.46-31.519-12.42c-4.45-1.754-9.463.57-11.001 5.1-1.333 3.968-3.106 9.16-5.528 16.012-1.01 2.951.471 6.175 3.368 7.331l28.982 11.421c.579-.857.898-1.885.86-2.962z" fill="#ff4155"/><path d="m323.876 136.107c-25.383-5.462-48.125-15.028-67.876-25.973-19.752 10.945-42.493 20.515-67.878 25.976-.561 1.105-1.061 2.225-1.495 3.34-2.572 6.608-3.322 13.774-2.358 20.791l3.579 26.067c0 37.476 20.005 62.948 37.021 76.162 8.882 6.897 19.843 10.644 31.132 10.644s22.25-3.746 31.132-10.644c17.017-13.214 37.022-38.686 37.022-76.162l3.578-26.062c.954-6.948.231-14.044-2.282-20.6-.452-1.18-.98-2.367-1.575-3.539z" fill="#f9ba8f"/><g fill="#fcad6d"><path d="m256.69 110.51c-.228-.126-.462-.249-.689-.375-1.542.854-3.108 1.697-4.687 2.533 1.809-.699 3.6-1.42 5.376-2.158z"/><path d="m260.935 261.308c-17.017-14.659-37.022-42.916-37.022-84.488l-3.579-28.917c-.919-7.423-.26-14.991 2.033-22.035-10.8 4.139-22.222 7.656-34.245 10.242-.561 1.105-1.061 2.225-1.495 3.34-2.572 6.608-3.322 13.774-2.358 20.791l3.579 26.067c0 37.476 20.005 62.948 37.021 76.162 8.882 6.897 19.844 10.644 31.132 10.644 6.376 0 12.647-1.196 18.498-3.479-4.852-1.979-9.435-4.77-13.564-8.327z"/></g><path d="m341.171 147.315c-3.521-3.227-10.534-1.591-13.566.385.664 4.137.702 8.369.128 12.548l-3.578 26.062c0 2.101-.066 4.162-.188 6.187 8.726 2.632 13.06-5.201 13.79-10.577.314-2.314.828-4.595 1.541-6.821 2.321-7.25 10.694-19.701 1.873-27.784z" fill="#fcad6d"/><path d="m334.547 171.008c-2.97 0-5.706-.97-7.935-2.595l-2.458 17.895c0 2.101-.066 4.162-.188 6.187 8.726 2.632 13.06-5.202 13.79-10.577.314-2.314.828-4.595 1.54-6.821.576-1.798 1.524-3.916 2.49-6.208-2.092 1.336-4.572 2.119-7.239 2.119z" fill="#fd995b"/><path d="m170.831 147.315c3.521-3.227 10.534-1.591 13.566.385-.664 4.137-.702 8.369-.128 12.548l3.578 26.062c0 2.101.066 4.162.188 6.187-8.726 2.632-13.06-5.201-13.79-10.577-.314-2.314-.828-4.595-1.541-6.821-2.321-7.25-10.694-19.701-1.873-27.784z" fill="#fcad6d"/><path d="m185.492 169.159c-1.998 1.168-4.316 1.85-6.797 1.85-3.49 0-6.659-1.335-9.055-3.508 1.15 2.824 2.374 5.442 3.065 7.598.713 2.225 1.227 4.507 1.541 6.821.73 5.376 5.065 13.209 13.79 10.577-.122-2.025-.188-4.087-.188-6.187z" fill="#fd995b"/><path d="m256.006 508.742v-182.798c-14.308 0-25.907 11.599-25.907 25.907v157.403z" fill="#e80054"/><path d="m321.857 207.722c-1.81 6.218-7.3 14.882-10.964 15.597-5.761 1.124-6.863-4.489-6.863-4.489-1.984-11.828-10.517-23.671-21.911-26.255l-17.414-5.116c-3.027-.89-6.059.664-7.277 3.301-.215.465-.903.465-1.118 0-1.219-2.637-4.25-4.19-7.277-3.301l-17.414 5.116c-11.618 2.635-20.269 14.898-22.027 26.955 0 0-1.109 5.528-6.87 4.404-4.602-.898-11.067-11.843-12.577-16.212-.397 10.754-1.116 60.355 39.954 86.649 0 0 8.907 4.898 16.428 12.473 2.517 2.534 5.904 4.014 9.476 4.014s6.959-1.48 9.476-4.014c7.522-7.574 16.428-12.473 16.428-12.473 41.085-26.304 40.348-75.92 39.95-86.649zm-45.596 35.932c-7.479 2.643-15.641-2.062-16.599-9.847-.012-.101-.024-.202-.035-.305-.157-1.452-1.373-2.568-2.852-2.568-1.479 0-2.695 1.116-2.852 2.568-.011.102-.023.204-.035.305-.958 7.786-9.12 12.49-16.599 9.847-10.291-3.636-14.718-10.522-16.62-15.572 5.575-7.626 13.785-13.099 23.234-15.185l3.111-.687c4.534-1.001 8.039-5.427 9.325-10.142.148-.541.917-.541 1.065 0 1.286 4.715 4.791 9.141 9.325 10.142l3.111.687c8.94 1.974 16.774 6.977 22.314 13.969-1.149 5.099-4.746 12.849-15.893 16.788z" fill="#2d3c6b"/><path d="m324.289 294.7-109.363 213.854c13.357 2.254 27.076 3.446 41.074 3.446 5.964 0 11.875-.225 17.732-.643l105.62-206.532-40.996-15.545c-5.386-2.042-11.445.293-14.067 5.42z" fill="#ffdd40"/><path d="m296.794 453.147c-24.723 5.677-35.018-9.89-38.823-18.946-.657-1.564-1.836-2.756-3.253-3.459l-39.792 77.811c13.357 2.255 27.076 3.447 41.074 3.447 5.963 0 11.875-.225 17.731-.643l29.01-56.727c-1.609-1.378-3.79-1.979-5.947-1.483z" fill="#ffb332"/><path d="m393.157 310.059-15.393-5.837-105.99 207.258c11.879-.755 23.529-2.35 34.889-4.738l92.548-180.973c3.066-5.995.242-13.323-6.054-15.71z" fill="#ffb332"/><path d="m322.41 465.362c-10.696.51-15.776-4.697-18.116-8.86-.703-1.251-1.752-2.204-2.969-2.807l-29.551 57.786c11.879-.755 23.529-2.35 34.889-4.738l20.371-39.834c-1.26-1.041-2.888-1.63-4.624-1.547z" fill="#ffa219"/><g><path d="m344.956 105.222c5.072-11.66 12.82-39.632-13.691-65.408 2.045 6.403.388 13.789-5.045 18.683-14.375 12.946-38.743 34.904-71.431 53.22 22.001 12.327 47.766 23.007 76.807 28.172 2.331.415 4.729-.282 6.473-1.883 3.992-3.666 9.999-11.298 6.474-21.934-1.18-3.559-1.083-7.412.413-10.85z" fill="#e80054"/><path d="m331.265 39.814c2.045 6.403.388 13.789-5.045 18.683-14.375 12.946-38.742 34.904-71.43 53.22 15.373 8.614 32.59 16.416 51.472 22.101-13.812-19.241 3.761-33.578 3.761-33.578 20.542-5.519 32.43-20.618 38.561-31.479-2.254-9.307-7.378-19.281-17.319-28.947z" fill="#cc0053"/></g><path d="m328.64 58.497c-24.05 21.659-76.049 68.554-148.238 81.392-2.331.414-4.729-.282-6.473-1.884-3.992-3.666-9.999-11.298-6.474-21.934 1.18-3.559 1.082-7.411-.413-10.849-7.83-18.002-28.819-77.134 86.545-104.785 2.374-.569 4.844-.579 7.228-.052 9.715 2.148 43.134 11.706 67.192 31.123 8.483 6.847 8.734 19.694.633 26.989z" fill="#ff4155"/><path d="m249.155 72.056c-12.779-2.937-12.438-11.232-11.444-15.248.368-1.485-.078-3.051-1.115-4.175-22.842-24.771-5.462-45.453-4.955-46.045-90.564 29.465-71.889 81.875-64.599 98.635 1.496 3.438 1.593 7.29.414 10.849-3.525 10.636 2.482 18.268 6.474 21.934 1.744 1.601 4.142 2.298 6.473 1.884 29.201-5.193 55.094-15.96 77.174-28.374z" fill="#e80054"/><g><path d="m299.161 105.035c-6.284 0-13-.682-20.129-2.049-13.921-2.669-24.134-7.016-24.562-7.199-2.282-.98-3.337-3.624-2.358-5.906.98-2.281 3.624-3.336 5.905-2.358.485.206 38.693 16.243 65.002 3.697 10.855-5.177 18.322-14.714 22.193-28.348.677-2.388 3.161-3.78 5.554-3.097 2.389.678 3.775 3.164 3.097 5.554-4.611 16.241-13.696 27.688-27.003 34.023-7.953 3.785-17.224 5.683-27.699 5.683z" fill="#ffdd40"/></g><g><path d="m212.53 105.032c-10.204 0-20.761-1.619-30.183-6.214-13.195-6.436-22.158-17.703-26.64-33.49-.678-2.389.708-4.876 3.097-5.554 2.391-.678 4.876.709 5.554 3.097 3.754 13.222 11.133 22.597 21.932 27.864 27.672 13.496 69.087-3.077 69.5-3.245 2.302-.94 4.923.169 5.86 2.469.936 2.3-.169 4.924-2.469 5.86-1.29.525-23.02 9.213-46.651 9.213z" fill="#ffdd40"/></g><ellipse cx="256.865" cy="92.318" fill="#ffb332" rx="18.403" ry="22.315"/><path d="m254.273 264.99c-9.845-9.845-9.235-20.299-9.171-21.11-2.461.708-5.177.705-7.814-.226-10.291-3.636-14.718-10.523-16.62-15.572 2.925-4.001 6.581-7.402 10.754-10.039-13.073-8.881-7.074-21.309-6.24-22.884-8.294 4.846-14.175 14.67-15.589 24.371 0 0-1.109 5.528-6.87 4.404-4.603-.898-11.067-11.843-12.577-16.212-.397 10.754-1.116 60.355 39.954 86.649 0 0 8.907 4.898 16.428 12.473 2.517 2.534 5.904 4.014 9.476 4.014-11.271-17.633 8.519-35.618-1.731-45.868z" fill="#1e2f59"/><path d="m265.073 100.979-11.071-22.392c-6.747-.483-4.846-6.531-4.846-6.531-6.311 3.537-10.694 11.277-10.694 20.262 0 12.324 8.239 22.315 18.403 22.315 5.233 0 9.952-2.653 13.303-6.905-6.939.001-5.095-6.749-5.095-6.749z" fill="#ffa219"/><ellipse cx="256.865" cy="92.318" fill="#ffdd40" rx="10.336" ry="14.291"/><path d="m408.974 458.345c-3.909-20.938-10.428-43.435-21.164-54.685-2.447-2.564-6.774-.825-6.774 2.72v71.322c9.773-5.811 19.104-12.285 27.938-19.357z" fill="#e80054"/><g fill="#b1e4f9"><path d="m382.793 57.322c3.082 22.65 7.582 75.209-10.02 111.932-23 47.986-31.838 91.796 46 117.967 39.761 13.369 58.465 40.71 67.255 64.263 9.68-26.336 14.972-54.79 14.972-84.484 0-88.901-47.351-166.739-118.207-209.678z"/><path d="m129.207 57.322c-3.082 22.65-7.582 75.209 10.02 111.932 23 47.986 31.838 91.796-46 117.967-39.761 13.369-58.465 40.71-67.255 64.263-9.68-26.336-14.972-54.79-14.972-84.484 0-88.901 47.351-166.739 118.207-209.678z"/></g></g></svg>