<svg id="Layer_1" enable-background="new 0 0 512 512" height="512" viewBox="0 0 512 512" width="512" xmlns="http://www.w3.org/2000/svg"><g><path d="m437.841 431.183c39.251-43.446 63.159-101.021 63.159-164.183 0-135.31-109.69-245-245-245s-245 109.69-245 245c0 63.163 23.907 120.738 63.16 164.184h363.681z" fill="#1e2f59"/><path d="m132.545 478.651c36.253 21.192 78.432 33.349 123.455 33.349s87.202-12.157 123.455-33.349z" fill="#f1e0c7"/><path d="m234.357 486.954c.762-3.662-1.452-7.209-5.077-8.134-.198-.05-.38-.114-.573-.168h-96.161c34.712 20.291 74.859 32.291 117.732 33.275-16.312-7.02-17.405-17.842-15.921-24.973z" fill="#e8d0b1"/><path d="m134.387 479.729h243.225c22.968-13.159 43.592-29.937 61.115-49.546v-416.257c.001-7.691-6.233-13.926-13.924-13.926h-321.18c-.782 0-1.554.039-2.321.097v456.879c10.36 8.447 21.419 16.069 33.085 22.753z" fill="#90d8f9"/><path d="m211.653 29.109c0-27.196 25.406-29.109 25.406-29.109h-133.436c-.782 0-1.554.039-2.321.097v456.879c10.361 8.447 21.419 16.069 33.086 22.753h96.966c-.621-.401-1.314-.716-2.074-.91-19.31-4.927-17.627-28.2-17.627-28.2s0-394.314 0-421.51z" fill="#61a2f9"/><path d="m73.272 30.351v399.832c8.929 9.992 18.666 19.245 29.108 27.661v-457.812c-16.185.652-29.108 13.974-29.108 30.319z" fill="#90d8f9"/><path d="m402.404 29.109h-263.7c-3.985 0-7.216 3.231-7.216 7.216v407.08c0 3.985 3.23 7.216 7.216 7.216h263.7c3.985 0 7.216-3.231 7.216-7.216v-407.08c0-3.986-3.231-7.216-7.216-7.216z" fill="#61a2f9"/><path d="m131.488 36.325v407.08c0 3.985 3.23 7.216 7.216 7.216h72.949s0-394.316 0-421.511h-72.949c-3.985-.001-7.216 3.229-7.216 7.215z" fill="#1d75d6"/><g><path d="m358.776 300.468h-176.445c-3.841 0-7.392-2.044-9.322-5.365-1.929-3.322-1.946-7.419-.043-10.756l88.222-154.724c1.918-3.364 5.493-5.441 9.365-5.441s7.447 2.077 9.365 5.441l88.222 154.724c1.903 3.336 1.886 7.434-.043 10.756s-5.48 5.365-9.321 5.365zm-157.887-21.562h139.329l-69.665-122.178z" fill="#e9efff"/></g><g><path d="m270.554 355.547c-3.872 0-7.447-2.077-9.365-5.441l-88.222-154.725c-1.903-3.336-1.886-7.434.043-10.756 1.93-3.322 5.481-5.365 9.322-5.365h176.445c3.841 0 7.392 2.043 9.322 5.365 1.929 3.322 1.946 7.419.043 10.756l-88.222 154.725c-1.919 3.364-5.494 5.441-9.366 5.441zm-69.665-154.725 69.665 122.179 69.665-122.179z" fill="#e9efff"/></g><g><path d="m358.776 83.001h-176.445c-4.465 0-8.086-3.62-8.086-8.086s3.62-8.086 8.086-8.086h176.445c4.466 0 8.086 3.62 8.086 8.086 0 4.467-3.62 8.086-8.086 8.086z" fill="#90d8f9"/></g><g><path d="m358.776 412.899h-176.445c-4.465 0-8.086-3.62-8.086-8.086s3.62-8.086 8.086-8.086h176.445c4.466 0 8.086 3.62 8.086 8.086s-3.62 8.086-8.086 8.086z" fill="#90d8f9"/></g></g></svg>