<svg id="Layer_1" enable-background="new 0 0 512 512" height="512" viewBox="0 0 512 512" width="512" xmlns="http://www.w3.org/2000/svg"><g><path d="m258.75 423.81c160.738 0 224.856-75.551 231.033-83.331 7.284-23.198 11.217-47.878 11.217-73.479 0-135.31-109.69-245-245-245s-245 109.69-245 245c0 25.571 3.923 50.225 11.191 73.398 6.304 7.365 75.301 83.412 236.559 83.412z" fill="#ffdd40"/><path d="m147.489 65.259c-.6-3.37-2.695-5.254-6.328-7.301l10.605-10.151c3.154-3.019 4.938-7.196 4.938-11.562 0-3.409 1.089-6.729 3.107-9.477l19.005-25.866c1.258-1.712 3.971-.822 3.971 1.302v64.293h-35.078z" fill="#a05838"/><path d="m147.709 66.496-.219-1.237c-.6-3.37-2.695-5.254-6.328-7.301l10.605-10.151c1.955-1.872 3.381-4.189 4.185-6.72.001 0 .001.001.001.001 13.464 13.464 26.836 2.307 26.836 2.307v23.102h-35.08z" fill="#90482d"/><path d="m68.344 250.365c-7.292-3.675-5.595-10.787-3.58-15.224.704-1.549-.804-3.196-2.406-2.623-5.564 1.99-14.325 6.747-15.313 17.149-1.164 12.25 6.809 18.419 6.809 18.419h31.6c-.001-9.778-6.337-12.293-17.11-17.721z" fill="#90482d"/><path d="m53.853 268.085s-3.727-2.889-5.712-8.631c16.587 3.558 16.918-11.567 16.918-11.567l.005.001c.801.924 1.868 1.766 3.279 2.477 10.773 5.429 17.109 7.944 17.109 17.72z" fill="#7f3822"/><path d="m103.746 183.943c-7.293-3.675-5.595-10.787-3.58-15.224.704-1.549-.804-3.196-2.406-2.623-5.564 1.99-14.325 6.747-15.313 17.149-1.164 12.25 6.809 18.419 6.809 18.419h31.6c0-9.778-6.337-12.292-17.11-17.721z" fill="#90482d"/><path d="m89.256 201.663s-3.884-3.021-5.833-9.013c14.352 2.951 17.396-6.889 18.008-10.223.645.55 1.41 1.06 2.315 1.516 10.773 5.429 17.109 7.944 17.109 17.72z" fill="#7f3822"/><path d="m117.221 119.9c-6.197-3.123-4.754-9.166-3.042-12.937.598-1.316-.683-2.716-2.045-2.229-4.728 1.691-12.172 5.733-13.012 14.572-.989 10.409 5.786 15.651 5.786 15.651h26.851c0-8.307-5.384-10.444-14.538-15.057z" fill="#90482d"/><path d="m99.908 127.152c14.135 2.684 15.483-8.429 15.483-8.429l.012.001c.518.423 1.113.821 1.818 1.176 9.154 4.613 14.538 6.75 14.538 15.058h-26.851c0-.001-3.36-2.619-5-7.806z" fill="#7f3822"/><path d="m135.526 53.371c-5.819-2.932-4.465-8.608-2.857-12.149.561-1.236-.642-2.55-1.92-2.093-4.44 1.588-11.431 5.384-12.219 13.685-.929 9.775 5.433 14.698 5.433 14.698h25.216c0-7.802-5.056-9.809-13.653-14.141z" fill="#90482d"/><path d="m119.013 59.322c12.958 3.675 13.961-7.847 13.961-7.847h.001c.631.706 1.466 1.349 2.552 1.897 8.596 4.332 13.653 6.339 13.653 14.14h-25.216c-.001-.001-3.537-2.742-4.951-8.19z" fill="#7f3822"/><path d="m331.213 409.163c-7.456 0-13.5-6.044-13.5-13.5h-123.426c0 7.456-6.044 13.5-13.5 13.5h-.811v66.337h.811c7.456 0 13.5 6.044 13.5 13.5 0 5.83-3.701 10.782-8.878 12.67 22.353 6.717 46.049 10.33 70.591 10.33s48.238-3.613 70.591-10.33c-5.177-1.888-8.878-6.84-8.878-12.67 0-7.456 6.044-13.5 13.5-13.5h.811c0-4.367 0-61.797 0-66.337z" fill="#ffb332"/><path d="m258.75 453.832c-37.081 17.141-34.867 45.368-5.485 58.143.911.01 1.821.025 2.735.025 24.542 0 48.238-3.613 70.591-10.33-5.177-1.888-8.878-6.84-8.878-12.67 0-7.456 6.044-13.5 13.5-13.5h.811c0-4.367 0-61.797 0-66.337h-.811c-7.456 0-13.5-6.044-13.5-13.5h-58.963s53.134 33.606 0 58.169z" fill="#ffa219"/><path d="m43.011 339.443c-7.292-3.675-5.595-10.787-3.58-15.224.704-1.549-.804-3.196-2.406-2.623-5.564 1.989-14.325 6.747-15.313 17.149-.003.027-.002.051-.004.078 1.848 6.037 3.916 11.978 6.208 17.806.368.346.605.535.605.535h31.6c-.001-9.778-6.338-12.292-17.11-17.721z" fill="#90482d"/><path d="m60.12 357.163h-31.6s-.237-.189-.605-.535c-.616-1.567-1.213-3.143-1.797-4.725 14.836.527 14.795-13.8 14.795-13.8l.012-.003c.598.483 1.278.937 2.085 1.344 10.773 5.428 17.11 7.942 17.11 17.719z" fill="#7f3822"/><path d="m27.777 356.264c3.622 9.254 7.792 18.233 12.467 26.899h20.876v-27h-31.759c-.537 0-1.064.04-1.584.101z" fill="#a05838"/><path d="m60.12 292.977h51.29v91.186h-51.29z" fill="#90482d"/><path d="m84.971 322.897c0-6.821-5.529-12.35-12.35-12.35h-12.501v-17.57h51.29v91.186h-26.439z" fill="#7f3822"/><path d="m57.003 267.085h53.784v27h-53.784c-7.456 0-13.5-6.044-13.5-13.5s6.044-13.5 13.5-13.5z" fill="#b76c4e"/><path d="m79.666 280.585c0-7.456 6.044-13.5 13.5-13.5h-36.163c-7.456 0-13.5 6.044-13.5 13.5s6.044 13.5 13.5 13.5h36.163c-7.456 0-13.5-6.044-13.5-13.5z" fill="#a05838"/><path d="m87.016 444.395h94.96v-36.368h-126.33c9.26 13.13 19.77 25.315 31.37 36.368z" fill="#90482d"/><path d="m118.95 420.774c0-6.028 4.075-11.142 9.604-12.746h-72.907c9.259 13.13 19.769 25.315 31.369 36.368h31.934z" fill="#7f3822"/><path d="m110.45 225.663h73v158.5h-73z" fill="#a05838"/><path d="m144.481 381.997v-124.715c0-9.329 7.563-16.892 16.892-16.892h22.077v-14.726h-73v158.5h34.186c-.092-.712-.155-1.431-.155-2.167z" fill="#90482d"/><path d="m131.454 89.996h51.333v44.834h-51.333z" fill="#a05838"/><path d="m157.12 114.437c0-6.307 5.113-11.42 11.42-11.42h14.247v-13.021h-51.333v44.834h25.667v-20.393z" fill="#90482d"/><g><path d="m157.12 141.8c4.142 0 7.5-3.358 7.5-7.5v-20.731c0-4.142-3.358-7.5-7.5-7.5s-7.5 3.358-7.5 7.5v20.731c0 4.142 3.358 7.5 7.5 7.5z" fill="#7f3822"/></g><path d="m120.856 157.83h61.931v44.833h-61.931z" fill="#a05838"/><path d="m151.821 183.387c0-6.866 5.566-12.433 12.433-12.433h18.533v-13.124h-61.931v44.833h30.966v-19.276z" fill="#90482d"/><g><path d="m151.822 214.163c4.551 0 8.24-3.689 8.24-8.24v-21.941c0-4.551-3.689-8.241-8.24-8.241s-8.24 3.689-8.24 8.241v21.941c-.001 4.551 3.688 8.24 8.24 8.24z" fill="#7f3822"/></g><path d="m130.88 477.667h51.095v-34.82h-96.548c13.702 13.293 28.951 24.997 45.453 34.82z" fill="#7f3822"/><path d="m118.95 470.017v-27.17h-33.522c10.336 10.028 21.555 19.149 33.526 27.243 0-.025-.004-.049-.004-.073z" fill="#6d2b19"/><path d="m182.787 382.163h-143.071c5.004 9.379 10.591 18.399 16.73 27h126.341c7.456 0 13.5-6.044 13.5-13.5s-6.044-13.5-13.5-13.5z" fill="#b76c4e"/><path d="m110.45 395.663c0-7.456 6.044-13.5 13.5-13.5h-84.234c5.004 9.379 10.591 18.399 16.73 27h67.504c-7.456 0-13.5-6.044-13.5-13.5z" fill="#a05838"/><path d="m182.787 475.5h-55.479c18.267 11.299 38.127 20.26 59.169 26.477 5.66-1.607 9.81-6.802 9.81-12.977 0-7.456-6.044-13.5-13.5-13.5z" fill="#b76c4e"/><g><path d="m154.221 259.453h-15.868c-4.142 0-7.5-3.358-7.5-7.5s3.358-7.5 7.5-7.5h15.868c4.142 0 7.5 3.358 7.5 7.5s-3.358 7.5-7.5 7.5z" fill="#b76c4e"/></g><g><path d="m154.221 285.933h-15.868c-4.142 0-7.5-3.358-7.5-7.5s3.358-7.5 7.5-7.5h15.868c4.142 0 7.5 3.358 7.5 7.5s-3.358 7.5-7.5 7.5z" fill="#b76c4e"/></g><g><path d="m154.221 312.413h-15.868c-4.142 0-7.5-3.358-7.5-7.5s3.358-7.5 7.5-7.5h15.868c4.142 0 7.5 3.358 7.5 7.5s-3.358 7.5-7.5 7.5z" fill="#b76c4e"/></g><g><path d="m154.221 338.893h-15.868c-4.142 0-7.5-3.358-7.5-7.5s3.358-7.5 7.5-7.5h15.868c4.142 0 7.5 3.358 7.5 7.5s-3.358 7.5-7.5 7.5z" fill="#b76c4e"/></g><g><path d="m154.221 365.374h-15.868c-4.142 0-7.5-3.357-7.5-7.5s3.358-7.5 7.5-7.5h15.868c4.142 0 7.5 3.357 7.5 7.5s-3.358 7.5-7.5 7.5z" fill="#b76c4e"/></g><g><path d="m89.12 227.663h93.667c7.456 0 13.5-6.044 13.5-13.5s-6.044-13.5-13.5-13.5h-93.667c-7.456 0-13.5 6.044-13.5 13.5s6.044 13.5 13.5 13.5z" fill="#b76c4e"/></g><g><path d="m106.87 159.83h75.917c7.456 0 13.5-6.044 13.5-13.5s-6.044-13.5-13.5-13.5h-75.917c-7.456 0-13.5 6.044-13.5 13.5s6.044 13.5 13.5 13.5z" fill="#b76c4e"/></g><g><path d="m124.62 91.996h58.167c7.456 0 13.5-6.044 13.5-13.5s-6.044-13.5-13.5-13.5h-58.167c-7.456 0-13.5 6.044-13.5 13.5s6.044 13.5 13.5 13.5z" fill="#b76c4e"/></g><path d="m490.289 338.744c-.988-10.402-9.749-15.16-15.313-17.149-1.602-.573-3.11 1.074-2.406 2.623 2.016 4.437 3.713 11.549-3.58 15.224-10.773 5.429-17.109 7.944-17.109 17.72h31.6s.237-.189.605-.535c2.292-5.828 4.36-11.769 6.208-17.806-.004-.026-.002-.05-.005-.077z" fill="#90482d"/><path d="m451.88 357.163h31.6s.237-.189.605-.535c.616-1.567 1.213-3.143 1.797-4.725-14.836.527-14.795-13.8-14.795-13.8l-.012-.003c-.598.483-1.278.937-2.085 1.344-10.773 5.428-17.11 7.942-17.11 17.719z" fill="#7f3822"/><path d="m482.639 356.163h-31.759v27h20.876c4.676-8.666 8.845-17.645 12.467-26.899-.52-.061-1.047-.101-1.584-.101z" fill="#a05838"/><path d="m401.213 294.085h50.667v90.078h-50.667z" fill="#90482d"/><path d="m423.297 324.899c0-7.607 6.167-13.775 13.774-13.775h14.809v-17.039h-50.667v90.078h22.083v-59.264z" fill="#7f3822"/><path d="m443.656 250.365c7.293-3.675 5.595-10.787 3.58-15.224-.704-1.549.804-3.196 2.406-2.623 5.564 1.99 14.325 6.747 15.313 17.149 1.164 12.25-6.809 18.419-6.809 18.419h-31.6c.001-9.778 6.338-12.293 17.11-17.721z" fill="#90482d"/><path d="m458.147 268.085s3.727-2.889 5.712-8.631c-16.587 3.558-16.918-11.567-16.918-11.567l-.005.001c-.801.924-1.868 1.766-3.279 2.477-10.773 5.429-17.109 7.944-17.109 17.72z" fill="#7f3822"/><path d="m454.997 267.085h-53.784v27h53.784c7.456 0 13.5-6.044 13.5-13.5s-6.044-13.5-13.5-13.5z" fill="#b76c4e"/><path d="m426.547 280.585c0-7.456 6.044-13.5 13.5-13.5h-38.833v27h38.833c-7.456 0-13.5-6.044-13.5-13.5z" fill="#90482d"/><path d="m364.511 65.259c.6-3.37 2.695-5.254 6.328-7.301l-10.605-10.151c-3.154-3.019-4.938-7.196-4.938-11.562 0-3.409-1.089-6.729-3.107-9.477l-19.005-25.867c-1.258-1.712-3.971-.822-3.971 1.302v64.293h35.078z" fill="#a05838"/><path d="m364.292 66.496.22-1.237c.6-3.37 2.695-5.254 6.328-7.301l-10.605-10.151c-1.955-1.872-3.381-4.189-4.185-6.72 0 0-.001.001-.001.001-13.464 13.464-26.836 2.307-26.836 2.307v23.102h35.079z" fill="#90482d"/><path d="m330.024 408.027v36.368h94.96c11.6-11.053 22.11-23.238 31.369-36.368z" fill="#90482d"/><path d="m365.785 420.255c0-5.979 4.252-11.009 9.879-12.228h-45.64v36.368h35.761z" fill="#7f3822"/><path d="m329.213 225.663h73v158.5h-73z" fill="#a05838"/><path d="m363.244 381.997v-124.715c0-9.329 7.563-16.892 16.892-16.892h22.077v-14.726h-73.001v158.5h34.186c-.091-.712-.154-1.431-.154-2.167z" fill="#90482d"/><path d="m329.213 89.996h51.333v44.834h-51.333z" fill="#a05838"/><path d="m354.88 114.437c0-6.307 5.113-11.42 11.42-11.42h14.247v-13.021h-51.333v44.834h25.667v-20.393z" fill="#90482d"/><path d="m329.213 157.83h61.931v44.833h-61.931z" fill="#a05838"/><path d="m360.179 183.387c0-6.866 5.566-12.433 12.433-12.433h18.533v-13.124h-61.931v44.833h30.966v-19.276z" fill="#90482d"/><path d="m330.024 442.847v34.82h51.095c16.503-9.822 31.751-21.526 45.453-34.82z" fill="#7f3822"/><path d="m378.3 476.923c-6.883 0-12.515-5.632-12.515-12.515v-21.561h-35.761v34.82h51.095c.407-.242.804-.499 1.209-.744z" fill="#6d2b19"/><path d="m408.254 183.943c7.293-3.675 5.595-10.787 3.58-15.224-.704-1.549.804-3.196 2.406-2.623 5.564 1.99 14.325 6.747 15.313 17.149 1.164 12.25-6.809 18.419-6.809 18.419h-31.6c.001-9.778 6.337-12.292 17.11-17.721z" fill="#90482d"/><path d="m422.744 201.663s3.884-3.021 5.833-9.013c-14.352 2.951-17.397-6.889-18.008-10.223-.645.55-1.41 1.06-2.315 1.516-10.773 5.429-17.109 7.944-17.109 17.72z" fill="#7f3822"/><path d="m394.779 119.9c6.197-3.123 4.754-9.166 3.042-12.937-.598-1.316.683-2.716 2.045-2.229 4.728 1.691 12.172 5.733 13.012 14.572.989 10.409-5.786 15.651-5.786 15.651h-26.851c0-8.307 5.384-10.444 14.538-15.057z" fill="#90482d"/><path d="m412.092 127.152c-14.135 2.684-15.483-8.429-15.483-8.429l-.012.001c-.518.423-1.112.821-1.818 1.176-9.154 4.613-14.538 6.75-14.538 15.058h26.851c0-.001 3.36-2.619 5-7.806z" fill="#7f3822"/><path d="m376.474 53.371c5.819-2.932 4.465-8.608 2.857-12.149-.561-1.236.642-2.55 1.92-2.093 4.44 1.588 11.431 5.384 12.22 13.685.929 9.775-5.433 14.698-5.433 14.698h-25.216c-.001-7.802 5.056-9.809 13.652-14.141z" fill="#90482d"/><path d="m392.987 59.322c-12.958 3.675-13.961-7.847-13.961-7.847-.631.706-1.466 1.349-2.552 1.897-8.596 4.332-13.653 6.339-13.653 14.14h25.216c0-.001 3.537-2.742 4.95-8.19z" fill="#7f3822"/><g><path d="m354.88 141.8c4.142 0 7.5-3.358 7.5-7.5v-20.731c0-4.142-3.358-7.5-7.5-7.5s-7.5 3.358-7.5 7.5v20.731c0 4.142 3.358 7.5 7.5 7.5z" fill="#7f3822"/></g><g><path d="m360.179 214.163c4.551 0 8.24-3.689 8.24-8.24v-21.941c0-4.551-3.689-8.241-8.24-8.241s-8.24 3.689-8.24 8.241v21.941c0 4.551 3.689 8.24 8.24 8.24z" fill="#7f3822"/></g><path d="m472.284 382.163h-143.071c-7.456 0-13.5 6.044-13.5 13.5s6.044 13.5 13.5 13.5h126.341c6.139-8.601 11.726-17.621 16.73-27z" fill="#b76c4e"/><path d="m355.463 395.663c0-7.456 6.044-13.5 13.5-13.5h-39.75c-7.456 0-13.5 6.044-13.5 13.5s6.044 13.5 13.5 13.5h39.75c-7.456 0-13.5-6.044-13.5-13.5z" fill="#a05838"/><path d="m329.213 475.5c-7.456 0-13.5 6.044-13.5 13.5 0 6.175 4.15 11.37 9.81 12.977 21.042-6.216 40.902-15.178 59.169-26.477z" fill="#b76c4e"/><path d="m355.463 489c0-7.456 6.044-13.5 13.5-13.5h-39.75c-7.456 0-13.5 6.044-13.5 13.5 0 6.175 4.15 11.37 9.81 12.977 10.328-3.051 20.37-6.768 30.081-11.094-.086-.616-.141-1.243-.141-1.883z" fill="#a05838"/><g><path d="m357.78 259.453h15.868c4.142 0 7.5-3.358 7.5-7.5s-3.358-7.5-7.5-7.5h-15.868c-4.142 0-7.5 3.358-7.5 7.5s3.358 7.5 7.5 7.5z" fill="#b76c4e"/></g><g><path d="m357.78 285.933h15.868c4.142 0 7.5-3.358 7.5-7.5s-3.358-7.5-7.5-7.5h-15.868c-4.142 0-7.5 3.358-7.5 7.5s3.358 7.5 7.5 7.5z" fill="#b76c4e"/></g><g><path d="m357.78 312.413h15.868c4.142 0 7.5-3.358 7.5-7.5s-3.358-7.5-7.5-7.5h-15.868c-4.142 0-7.5 3.358-7.5 7.5s3.358 7.5 7.5 7.5z" fill="#b76c4e"/></g><g><path d="m357.78 338.893h15.868c4.142 0 7.5-3.358 7.5-7.5s-3.358-7.5-7.5-7.5h-15.868c-4.142 0-7.5 3.358-7.5 7.5s3.358 7.5 7.5 7.5z" fill="#b76c4e"/></g><g><path d="m357.78 365.374h15.868c4.142 0 7.5-3.357 7.5-7.5s-3.358-7.5-7.5-7.5h-15.868c-4.142 0-7.5 3.357-7.5 7.5s3.358 7.5 7.5 7.5z" fill="#b76c4e"/></g><g><path d="m422.88 227.663h-93.667c-7.456 0-13.5-6.044-13.5-13.5s6.044-13.5 13.5-13.5h93.667c7.456 0 13.5 6.044 13.5 13.5s-6.044 13.5-13.5 13.5z" fill="#b76c4e"/></g><g><path d="m405.13 159.83h-75.917c-7.456 0-13.5-6.044-13.5-13.5s6.044-13.5 13.5-13.5h75.917c7.456 0 13.5 6.044 13.5 13.5s-6.044 13.5-13.5 13.5z" fill="#b76c4e"/></g><g><path d="m387.38 91.996h-58.167c-7.456 0-13.5-6.044-13.5-13.5s6.044-13.5 13.5-13.5h58.167c7.456 0 13.5 6.044 13.5 13.5s-6.044 13.5-13.5 13.5z" fill="#b76c4e"/></g><g fill="#a05838"><path d="m352.643 214.163c0-7.456 6.044-13.5 13.5-13.5h-36.93c-7.456 0-13.5 6.044-13.5 13.5s6.044 13.5 13.5 13.5h36.93c-7.456 0-13.5-6.044-13.5-13.5z"/><path d="m352.643 146.33c0-7.456 6.044-13.5 13.5-13.5h-36.93c-7.456 0-13.5 6.044-13.5 13.5s6.044 13.5 13.5 13.5h36.93c-7.456 0-13.5-6.044-13.5-13.5z"/><path d="m352.643 78.496c0-7.456 6.044-13.5 13.5-13.5h-36.93c-7.456 0-13.5 6.044-13.5 13.5s6.044 13.5 13.5 13.5h36.93c-7.456 0-13.5-6.044-13.5-13.5z"/><path d="m112.55 214.163c0-7.456 6.044-13.5 13.5-13.5h-36.93c-7.456 0-13.5 6.044-13.5 13.5s6.044 13.5 13.5 13.5h36.93c-7.456 0-13.5-6.044-13.5-13.5z"/><path d="m130.3 146.33c0-7.456 6.044-13.5 13.5-13.5h-36.93c-7.456 0-13.5 6.044-13.5 13.5s6.044 13.5 13.5 13.5h36.93c-7.456 0-13.5-6.044-13.5-13.5z"/><path d="m148.05 78.496c0-7.456 6.044-13.5 13.5-13.5h-36.93c-7.456 0-13.5 6.044-13.5 13.5s6.044 13.5 13.5 13.5h36.93c-7.456 0-13.5-6.044-13.5-13.5z"/></g></g></svg>