<svg id="Layer_1" enable-background="new 0 0 512 512" height="512" viewBox="0 0 512 512" width="512" xmlns="http://www.w3.org/2000/svg"><g><path d="m120.655 471.235c19.557 12.987 41.084 23.239 64.041 30.212h142.608c22.957-6.973 44.484-17.225 64.041-30.212l73.341-75.841c23.021-37.337 36.314-81.311 36.314-128.394 0-135.31-109.69-245-245-245s-245 109.69-245 245c0 47.084 13.293 91.057 36.314 128.395z" fill="#90d8f9"/><path d="m181.486 500.447c23.499 7.494 48.531 11.553 74.514 11.553s51.015-4.059 74.514-11.553v-88.629h-149.028z" fill="#a05838"/><path d="m181.486 500.447c17.707 5.647 36.285 9.341 55.484 10.82v-74.072c-13.837-5.449-6.913-23.269-6.913-23.269l-5.221-2.108h-43.351v88.629z" fill="#90482d"/><g><path d="m256 34.106c-4.228 0-7.656-3.428-7.656-7.656v-18.794c0-4.228 3.428-7.656 7.656-7.656s7.656 3.428 7.656 7.656v18.794c0 4.228-3.428 7.656-7.656 7.656z" fill="#ffdd40"/></g><path d="m230.584 102.688h50.832v27.248h-50.832z" fill="#a05838"/><path d="m256 116.313c0-7.524 6.1-13.624 13.624-13.624h-39.04v27.248h39.04c-7.524 0-13.624-6.1-13.624-13.624z" fill="#90482d"/><path d="m222.877 166.387h66.247v29.091h-66.247z" fill="#a05838"/><path d="m254.771 181.367v-.867c0-7.794 6.318-14.112 14.112-14.112h-46.007v29.091h46.007c-7.794 0-14.112-6.319-14.112-14.112z" fill="#90482d"/><path d="m211.535 242.161h88.93v28.224h-88.93z" fill="#a05838"/><path d="m243.43 256.272c0-7.794 6.318-14.112 14.112-14.112h-46.007v28.224h46.007c-7.794 0-14.112-6.318-14.112-14.112z" fill="#90482d"/><path d="m200.913 322.409h110.174v30.853h-110.174z" fill="#a05838"/><path d="m232.808 339.15v-2.629c0-7.794 6.318-14.112 14.112-14.112h-46.007v30.853h46.007c-7.794 0-14.112-6.318-14.112-14.112z" fill="#90482d"/><g><path d="m305.4 495.618c-4.228 0-7.656-3.427-7.656-7.656v-42.639c0-4.229 3.428-7.656 7.656-7.656s7.656 3.427 7.656 7.656v42.639c0 4.229-3.428 7.656-7.656 7.656z" fill="#b76c4e"/></g><g><path d="m206.6 495.618c-4.228 0-7.656-3.427-7.656-7.656v-42.639c0-4.229 3.428-7.656 7.656-7.656s7.656 3.427 7.656 7.656v42.639c0 4.229-3.428 7.656-7.656 7.656z" fill="#b76c4e"/></g><path d="m466.273 392.785v-27.583h-66.247v29.091h65.347c.305-.499.599-1.005.9-1.508z" fill="#a05838"/><path d="m430.491 379.748c0-8.033 6.512-14.546 14.546-14.546h-45.01v29.091h45.01c-8.033.001-14.546-6.512-14.546-14.545z" fill="#90482d"/><path d="m428.489 440.976h-39.804v32.01c14.372-9.277 27.709-20.018 39.804-32.01z" fill="#90482d"/><path d="m238.555 66.751c4.273-1.263 8.749-1.931 13.31-1.931h8.271c4.56 0 9.037.668 13.309 1.931l3.049-10.221c2.004-6.716.752-13.984-3.383-19.643l-9.234-12.636c-3.897-5.333-11.856-5.333-15.753 0l-9.234 12.636c-4.136 5.659-5.387 12.926-3.384 19.643z" fill="#a05838"/><g><path d="m256.705 58.278c-2.004-6.717-.752-13.984 3.384-19.643l7.15-9.784-3.362-4.601c-3.897-5.333-11.856-5.333-15.753 0l-9.235 12.636c-4.136 5.659-5.388 12.926-3.384 19.643l3.05 10.221c4.273-1.263 8.749-1.931 13.31-1.931h8.271c.508 0 1.014.011 1.519.028-2.316-1.49-4.114-3.767-4.95-6.569z" fill="#90482d"/></g><path d="m158.242 390.3v10.739c0 7.088 5.8 12.887 12.887 12.887h169.742c7.088 0 12.887-5.799 12.887-12.887v-10.739c-28.483 0-167.034 0-195.516 0z" fill="#ffdd40"/><path d="m223.916 402.113c0-6.524 5.289-11.813 11.813-11.813-34.351 0-65.564 0-77.487 0v10.739c0 7.088 5.8 12.887 12.887 12.887h64.6c-6.524.001-11.813-5.288-11.813-11.813z" fill="#ffb332"/><path d="m174.877 303.516v9.482c0 6.258 5.121 11.378 11.378 11.378h139.489c6.258 0 11.378-5.12 11.378-11.378v-9.482c-25.147 0-137.098 0-162.245 0z" fill="#ffdd40"/><path d="m234.539 313.946c0-5.76 4.67-10.43 10.43-10.43-30.364 0-58.87 0-70.091 0v9.482c0 6.258 5.12 11.378 11.378 11.378h58.713c-5.761 0-10.43-4.669-10.43-10.43z" fill="#ffb332"/><path d="m196.868 223.994v8.746c0 5.772 4.723 10.495 10.495 10.495h97.275c5.772 0 10.495-4.723 10.495-10.495v-8.746c-23.196 0-95.071 0-118.265 0z" fill="#ffdd40"/><path d="m196.868 223.994v8.746c0 5.772 4.723 10.495 10.495 10.495h97.275c5.772 0 10.495-4.723 10.495-10.495v-8.746c-23.196 0-95.071 0-118.265 0z" fill="#ffdd40"/><path d="m243.713 233.614c0-5.313 4.307-9.62 9.62-9.62-22.862 0-45.302 0-56.465 0v8.746c0 5.772 4.723 10.495 10.495 10.495h45.97c-5.313-.001-9.62-4.308-9.62-9.621z" fill="#ffb332"/><path d="m209.155 152.37v6.86c0 4.528 3.705 8.232 8.232 8.232h77.226c4.527 0 8.232-3.704 8.232-8.232v-6.86c-18.194 0-75.497 0-93.69 0z" fill="#ffdd40"/><path d="m257.155 159.916c0-4.168 3.378-7.546 7.546-7.546-21.518 0-45.046 0-55.546 0v6.86c0 4.527 3.705 8.232 8.232 8.232h47.314c-4.167-.001-7.546-3.379-7.546-7.546z" fill="#ffb332"/><path d="m220.503 88.671v6.86c0 4.527 3.705 8.232 8.232 8.232h54.53c4.528 0 8.232-3.704 8.232-8.232v-6.86c-18.194 0-52.801 0-70.994 0z" fill="#ffdd40"/><path d="m256 96.217c0-4.168 3.378-7.546 7.546-7.546-15.546 0-32.206 0-43.043 0v6.86c0 4.527 3.705 8.232 8.232 8.232h34.811c-4.168-.001-7.546-3.379-7.546-7.546z" fill="#ffb332"/><path d="m363.608 380.86c-13.877-18.613-35.73-29.579-58.947-29.579-11.765 0-85.478 0-97.322 0-23.217 0-45.07 10.966-58.947 29.579-3.236 4.341-.138 10.514 5.276 10.514h204.663c5.415 0 8.513-6.173 5.277-10.514z" fill="#b76c4e"/><path d="m234.37 351.281c-12.726 0-23.169 0-27.031 0-23.217 0-45.07 10.966-58.947 29.579-3.236 4.341-.138 10.514 5.276 10.514h80.488c-18.54-5.777-19.068-34.585.214-40.093z" fill="#a05838"/><path d="m345.819 295.181c-12.252-16.434-31.547-26.116-52.045-26.116-10.388 0-65.092 0-75.548 0-20.499 0-39.793 9.682-52.045 26.116-2.857 3.832-.122 9.283 4.658 9.283h170.322c4.78.001 7.515-5.45 4.658-9.283z" fill="#b76c4e"/><path d="m249.749 269.066c-14.023 0-26.969 0-31.523 0-20.499 0-39.793 9.682-52.045 26.116-2.857 3.832-.122 9.283 4.659 9.283h78.703c-16.302-5.158-16.755-30.493.206-35.399z" fill="#a05838"/><path d="m323.153 216.306c-11.301-15.158-29.097-24.088-48.004-24.088-9.581 0-28.654 0-38.298 0-18.907 0-36.703 8.93-48.004 24.088-2.635 3.535-.112 8.562 4.297 8.562h125.713c4.409.001 6.932-5.027 4.296-8.562z" fill="#b76c4e"/><path d="m259.968 192.219c-7.481 0-18.083 0-23.117 0-18.907 0-36.703 8.93-48.004 24.088-2.635 3.535-.112 8.562 4.297 8.562h66.316c-17.025-3.39-17.532-29.744.508-32.65z" fill="#a05838"/><path d="m309.137 146.34c-8.864-11.889-22.823-18.894-37.653-18.894-7.515 0-23.402 0-30.967 0-14.83 0-28.789 7.005-37.654 18.894-2.067 2.773-.088 6.716 3.37 6.716h99.533c3.459 0 5.438-3.944 3.371-6.716z" fill="#b76c4e"/><path d="m261.527 127.446c-7.435 0-16.026 0-21.01 0-14.83 0-28.789 7.005-37.654 18.894-2.067 2.773-.088 6.716 3.37 6.716h55.342c-11.787-3.722-12.089-21.992-.048-25.61z" fill="#a05838"/><path d="m297.789 82.641c-8.864-11.89-22.823-18.894-37.653-18.894-7.516 0-.705 0-8.271 0-14.83 0-28.789 7.004-37.653 18.894-2.067 2.773-.088 6.716 3.37 6.716h76.837c3.458 0 5.437-3.944 3.37-6.716z" fill="#b76c4e"/><path d="m264.152 63.938c-1.331-.114-2.668-.192-4.017-.192-7.515 0-.705 0-8.27 0-14.83 0-28.789 7.004-37.654 18.894-2.067 2.773-.088 6.716 3.37 6.716h42.787c-10.643-5.179-9.685-23.495 3.784-25.418z" fill="#a05838"/><path d="m231.761 471.138c0-2.79 1.389-5.397 3.705-6.953l16.12-10.832c2.67-1.794 6.161-1.794 8.831 0l16.119 10.832c2.315 1.556 3.704 4.162 3.704 6.952v-28.732c0-2.877-2.333-5.21-5.21-5.21h-38.059c-2.877 0-5.21 2.333-5.21 5.21v34.459z" fill="#90482d"/><path d="m275.029 437.195h-22.028c3.124 1.622 7.414 5.457 7.414 14.299v1.859l16.119 10.832c2.315 1.556 3.704 4.162 3.704 6.952v-28.732c.001-2.877-2.331-5.21-5.209-5.21z" fill="#7f3822"/><path d="m276.535 462.326-16.119-10.832c-2.67-1.794-6.161-1.794-8.831 0l-16.12 10.832c-2.316 1.556-3.705 4.163-3.705 6.953v41.528c7.975.783 16.06 1.193 24.24 1.193s16.265-.41 24.239-1.193v-41.528c0-2.79-1.388-5.397-3.704-6.953z" fill="#7f3822"/><path d="m276.535 462.326-16.119-10.832v52.654c0 2.286-.431 4.567-1.401 6.637-.187.398-.399.797-.631 1.185 7.367-.072 14.658-.456 21.856-1.163v-41.528c-.001-2.79-1.389-5.397-3.705-6.953z" fill="#6d2b19"/><path d="m374.018 422.81v8.746c0 5.772 4.723 10.495 10.495 10.495h42.876c6.227-6.097 12.141-12.512 17.692-19.24-27.362-.001-57.516-.001-71.063-.001z" fill="#ffdd40"/><path d="m427.254 432.523v-.187c0-5.262 4.265-9.527 9.527-9.527-24.945 0-50.574 0-62.763 0v8.746c0 5.772 4.723 10.495 10.495 10.495h42.877c.918-.899 1.815-1.819 2.719-2.732-1.761-1.729-2.855-4.133-2.855-6.795z" fill="#ffb332"/><path d="m466.322 392.702c-4.546-1.095-9.249-1.669-14.023-1.669-9.581 0-28.654 0-38.298 0-18.907 0-36.703 8.93-48.004 24.088-2.635 3.535-.112 8.562 4.297 8.562h74.049c8.094-9.718 15.447-20.075 21.979-30.981z" fill="#b76c4e"/><path d="m436.239 391.034c-8.139 0-16.727 0-22.239 0-18.907 0-36.703 8.93-48.004 24.088-2.635 3.535-.112 8.562 4.297 8.562h65.719c-15.334-4.546-15.828-28.378.227-32.65z" fill="#a05838"/><path d="m45.727 392.785c.301.502.596 1.009.9 1.508h65.347v-29.091h-66.247z" fill="#a05838"/><path d="m77.393 379.748c0-8.033 6.512-14.546 14.546-14.546h-46.212v27.583c.301.502.595 1.009.9 1.508h45.312c-8.033.001-14.546-6.512-14.546-14.545z" fill="#90482d"/><path d="m123.315 472.986v-32.01h-39.804c12.095 11.992 25.432 22.733 39.804 32.01z" fill="#a05838"/><path d="m84.611 442.05h42.877c5.772 0 10.495-4.723 10.495-10.495v-8.746c-13.548 0-43.701 0-71.063 0 5.55 6.729 11.464 13.144 17.691 19.241z" fill="#ffdd40"/><g><path d="m77.086 432.523v-.187c0-5.262 4.265-9.527 9.527-9.527-6.549 0-13.199 0-19.693 0 3.332 4.039 6.81 7.951 10.394 11.763-.146-.66-.228-1.345-.228-2.049z" fill="#ffb332"/></g><path d="m98 391.034c-9.581 0-28.654 0-38.298 0-4.775 0-9.477.573-14.023 1.669 6.532 10.906 13.885 21.262 21.98 30.982h74.049c4.409 0 6.932-5.028 4.297-8.562-11.302-15.159-29.098-24.089-48.005-24.089z" fill="#b76c4e"/><g><path d="m82.604 391.034c-8.333 0-17.24 0-22.903 0-4.774 0-9.477.573-14.023 1.669 6.532 10.906 13.885 21.262 21.979 30.982h14.769c-14.603-5.053-15.065-27.84.178-32.651z" fill="#a05838"/></g><g><path d="m433.15 232.921c-4.228 0-7.656-3.428-7.656-7.656v-18.794c0-4.228 3.428-7.656 7.656-7.656s7.656 3.428 7.656 7.656v18.794c0 4.228-3.428 7.656-7.656 7.656z" fill="#ffdd40"/></g><path d="m407.734 301.504h50.832v27.248h-50.832z" fill="#a05838"/><path d="m433.15 315.128c0-7.524 6.1-13.624 13.624-13.624h-39.04v27.248h39.04c-7.525 0-13.624-6.1-13.624-13.624z" fill="#90482d"/><path d="m415.705 265.566c4.273-1.263 8.749-1.931 13.31-1.931h8.27c4.56 0 9.037.668 13.309 1.931l3.049-10.221c2.004-6.716.752-13.984-3.383-19.643l-9.234-12.636c-3.897-5.333-11.856-5.333-15.753 0l-9.234 12.636c-4.135 5.659-5.387 12.926-3.384 19.643z" fill="#a05838"/><g><path d="m433.855 257.094c-2.004-6.716-.752-13.984 3.384-19.643l7.15-9.784-3.362-4.601c-3.897-5.333-11.856-5.333-15.753 0l-9.235 12.636c-4.135 5.659-5.388 12.926-3.384 19.643l3.05 10.221c4.273-1.263 8.749-1.931 13.31-1.931h8.271c.508 0 1.014.011 1.519.028-2.317-1.49-4.114-3.767-4.95-6.569z" fill="#90482d"/></g><path d="m386.305 351.185v6.86c0 4.528 3.705 8.232 8.232 8.232h77.226c4.528 0 8.232-3.704 8.232-8.232v-6.86c-18.194 0-75.497 0-93.69 0z" fill="#ffdd40"/><path d="m434.305 358.731c0-4.168 3.378-7.546 7.546-7.546-21.518 0-45.046 0-55.546 0v6.86c0 4.527 3.704 8.232 8.232 8.232h47.314c-4.168 0-7.546-3.379-7.546-7.546z" fill="#ffb332"/><path d="m397.653 287.486v6.86c0 4.527 3.705 8.232 8.232 8.232h54.53c4.527 0 8.232-3.704 8.232-8.232v-6.86c-18.194 0-52.801 0-70.994 0z" fill="#ffdd40"/><path d="m433.15 295.032c0-4.168 3.378-7.546 7.546-7.546-15.546 0-32.206 0-43.043 0v6.86c0 4.527 3.705 8.232 8.232 8.232h34.811c-4.168 0-7.546-3.379-7.546-7.546z" fill="#ffb332"/><path d="m486.286 345.155c-8.864-11.889-22.823-18.894-37.653-18.894-7.516 0-23.402 0-30.967 0-14.83 0-28.789 7.005-37.653 18.894-2.067 2.773-.088 6.716 3.37 6.716h99.533c3.459 0 5.438-3.943 3.37-6.716z" fill="#b76c4e"/><path d="m438.677 326.261c-7.435 0-16.026 0-21.01 0-14.83 0-28.789 7.004-37.654 18.894-2.067 2.773-.088 6.716 3.37 6.716h55.342c-11.788-3.721-12.089-21.992-.048-25.61z" fill="#a05838"/><path d="m474.938 281.456c-8.864-11.889-22.823-18.894-37.653-18.894-7.515 0-.705 0-8.27 0-14.83 0-28.789 7.004-37.653 18.894-2.067 2.773-.088 6.716 3.37 6.716h76.837c3.457 0 5.436-3.944 3.369-6.716z" fill="#b76c4e"/><path d="m441.302 262.754c-1.331-.114-2.668-.192-4.017-.192-7.515 0-.705 0-8.27 0-14.83 0-28.789 7.004-37.654 18.894-2.067 2.773-.088 6.716 3.37 6.716h42.787c-10.644-5.18-9.685-23.496 3.784-25.418z" fill="#a05838"/><g><path d="m78.851 232.921c-4.228 0-7.656-3.428-7.656-7.656v-18.794c0-4.228 3.428-7.656 7.656-7.656s7.656 3.428 7.656 7.656v18.794c0 4.228-3.428 7.656-7.656 7.656z" fill="#ffdd40"/></g><path d="m53.434 301.504h50.832v27.248h-50.832z" fill="#a05838"/><path d="m78.85 315.128c0-7.524 6.1-13.624 13.624-13.624h-39.04v27.248h39.04c-7.524 0-13.624-6.1-13.624-13.624z" fill="#90482d"/><path d="m61.406 265.566c4.273-1.263 8.749-1.931 13.31-1.931h8.271c4.56 0 9.037.668 13.309 1.931l3.049-10.221c2.004-6.716.752-13.984-3.383-19.643l-9.234-12.636c-3.897-5.333-11.856-5.333-15.753 0l-9.234 12.636c-4.136 5.659-5.387 12.926-3.384 19.643z" fill="#a05838"/><g><path d="m79.555 257.094c-2.004-6.716-.752-13.984 3.383-19.643l7.15-9.784-3.362-4.601c-3.897-5.333-11.856-5.333-15.753 0l-9.235 12.636c-4.136 5.659-5.387 12.926-3.383 19.643l3.049 10.221c4.273-1.263 8.749-1.931 13.31-1.931h8.271c.508 0 1.014.011 1.519.028-2.315-1.49-4.113-3.767-4.949-6.569z" fill="#90482d"/></g><path d="m32.005 351.185v6.86c0 4.528 3.705 8.232 8.232 8.232h77.226c4.527 0 8.232-3.704 8.232-8.232v-6.86c-18.193 0-75.497 0-93.69 0z" fill="#ffdd40"/><path d="m80.006 358.731c0-4.168 3.378-7.546 7.546-7.546-21.518 0-45.046 0-55.546 0v6.86c0 4.527 3.705 8.232 8.232 8.232h47.314c-4.168 0-7.546-3.379-7.546-7.546z" fill="#ffb332"/><path d="m43.353 287.486v6.86c0 4.527 3.705 8.232 8.232 8.232h54.53c4.528 0 8.232-3.704 8.232-8.232v-6.86c-18.193 0-52.8 0-70.994 0z" fill="#ffdd40"/><path d="m78.85 295.032c0-4.168 3.378-7.546 7.546-7.546-15.546 0-32.206 0-43.043 0v6.86c0 4.527 3.705 8.232 8.232 8.232h34.811c-4.167 0-7.546-3.379-7.546-7.546z" fill="#ffb332"/><path d="m131.987 345.155c-8.864-11.889-22.823-18.894-37.653-18.894-7.515 0-23.402 0-30.967 0-14.83 0-28.789 7.005-37.653 18.894-2.067 2.773-.088 6.716 3.37 6.716h99.533c3.458 0 5.437-3.943 3.37-6.716z" fill="#b76c4e"/><path d="m84.378 326.261c-7.435 0-16.026 0-21.011 0-14.83 0-28.789 7.004-37.653 18.894-2.067 2.773-.088 6.716 3.37 6.716h55.341c-11.787-3.721-12.088-21.992-.047-25.61z" fill="#a05838"/><path d="m120.639 281.456c-8.864-11.889-22.823-18.894-37.653-18.894-7.516 0-.705 0-8.271 0-14.83 0-28.789 7.004-37.653 18.894-2.067 2.773-.088 6.716 3.37 6.716h76.837c3.458 0 5.437-3.944 3.37-6.716z" fill="#b76c4e"/><path d="m87.002 262.754c-1.331-.114-2.668-.192-4.017-.192-7.515 0-.705 0-8.27 0-14.83 0-28.789 7.004-37.654 18.894-2.067 2.773-.088 6.716 3.37 6.716h42.787c-10.643-5.18-9.685-23.496 3.784-25.418z" fill="#a05838"/><g fill="#b1e4f9"><path d="m487.338 186.179c-10.564-30.238-26.884-57.768-47.653-81.284-9.883 8.189-16.302 20.437-16.613 34.251-.047 2.059-1.634 3.783-3.688 3.926-4.187.291-8.109 1.793-11.372 4.235-1.848 1.384-4.453.819-5.75-1.092-4.604-6.784-12.378-11.241-21.195-11.241-9.576 0-17.924 5.257-22.316 13.043-1.218 2.159-3.972 2.795-5.986 1.351-3.344-2.397-7.446-3.803-11.878-3.79-10.648.033-19.65 8.574-20.209 19.207-.614 11.708 8.698 21.395 20.272 21.395h146.388z"/><path d="m188.383 149.249c-.439-8.37-7.526-15.094-15.908-15.12-3.488-.011-6.718 1.096-9.35 2.983-1.586 1.137-3.754.636-4.712-1.063-3.457-6.129-10.029-10.267-17.567-10.267-6.94 0-13.06 3.509-16.684 8.849-1.021 1.504-3.072 1.949-4.527.859-2.568-1.923-5.656-3.104-8.952-3.334-1.617-.113-2.867-1.47-2.903-3.09-.366-16.249-11.461-29.749-26.364-33.933-20.15 20.466-36.738 44.448-48.735 70.957h139.744c9.111.001 16.441-7.624 15.958-16.841z"/></g></g></svg>