<svg id="Layer_1" enable-background="new 0 0 512 512" height="512" viewBox="0 0 512 512" width="512" xmlns="http://www.w3.org/2000/svg"><g><path d="m499.119 297.437c1.237-9.973 1.881-20.13 1.881-30.437 0-135.31-109.69-245-245-245s-245 109.69-245 245c0 10.307.645 20.463 1.881 30.435z" fill="#1e2f59"/><path d="m118.111 469.529c39.28 26.795 86.752 42.471 137.889 42.471s98.608-15.676 137.889-42.471z" fill="#a05838"/><path d="m185.716 501.755c-8.943-13.705-2.544-24.308 1.076-28.634.851-1.017 1.08-2.464.522-3.592h-69.204c20.515 13.994 43.268 24.947 67.606 32.226z" fill="#90482d"/><path d="m67.42 220.792h377.16v27.827h-377.16z" fill="#3c5082"/><path d="m70.91 291.016c10.282 0 10.282 6.278 20.564 6.278 10.281 0 10.281-6.278 20.562-6.278s10.281 6.278 20.562 6.278 10.281-6.278 20.562-6.278 10.281 6.278 20.563 6.278 10.282-6.278 20.563-6.278c10.283 0 10.283 6.278 20.565 6.278s10.282-6.278 20.564-6.278 10.282 6.278 20.564 6.278 10.282-6.278 20.564-6.278c10.28 0 10.28 6.278 20.56 6.278 10.281 0 10.281-6.278 20.563-6.278 10.283 0 10.283 6.278 20.566 6.278 10.281 0 10.281-6.278 20.562-6.278 10.282 0 10.282 6.278 20.565 6.278 10.282 0 10.282-6.278 20.565-6.278s10.283 6.278 20.567 6.278 10.284-6.278 20.567-6.278c1.333 0 2.49.107 3.522.291v-42.687h-377.16v42.681c1.024-.18 2.171-.285 3.49-.285z" fill="#38c674"/><path d="m67.42 248.62v41.373c0-9.409 7.627-17.036 17.036-17.036h343.088c9.409 0 17.036 7.627 17.036 17.036v-41.373z" fill="#21b75d"/><path d="m113.976 110.71h284.047v49.672h-284.047z" fill="#3c5082"/><path d="m113.976 110.71v39.362c0-8.023 6.504-14.526 14.526-14.526h254.994c8.022 0 14.526 6.504 14.526 14.526v-39.362z" fill="#2d3c6b"/><g fill="#ff4155"><path d="m398.023 160.382h23.671v-49.672h-23.671z"/><path d="m90.306 160.382h23.671v-49.672h-23.671z"/><path d="m151.849 160.382h23.671v-49.672h-23.671z"/><path d="m213.393 160.382h23.671v-49.672h-23.671z"/><path d="m274.936 160.382h23.671v-49.672h-23.671z"/><path d="m336.48 160.382h23.671v-49.672h-23.671z"/></g><path d="m398.023 160.382h23.671v-16.189c0-4.776-3.872-8.647-8.647-8.647h-6.376c-4.776 0-8.647 3.872-8.647 8.647v16.189z" fill="#ff7186"/><path d="m90.306 160.382h23.671v-16.189c0-4.776-3.872-8.647-8.647-8.647h-6.376c-4.776 0-8.647 3.872-8.647 8.647v16.189z" fill="#ff7186"/><path d="m151.849 160.382h23.671v-16.189c0-4.776-3.872-8.647-8.647-8.647h-6.376c-4.776 0-8.647 3.872-8.647 8.647v16.189z" fill="#ff7186"/><path d="m213.393 160.382h23.671v-16.189c0-4.776-3.872-8.647-8.647-8.647h-6.376c-4.776 0-8.647 3.872-8.647 8.647v16.189z" fill="#ff7186"/><path d="m274.936 160.382h23.671v-16.189c0-4.776-3.872-8.647-8.647-8.647h-6.376c-4.776 0-8.647 3.872-8.647 8.647v16.189z" fill="#ff7186"/><path d="m336.48 160.382h23.671v-16.189c0-4.776-3.872-8.647-8.647-8.647h-6.376c-4.776 0-8.647 3.872-8.647 8.647v16.189z" fill="#ff7186"/><path d="m461.625 297.294c2.855 0 4.916-.485 6.626-1.184v-75.318h-23.671v70.514c6.931 1.233 8.094 5.988 17.045 5.988z" fill="#ff4155"/><path d="m50.348 297.294c8.962 0 10.114-4.769 17.072-5.993v-70.508h-23.671v75.328c1.704.693 3.758 1.173 6.599 1.173z" fill="#ff4155"/><path d="m132.598 297.294c7.986 0 9.771-3.787 14.988-5.478v-71.024h-23.67v74.31c2.13 1.197 4.592 2.192 8.682 2.192z" fill="#ff4155"/><path d="m214.851 297.294c6.825 0 9.122-2.766 12.901-4.625v-71.876h-23.671v73.066c2.744 1.661 5.305 3.435 10.77 3.435z" fill="#ff4155"/><path d="m297.103 297.294c5.496 0 8.054-1.794 10.815-3.463v-73.038h-23.671v71.897c3.754 1.859 6.058 4.604 12.856 4.604z" fill="#ff4155"/><path d="m379.358 297.294c4.118 0 6.585-1.008 8.726-2.215v-74.287h-23.671v71.039c5.183 1.699 6.981 5.463 14.945 5.463z" fill="#ff4155"/><path d="m461.625 320.121c2.855 0 4.916-.485 6.626-1.184v-63.483c0-6.536-5.299-11.835-11.835-11.835h-.001c-6.536 0-11.835 5.299-11.835 11.835v58.679c6.931 1.234 8.094 5.988 17.045 5.988z" fill="#ff7186"/><path d="m50.348 320.121c8.962 0 10.114-4.769 17.072-5.993v-58.673c0-6.536-5.299-11.835-11.835-11.835-6.536 0-11.835 5.299-11.835 11.835v63.492c1.703.694 3.757 1.174 6.598 1.174z" fill="#ff7186"/><path d="m132.598 320.121c7.986 0 9.771-3.787 14.988-5.478v-59.189c0-6.536-5.299-11.835-11.835-11.835-6.536 0-11.835 5.299-11.835 11.835v62.475c2.13 1.197 4.592 2.192 8.682 2.192z" fill="#ff7186"/><path d="m214.851 320.121c6.825 0 9.122-2.766 12.901-4.625v-60.041c0-6.536-5.299-11.835-11.835-11.835-6.536 0-11.835 5.299-11.835 11.835v61.231c2.743 1.661 5.304 3.435 10.769 3.435z" fill="#ff7186"/><path d="m297.103 320.121c5.496 0 8.054-1.794 10.815-3.463v-61.203c0-6.536-5.299-11.835-11.835-11.835-6.536 0-11.835 5.299-11.835 11.835v60.062c3.753 1.859 6.057 4.604 12.855 4.604z" fill="#ff7186"/><path d="m379.358 320.121c4.118 0 6.585-1.008 8.726-2.215v-62.452c0-6.536-5.299-11.835-11.835-11.835-6.536 0-11.835 5.299-11.835 11.835v59.204c5.182 1.699 6.98 5.463 14.944 5.463z" fill="#ff7186"/><path d="m15.504 313.905h480.992c1.145-5.907 2.079-11.889 2.792-17.939-6.974-1.22-8.121-5.996-17.094-5.996-10.284 0-10.284 6.278-20.568 6.278-10.283 0-10.283-6.278-20.567-6.278-10.283 0-10.283 6.278-20.567 6.278s-10.284-6.278-20.567-6.278-10.283 6.278-20.565 6.278c-10.283 0-10.283-6.278-20.565-6.278-10.281 0-10.281 6.278-20.562 6.278-10.283 0-10.283-6.278-20.566-6.278-10.281 0-10.281 6.278-20.563 6.278-10.28 0-10.28-6.278-20.56-6.278-10.282 0-10.282 6.278-20.564 6.278s-10.282-6.278-20.565-6.278c-10.282 0-10.282 6.278-20.563 6.278-10.283 0-10.283-6.278-20.565-6.278s-10.282 6.278-20.563 6.278-10.281-6.278-20.562-6.278-10.281 6.278-20.562 6.278-10.281-6.278-20.562-6.278-10.281 6.278-20.562 6.278c-10.282 0-10.282-6.278-20.564-6.278-10.281 0-10.281 6.278-20.562 6.278-10.28 0-10.28-6.278-20.56-6.278-8.964 0-10.114 4.771-17.075 5.994.71 6.051 1.643 12.033 2.789 17.941z" fill="#ffdd40"/><path d="m162.619 292.611c-2.324-1.387-4.864-2.641-9.459-2.641-10.281 0-10.281 6.278-20.562 6.278s-10.281-6.278-20.562-6.278-10.281 6.278-20.562 6.278c-10.282 0-10.282-6.278-20.564-6.278-10.281 0-10.281 6.278-20.562 6.278-10.28 0-10.28-6.278-20.56-6.278-8.964 0-10.114 4.771-17.075 5.994.713 6.051 1.646 12.033 2.792 17.941h147.115c-9.744-9.743-.001-21.294-.001-21.294z" fill="#ffb332"/><path d="m20.761 335.641c13.036 44.751 38.493 84.203 72.393 114.386h325.692c33.9-30.183 59.357-69.635 72.393-114.386z" fill="#ff4155"/><path d="m93.154 450.027h60.448v-80.407c-12.328-22.108 9.018-33.979 9.018-33.979h-141.859c13.036 44.751 38.493 84.203 72.393 114.386z" fill="#e80054"/><path d="m295.41 450.027h-78.944v-48.38c0-21.8 17.672-39.472 39.472-39.472 21.8 0 39.472 17.672 39.472 39.472z" fill="#e80054"/><path d="m255.938 362.176c-6.055 0-11.789 1.367-16.917 3.804 13.334 6.336 22.555 19.923 22.555 35.668v48.38h33.835v-48.38c-.001-21.8-17.673-39.472-39.473-39.472z" fill="#cc0053"/><path d="m398.35 450.027h-67.669v-39.527c0-18.686 15.148-33.835 33.835-33.835 18.686 0 33.835 15.148 33.835 33.835v39.527z" fill="#e80054"/><path d="m364.516 376.665c-6.165 0-11.94 1.657-16.917 4.538 10.11 5.851 16.917 16.775 16.917 29.297v39.527h33.835v-39.527c-.001-18.686-15.149-33.835-33.835-33.835z" fill="#cc0053"/><path d="m181.318 450.027h-67.669v-39.527c0-18.686 15.148-33.835 33.835-33.835 18.686 0 33.835 15.148 33.835 33.835v39.527z" fill="#e80054"/><path d="m147.484 376.665c-6.165 0-11.939 1.657-16.917 4.538 10.11 5.851 16.917 16.775 16.917 29.297v39.527h33.835v-39.527c-.001-18.686-15.149-33.835-33.835-33.835z" fill="#cc0053"/><path d="m20.831 335.877h470.338c2.103-7.193 3.883-14.523 5.327-21.973h-480.992c1.444 7.451 3.224 14.781 5.327 21.973z" fill="#ff7186"/><path d="m162.619 313.905h-147.115c1.445 7.45 3.224 14.78 5.327 21.973h141.393c.246-.152.395-.237.395-.237-12.208-12.208 0-21.736 0-21.736z" fill="#ff4155"/><path d="m431.96 221.999h26.809v-23.265c-9.002-3.599-18.134-8.708-26.809-15.863z" fill="#ffb332"/><path d="m289.937 221.999h26.809v-44.59h-26.809z" fill="#ffb332"/><path d="m337.278 221.999h26.809v-44.59h-26.809z" fill="#ffb332"/><path d="m242.595 221.999h26.81v-44.59h-26.81z" fill="#ffb332"/><path d="m384.619 221.999h26.81v-44.59h-26.81z" fill="#ffb332"/><path d="m100.572 221.999h26.809v-44.59h-26.809z" fill="#ffa219"/><path d="m195.254 221.999h26.81v-44.59h-26.81z" fill="#ffb332"/><path d="m53.231 221.999h26.809v-39.128c-8.675 7.155-17.807 12.264-26.809 15.863z" fill="#ffa219"/><path d="m147.913 221.999h26.81v-44.59h-26.81z" fill="#ffa219"/><path d="m409.859 177.409v44.59h23.67v-37.86c-2.605-2.062-5.174-4.293-7.687-6.73z" fill="#ffa219"/><path d="m362.518 221.999h23.671v-44.59h-23.671z" fill="#ffa219"/><path d="m457.2 221.999h6.844c14.767 0 28.77-8.479 36.912-14.559.42-.314.725-.69.943-1.094-.893.248-1.829.389-2.798.389-.092 0-.184-.001-.276-.003-11.755-.305-26.553-2.333-41.624-8.644v23.911z" fill="#ffa219"/><path d="m315.176 221.999h23.671v-44.59h-23.671z" fill="#ffa219"/><path d="m11.044 207.44c8.142 6.08 22.145 14.559 36.912 14.559h6.844v-23.911c-15.072 6.311-29.87 8.339-41.625 8.644-.092.002-.185.003-.276.003-.969 0-1.905-.141-2.797-.389.217.405.523.781.942 1.094z" fill="#ff9100"/><path d="m125.812 221.999h23.671v-44.59h-23.671z" fill="#ff9100"/><path d="m78.471 184.139v37.86h23.671v-44.59h-15.985c-2.513 2.437-5.082 4.668-7.686 6.73z" fill="#ff9100"/><path d="m220.494 221.999h23.671v-44.59h-23.671z" fill="#ffa219"/><path d="m173.153 221.999h23.671v-44.59h-23.671z" fill="#ff9100"/><path d="m267.835 221.999h23.671v-44.59h-23.671z" fill="#ffa219"/><path d="m195.254 113.295h26.81v-59.989h-26.81z" fill="#ffb332"/><path d="m289.937 53.306v59.989h26.809v-59.989z" fill="#ffb332"/><path d="m384.619 113.295h26.81v-24.904c-9.038-2.393-18.142-5.69-26.81-10.164z" fill="#ffb332"/><path d="m100.572 88.376v24.92h26.809v-35.067c-8.667 4.472-17.771 7.755-26.809 10.147z" fill="#ffa219"/><path d="m242.595 113.295h26.81v-59.989h-26.81z" fill="#ffb332"/><path d="m147.913 113.295h26.81v-59.989h-14.66c-.986 0-1.934.458-2.602 1.255-2.978 3.561-6.18 6.799-9.548 9.766z" fill="#ffa219"/><path d="m44.837 98.338c10.521 7.404 22.587 12.189 35.203 14.061v-19.94c-12.065 1.666-23.219 2.032-32.054 1.902-2.01-.031-3.872-.635-5.451-1.643-.371 2.001.286 4.202 2.302 5.62z" fill="#ffa219"/><path d="m337.278 113.295h26.809v-48.974c-3.367-2.966-6.571-6.2-9.548-9.76-.667-.797-1.615-1.255-2.601-1.255h-14.66z" fill="#ffb332"/><path d="m431.96 112.399c12.616-1.872 24.682-6.658 35.203-14.061 2.016-1.418 2.673-3.619 2.302-5.619-1.579 1.007-3.441 1.612-5.451 1.643-1.087.016-2.214.025-3.369.025-8.226 0-18.106-.463-28.685-1.924z" fill="#ffb332"/><path d="m315.176 53.306v59.989h23.671v-59.989z" fill="#ffa219"/><path d="m362.518 113.295h23.671v-34.258c-8.432-4.188-16.472-9.481-23.671-16.124z" fill="#ffa219"/><path d="m409.859 113.295h10.057c4.584 0 9.135-.397 13.613-1.15v-19.474c-7.618-.988-15.625-2.493-23.67-4.714z" fill="#ffa219"/><path d="m457.2 104.326c3.442-1.755 6.776-3.746 9.963-5.989 2.016-1.418 2.673-3.619 2.302-5.619-1.579 1.007-3.441 1.612-5.451 1.643-1.087.016-2.214.025-3.369.025-1.116 0-2.271-.012-3.445-.03z" fill="#ffa219"/><path d="m44.837 98.338c3.187 2.242 6.52 4.234 9.963 5.989v-9.974c-2.389.038-4.676.04-6.814.009-2.01-.031-3.872-.635-5.451-1.643-.371 2 .286 4.201 2.302 5.619z" fill="#ff9100"/><path d="m125.812 79.019v34.277h23.671v-50.392c-7.199 6.643-15.24 11.927-23.671 16.115z" fill="#ff9100"/><path d="m267.835 113.295h23.671v-59.989h-23.671z" fill="#ffa219"/><path d="m78.471 112.145c4.478.753 9.029 1.15 13.613 1.15h10.057v-25.332c-8.046 2.22-16.052 3.712-23.671 4.7v19.482z" fill="#ff9100"/><path d="m220.494 113.295h23.671v-59.989h-23.671z" fill="#ffa219"/><path d="m173.153 113.295h23.671v-59.989h-23.671z" fill="#ff9100"/><g><path d="m160.028 44.459c-12.258 0-22.229-9.972-22.229-22.229 0-12.258 9.972-22.23 22.229-22.23 5.778 0 10.463 4.685 10.463 10.463s-4.685 10.463-10.463 10.463c-.718 0-1.303.585-1.303 1.304 0 .718.585 1.303 1.303 1.303 5.778 0 10.463 4.685 10.463 10.463.001 5.779-4.684 10.463-10.463 10.463z" fill="#fcea9d"/></g><g><path d="m351.971 44.459c-5.778 0-10.463-4.685-10.463-10.463s4.685-10.463 10.463-10.463c.718 0 1.303-.584 1.303-1.303s-.585-1.304-1.303-1.304c-5.778 0-10.463-4.685-10.463-10.463s4.685-10.463 10.463-10.463c12.258 0 22.229 9.973 22.229 22.23.001 12.258-9.971 22.229-22.229 22.229z" fill="#fcea9d"/></g><g><path d="m499.1 207.782c-.092 0-.184-.001-.276-.003-20.054-.52-48.963-6.036-72.982-29.324h-339.685c-24.018 23.288-52.928 28.803-72.982 29.324-.092.002-.185.003-.276.003-5.654.001-10.307-4.507-10.455-10.192-.149-5.776 4.412-10.581 10.189-10.731 16.381-.424 39.94-4.867 59.155-23.62 3.773-3.683 8.731-5.71 13.964-5.71h340.493c5.233 0 10.192 2.027 13.965 5.71 19.215 18.753 42.775 23.196 59.155 23.62 5.777.15 10.339 4.955 10.189 10.731-.147 5.683-4.801 10.192-10.454 10.192z" fill="#ffdd40"/></g><g><path d="m460.645 96.479c-28.695 0-77.472-5.576-106.106-39.826-.667-.797-1.615-1.255-2.602-1.255h-191.875c-.986 0-1.934.458-2.602 1.255-29.787 35.628-81.364 40.214-109.475 39.8-5.778-.088-10.391-4.843-10.303-10.622.089-5.777 4.806-10.37 10.622-10.303 24.367.353 68.882-3.329 93.101-32.298 4.654-5.567 11.454-8.759 18.656-8.759h191.875c7.202 0 14.002 3.192 18.656 8.759 24.22 28.969 68.748 32.659 93.101 32.298.054-.001.108-.001.163-.001 5.705 0 10.371 4.58 10.459 10.304.088 5.778-4.525 10.534-10.303 10.622-1.085.017-2.212.026-3.367.026z" fill="#ffdd40"/></g><path d="m188.819 450.027v-39.527c0-22.792-18.543-41.335-41.335-41.335s-41.334 18.543-41.334 41.335v39.527h15v-39.527c0-14.522 11.813-26.335 26.334-26.335s26.335 11.813 26.335 26.335v39.527z" fill="#ff7186"/><path d="m405.851 450.027v-39.527c0-22.792-18.543-41.335-41.335-41.335s-41.335 18.543-41.335 41.335v39.527h15v-39.527c0-14.522 11.814-26.335 26.335-26.335s26.335 11.813 26.335 26.335v39.527z" fill="#ff7186"/><path d="m302.91 450.027v-48.38c0-25.9-21.072-46.972-46.973-46.972s-46.972 21.071-46.972 46.972v48.38h15v-48.38c0-17.629 14.343-31.972 31.972-31.972 17.63 0 31.973 14.343 31.973 31.972v48.38z" fill="#ff7186"/><path d="m120.298 471h271.405c9.961-6.639 19.41-13.985 28.271-21.973h-327.947c8.861 7.988 18.309 15.334 28.271 21.973z" fill="#b76c4e"/><path d="m188.818 449.027h-96.791c8.861 7.987 18.31 15.333 28.271 21.973h67.322c.037-.804-.212-1.601-.807-2.196-10.408-10.408 2.005-19.777 2.005-19.777z" fill="#a05838"/><path d="m196.824 34.472h-36.762c-7.202 0-14.002 3.192-18.656 8.759-24.22 28.969-68.734 32.651-93.101 32.298-5.816-.067-10.533 4.526-10.622 10.303-.088 5.778 4.524 10.534 10.303 10.622 28.111.414 79.687-4.172 109.475-39.8.667-.797 1.615-1.255 2.602-1.255h36.762c-11.812-11.811-.001-20.927-.001-20.927z" fill="#ffc839"/><path d="m196.824 157.529h-111.071c-5.233 0-10.191 2.027-13.964 5.71-19.215 18.753-42.775 23.196-59.155 23.62-5.777.15-10.338 4.955-10.189 10.731.148 5.685 4.801 10.193 10.455 10.192.091 0 .184-.001.276-.003 20.054-.52 48.964-6.036 72.982-29.324h110.666c-14.041-10.186 0-20.926 0-20.926z" fill="#ffc839"/></g></svg>