<svg id="Layer_1" enable-background="new 0 0 512 512" height="512" viewBox="0 0 512 512" width="512" xmlns="http://www.w3.org/2000/svg"><g><path d="m87.673 445.007h336.655c47.211-44.66 76.672-107.89 76.672-178.007 0-135.31-109.69-245-245-245s-245 109.69-245 245c0 70.117 29.461 133.347 76.673 178.007z" fill="#38c674"/><path d="m11 267c0 70.117 29.461 133.348 76.673 178.007h336.655c47.211-44.66 76.672-107.89 76.672-178.007 0-27.674-4.594-54.274-13.051-79.085-17.747-7.314-38.963.993-46.578 19.217-1.388 3.321-5.247 4.703-8.529 3.224-8.755-3.945-18.778-4.214-27.772-.679-3.511 1.38-7.386-.671-8.385-4.309-5.72-20.818-29.208-31.898-48.941-23.108-3.392 1.511-7.379-.151-8.58-3.666-7.595-22.237-35.211-31.204-54.44-17.52-2.952 2.101-6.976 1.441-9.05-1.53-10.129-14.511-29.579-19.386-45.34-11.456-3.231 1.626-7.252.127-8.645-3.212-9.497-22.771-39.778-29.09-57.583-12.027-2.617 2.508-6.785 2.523-9.181-.197-10.689-12.132-28.451-15.632-42.984-8.261-3.104 1.574-6.981.233-8.434-2.93-5.207-11.33-15.855-18.832-27.677-20.465-40.24 43.651-64.83 101.952-64.83 166.004z" fill="#21b75d"/><path d="m474.717 306.644c-1.67 3.159-5.542 4.433-8.673 2.714-18.361-10.085-41.989-1.931-50.118 17.523-1.388 3.321-5.247 4.703-8.529 3.224-8.755-3.945-18.778-4.214-27.772-.679-3.511 1.38-7.386-.671-8.385-4.309-5.721-20.818-29.208-31.898-48.941-23.108-3.393 1.511-7.379-.151-8.58-3.666-7.595-22.237-35.211-31.204-54.44-17.519-2.952 2.101-6.976 1.441-9.05-1.53-10.129-14.511-29.579-19.386-45.34-11.456-3.231 1.626-7.252.126-8.645-3.211-9.497-22.771-39.778-29.09-57.583-12.027-2.617 2.508-6.785 2.523-9.181-.197-10.689-12.132-28.451-15.632-42.984-8.261-3.104 1.574-6.981.233-8.434-2.93-6.795-14.785-22.853-23.064-38.7-20.269-3.596.634-7.053-1.906-7.373-5.543-.736-8.381-4.415-15.838-9.896-21.498-7.206 23.084-11.093 47.637-11.093 73.098 0 70.117 29.461 133.348 76.673 178.007h336.655c42.292-40.007 70.322-94.921 75.708-156.334-10.25 1.666-19.834 7.593-25.319 17.971z" fill="#49d88b"/><path d="m263.632 125.216h27.1c.368 0 .732.023 1.093.056l-46.196-116.98c-2.656-6.727-10.263-10.029-16.997-7.373-6.729 2.658-10.03 10.267-7.373 16.997z" fill="#a05838"/><path d="m228.096 35.228 35.536 89.988h27.1c.368 0 .732.023 1.093.056l-39.621-100.331s-6.321 15.621-24.108 10.287z" fill="#7f3822"/><path d="m221.268 125.216h27.1l42.373-107.299c2.657-6.73-.643-14.339-7.373-16.997-6.73-2.657-14.339.643-16.997 7.373l-46.196 116.98c.361-.035.725-.057 1.093-.057z" fill="#b76c4e"/><path d="m254.059 412.549c0 38.792-18.964 73.149-48.122 94.324 16.163 3.356 32.906 5.127 50.063 5.127v-105.728h-1.941z" fill="#1e2f59"/><path d="m254.059 412.549c0 28.879-10.516 55.296-27.918 75.65v.861s11.124 3.456 12.728 22.33c5.661.393 11.371.61 17.131.61v-105.728l-1.941.408z" fill="#152649"/><path d="m256 161.406v-38.131h-34.732c-4.824 0-9.158 2.948-10.93 7.435l-12.122 30.697h57.784z" fill="#e8d0b1"/><path d="m178.999 210.068-69.805 176.765h146.806v-176.765z" fill="#f1e0c7"/><path d="m86.615 444.007c32.871 31.464 74.489 53.858 120.84 63.175 29.398-21.149 48.545-55.653 48.545-94.633v-1.456h-156.387z" fill="#3c5082"/><path d="m148.79 412.549c-5.133 0-9.294 4.161-9.294 9.293v60.734c20.993 11.369 43.836 19.756 67.959 24.605 29.398-21.148 48.545-55.652 48.545-94.632z" fill="#2d3c6b"/><path d="m148.79 412.549c-5.133 0-9.294 4.161-9.294 9.293v60.734c20.993 11.369 43.836 19.756 67.959 24.605 29.398-21.148 48.545-55.652 48.545-94.632z" fill="#2d3c6b"/><path d="m313.784 161.406-12.122-30.697c-1.772-4.487-6.106-7.435-10.93-7.435h-34.732v38.131h57.784z" fill="#f1e0c7"/><path d="m256 210.068v176.765h146.806l-69.805-176.765z" fill="#f9efdc"/><path d="m256 512c65.716 0 125.386-25.877 169.385-67.993l-12.998-32.914h-156.387z" fill="#3c5082"/><g><path d="m277.304 90.769h-42.772c-4.02 0-7.278-3.259-7.278-7.278s3.259-7.278 7.278-7.278h42.772c4.02 0 7.278 3.258 7.278 7.278s-3.259 7.278-7.278 7.278z" fill="#f9efdc"/></g><path d="m249.253 83.491c0-4.02 3.259-7.278 7.278-7.278h-22c-4.02 0-7.278 3.258-7.278 7.278s3.259 7.278 7.278 7.278h22c-4.019 0-7.278-3.259-7.278-7.278z" fill="#f1e0c7"/><path d="m256 187.607h-68.131l-9.145 23.158 16.233 12.618c1.282.997 3.078.997 4.361 0l15.257-11.86c1.282-.997 3.077-.997 4.36 0l15.26 11.86c1.282.997 3.078.997 4.36 0l15.26-11.86c.643-.5 1.415-.749 2.187-.747v-23.169z" fill="#e8d0b1"/><path d="m256 210.777c.767.001 1.534.25 2.173.747l15.26 11.86c1.282.997 3.077.997 4.36 0l15.261-11.861c1.282-.997 3.077-.997 4.36 0l15.263 11.861c1.283.997 3.077.997 4.36 0l16.239-12.619-9.146-23.158h-68.13z" fill="#f1e0c7"/><path d="m155.581 339.937c19.397 0 35.122-15.724 35.122-35.122 0-19.397-15.725-35.122-35.122-35.122-.044 0-.086.003-.13.003l-23.958 60.667c6.29 5.931 14.761 9.574 24.088 9.574zm0-47.546c6.862 0 12.424 5.563 12.424 12.424 0 6.862-5.563 12.424-12.424 12.424-6.862 0-12.424-5.563-12.424-12.424 0-6.862 5.562-12.424 12.424-12.424z" fill="#ffc839"/><path d="m356.419 339.937c9.327 0 17.798-3.643 24.087-9.574l-23.957-60.667c-.043 0-.086-.003-.13-.003-19.397 0-35.122 15.725-35.122 35.122s15.725 35.122 35.122 35.122zm0-47.546c6.862 0 12.425 5.563 12.425 12.424 0 6.862-5.563 12.424-12.425 12.424-6.861 0-12.424-5.563-12.424-12.424 0-6.862 5.563-12.424 12.424-12.424z" fill="#90d8f9"/><path d="m318.453 257.924c0 6.5-5.269 11.769-11.769 11.769s-11.769-5.269-11.769-11.769 5.269-11.769 11.769-11.769 11.769 5.269 11.769 11.769z" fill="#ffc839"/><path d="m217.084 257.924c0 6.5-5.269 11.769-11.769 11.769s-11.769-5.269-11.769-11.769 5.269-11.769 11.769-11.769 11.769 5.269 11.769 11.769z" fill="#90d8f9"/><g><path d="m273.685 77.669h-35.205c-4.02 0-7.278-3.259-7.278-7.278s3.259-7.278 7.278-7.278h35.205c4.02 0 7.278 3.258 7.278 7.278s-3.259 7.278-7.278 7.278z" fill="#f1e0c7"/></g><path d="m253.202 70.39c0-4.02 3.259-7.278 7.278-7.278h-22c-4.02 0-7.278 3.258-7.278 7.278s3.259 7.278 7.278 7.278h22c-4.019.001-7.278-3.258-7.278-7.278z" fill="#e8d0b1"/><g><path d="m277.304 64.568h-42.772c-4.02 0-7.278-3.258-7.278-7.278s3.259-7.278 7.278-7.278h42.772c4.02 0 7.278 3.259 7.278 7.278 0 4.02-3.259 7.278-7.278 7.278z" fill="#f9efdc"/></g><path d="m249.253 57.29c0-4.02 3.259-7.278 7.278-7.278h-22c-4.02 0-7.278 3.259-7.278 7.278s3.259 7.278 7.278 7.278h22c-4.019 0-7.278-3.258-7.278-7.278z" fill="#f1e0c7"/><path d="m187.869 187.607h68.131v-27.171h-57.401z" fill="#ff7186"/><path d="m256 187.607h68.131l-10.73-27.171h-57.401z" fill="#ff7186"/><path d="m222.053 160.436-17.015 27.171h34.03z" fill="#ff4155"/><path d="m187.869 187.607h17.169l-10.529-16.814z" fill="#ff4155"/><path d="m256.083 160.436-17.015 27.171h34.03z" fill="#ff4155"/><path d="m290.112 160.436-17.014 27.171h34.029z" fill="#ff4155"/><path d="m307.116 187.607h17.015l-6.58-16.663z" fill="#ff4155"/><path d="m109.768 385.378-10.73 27.171h156.962v-27.171z" fill="#ff7186"/><path d="m256 412.549h156.962l-10.73-27.171h-146.232z" fill="#ff7186"/><g fill="#ff4155"><path d="m222.053 385.378-17.015 27.171h34.03z"/><path d="m256.083 385.378-17.015 27.171h34.03z"/><path d="m290.112 385.378-17.014 27.171h34.029z"/><path d="m324.142 385.378-17.015 27.171h34.03z"/><path d="m358.172 385.378-17.015 27.171h34.03z"/><path d="m392.202 385.378-17.015 27.171h34.03z"/><path d="m119.964 385.378-17.015 27.171h34.03z"/><path d="m153.994 385.378-17.015 27.171h34.029z"/><path d="m188.023 385.378-17.015 27.171h34.03z"/></g><path d="m256 269.693c-.326 0-.647.016-.97.025v22.722c.321-.025.643-.049.97-.049 6.862 0 12.424 5.563 12.424 12.424s-5.563 12.424-12.424 12.424c-.328 0-.649-.024-.97-.049v22.722c.323.009.645.025.97.025 19.397 0 35.122-15.724 35.122-35.122s-15.725-35.122-35.122-35.122z" fill="#ff7186"/><path d="m220.878 304.815c0 19.397 15.725 35.122 35.122 35.122v-22.697c-6.862 0-12.424-5.563-12.424-12.424s5.562-12.426 12.424-12.426v-22.697c-19.397 0-35.122 15.725-35.122 35.122z" fill="#ff4155"/></g></svg>