<svg id="Layer_1" enable-background="new 0 0 512 512" height="512" viewBox="0 0 512 512" width="512" xmlns="http://www.w3.org/2000/svg"><g><path d="m253.755 383.899c110.31 0 230.403-45.535 237.484-48.257 6.345-21.782 9.761-44.812 9.761-68.642 0-135.31-109.69-245-245-245s-245 109.69-245 245c0 8.523.438 16.943 1.287 25.241 3.994 2.845 129.581 91.658 241.468 91.658z" fill="#90d8f9"/><path d="m38.659 256.867-26.472 34.302c1.249 12.755 3.47 25.225 6.6 37.331l30.478-75.57h-2.595c-3.136 0-6.095 1.454-8.011 3.937z" fill="#f2bc51"/><path d="m57.205 410.203 60.151-77.941-62.513-76.683c-1.367-1.676-3.415-2.649-5.577-2.649-2.966 0-5.629 1.821-6.705 4.585l-25.266 64.897c7.432 32.15 21.204 61.869 39.91 87.791z" fill="#fee886"/><path d="m42.67 354.379c-3.566 3.566-8.425 5.557-13.456 5.426 7.363 17.964 16.783 34.867 27.991 50.399l60.151-77.941-43.773-53.695c0 .001 10.45 34.448-12.05 56.948z" fill="#f9d778"/><ellipse cx="380.5" cy="103.61" fill="#ffdd40" rx="60.019" ry="60.019" transform="matrix(.354 -.935 .935 .354 148.987 422.855)"/><ellipse cx="391.081" cy="90.462" fill="#fcea9d" rx="30.01" ry="30.01" transform="matrix(.39 -.921 .921 .39 155.337 415.351)"/><g><path d="m380.5 26.074c-4.035 0-7.306-3.271-7.306-7.306v-11.462c0-4.035 3.271-7.306 7.306-7.306s7.306 3.271 7.306 7.306v11.461c0 4.036-3.271 7.307-7.306 7.307z" fill="#ffdd40"/></g><g><path d="m380.5 207.221c-4.035 0-7.306-3.271-7.306-7.306v-11.461c0-4.035 3.271-7.306 7.306-7.306s7.306 3.271 7.306 7.306v11.461c0 4.035-3.271 7.306-7.306 7.306z" fill="#ffdd40"/></g><g><path d="m320.508 50.924c-1.87 0-3.74-.714-5.166-2.14l-8.105-8.105c-2.854-2.853-2.853-7.479 0-10.332s7.48-2.852 10.332.001l8.105 8.105c2.854 2.853 2.853 7.479 0 10.332-1.427 1.425-3.297 2.139-5.166 2.139z" fill="#ffdd40"/></g><g><path d="m448.598 179.014c-1.87 0-3.74-.714-5.166-2.141l-8.105-8.105c-2.853-2.853-2.853-7.479 0-10.332 2.854-2.852 7.48-2.853 10.332.001l8.105 8.105c2.853 2.853 2.853 7.479 0 10.332-1.427 1.427-3.297 2.14-5.166 2.14z" fill="#ffdd40"/></g><g><path d="m295.658 110.917h-11.462c-4.035 0-7.306-3.271-7.306-7.306s3.271-7.306 7.306-7.306h11.462c4.035 0 7.306 3.271 7.306 7.306s-3.271 7.306-7.306 7.306z" fill="#ffdd40"/></g><g><path d="m476.805 110.917h-11.462c-4.035 0-7.306-3.271-7.306-7.306s3.271-7.306 7.306-7.306h11.462c4.035 0 7.306 3.271 7.306 7.306s-3.271 7.306-7.306 7.306z" fill="#ffdd40"/></g><g><path d="m312.403 179.014c-1.87 0-3.74-.714-5.166-2.139-2.853-2.853-2.854-7.479 0-10.332l8.105-8.105c2.853-2.854 7.479-2.853 10.332-.001 2.853 2.853 2.854 7.479 0 10.332l-8.105 8.105c-1.427 1.427-3.297 2.14-5.166 2.14z" fill="#ffdd40"/></g><g><path d="m440.493 50.924c-1.87 0-3.74-.714-5.166-2.139-2.853-2.853-2.853-7.479 0-10.332l8.105-8.105c2.853-2.854 7.479-2.853 10.332-.001 2.853 2.853 2.853 7.479 0 10.332l-8.105 8.105c-1.427 1.426-3.296 2.14-5.166 2.14z" fill="#ffdd40"/></g><path d="m151.754 420.045 102.001-257.23h-2.653c-3.107 0-6.038 1.44-7.936 3.9l-186.908 242.19c9.835 13.818 21.076 26.561 33.503 38.041 9.962-6.113 32.273-18.46 61.993-26.901z" fill="#f2bc51"/><path d="m313.615 439.519c5.088 3.059 10.141 5.824 15.156 8.326l78.173-101.295-147.632-181.096c-1.362-1.67-3.402-2.639-5.557-2.639-2.962 0-5.619 1.821-6.687 4.584l-98.007 253.423c43.546-12.901 103.823-17.82 164.554 18.697z" fill="#fee886"/><path d="m259.312 165.454c-1.362-1.67-3.402-2.639-5.557-2.639-2.962 0-5.619 1.821-6.687 4.584l-98.007 253.423c24.054-7.126 53.215-11.813 84.737-8.429-.362-.955-.984-1.699-1.91-2.187-11.978-6.31-6.855-27.69-6.855-27.69l28.512-106.267c6.776-25.256 29.667-42.815 55.817-42.815h5.368z" fill="#f9d778"/><path d="m381.637 465.333h2.273l70.567-171.819h-3.009c-3.215 0-6.248 1.491-8.212 4.036l-115.571 149.754c18.633 9.43 36.727 15.128 53.952 18.029z" fill="#f2bc51"/><path d="m460.476 296.364c-1.47-1.803-3.672-2.849-5.998-2.849-3.186 0-6.046 1.952-7.207 4.919l-65.309 166.9h17.875c43.698-31.746 76.505-77.569 91.738-130.821z" fill="#f9d778"/><path d="m88.467 445.747c43.816 41.083 102.731 66.253 167.533 66.253 53.699 0 103.352-17.289 143.726-46.586-26.611-1.643-55.774-9.654-86.111-27.895-102.169-61.434-203.058-5.594-225.148 8.228z" fill="#fff9ad"/><g fill="#b1e4f9"><path d="m185.363 178.1c-4.34-.013-8.357 1.364-11.631 3.711-1.973 1.414-4.67.791-5.862-1.323-4.301-7.624-12.475-12.772-21.853-12.772-8.634 0-16.246 4.365-20.755 11.008-1.27 1.871-3.821 2.424-5.631 1.069-3.195-2.392-7.036-3.862-11.136-4.147-2.011-.14-3.566-1.828-3.612-3.844-.55-24.437-20.6-43.893-44.955-43.893-1.997 0-3.963.131-5.891.383-18.269 26.549-31.448 56.87-38.106 89.567h169.368c11.334 0 20.453-9.485 19.852-20.951-.546-10.412-9.361-18.775-19.788-18.808z"/><path d="m75.022 101.864h158.193c7.85 0 14.165-6.57 13.749-14.51-.379-7.212-6.484-13.004-13.706-13.026-3.006-.009-5.788.945-8.056 2.57-1.367.979-3.234.548-4.06-.916-2.978-5.28-8.64-8.846-15.135-8.846-5.98 0-11.252 3.023-14.374 7.624-.88 1.296-2.646 1.679-3.9.74-2.213-1.656-4.873-2.674-7.713-2.872-1.393-.097-2.469-1.266-2.501-2.662-.282-12.547-7.99-23.191-18.829-27.862-32.008 13.868-60.477 34.359-83.668 59.76z"/><path d="m495.538 215.395c-5.205-6.316-13.087-10.344-21.911-10.344-15.37 0-28.023 12.278-28.371 27.7-.029 1.272-1.01 2.338-2.279 2.426-2.587.18-5.012 1.108-7.028 2.617-1.142.855-2.752.506-3.553-.675-2.845-4.192-7.649-6.947-13.098-6.947-5.918 0-11.077 3.249-13.791 8.06-.752 1.334-2.454 1.727-3.699.835-2.066-1.481-4.602-2.351-7.34-2.342-6.58.02-12.144 5.298-12.488 11.869-.379 7.236 5.375 13.222 12.528 13.222h106.427c-.331-15.893-2.179-31.41-5.397-46.421z"/></g><path d="m231.888 410.206c-69.605-6.775-127.355 25.489-143.42 35.541 34.13 32.001 77.423 54.343 125.522 62.659 23.352-13.377 48.706-33.495 22.877-47.772-41.928-23.177-5.107-50.334-4.979-50.428z" fill="#fee886"/></g></svg>