<svg id="Layer_1" enable-background="new 0 0 512 512" height="512" viewBox="0 0 512 512" width="512" xmlns="http://www.w3.org/2000/svg"><g><path d="m256 22c-135.31 0-245 109.69-245 245 0 119.766 85.942 219.444 199.517 240.768h90.967c113.574-21.324 199.516-121.002 199.516-240.768 0-135.31-109.69-245-245-245z" fill="#38c674"/><path d="m406.719 81.684c-18.082-23.249-50.104-28.237-74.818-24.363-7.88 10.002-14.915 20.626-21.057 31.737 19.596-7.212 55.237-15.207 74.012 12.225 23.466 34.286-.411 102.361-34.447 136.958 17.771 9.825 29.594 21.756 37.257 34.324l.957-4.818c5.227-26.297 12.098-52.266 21.201-77.485 14.634-40.541 17.104-82.595-3.105-108.578z" fill="#a05838"/><path d="m387.666 272.566.958-4.818c5.227-26.297 12.098-52.266 21.201-77.485 2.379-6.59 4.43-13.22 6.12-19.814-16.605 9.424-25.349-6.098-25.349-6.098-6.711 27.347-21.996 55.4-40.187 73.891 17.772 9.825 29.594 21.755 37.257 34.324z" fill="#7f3822"/><path d="m124.334 272.566c7.663-12.569 19.486-24.499 37.257-34.324-34.036-34.598-57.914-102.673-34.447-136.958 18.775-27.432 54.416-19.437 74.013-12.225-6.142-11.111-13.177-21.736-21.058-31.737-24.714-3.874-56.736 1.114-74.818 24.363-20.208 25.982-17.738 68.037-3.105 108.578 9.103 25.219 15.974 51.188 21.201 77.485z" fill="#a05838"/><path d="m96.849 173.437c1.529 5.607 3.307 11.23 5.327 16.826 9.103 25.219 15.974 51.188 21.201 77.485l.958 4.819c7.663-12.569 19.486-24.499 37.257-34.324-18.191-18.491-33.476-46.544-40.187-73.891h-.001c-9.157 20.334-24.555 9.085-24.555 9.085z" fill="#7f3822"/><path d="m256 188.046c9.424 0 18.662-.282 27.593-.813 3.12-48.699 21.493-94.849 52.041-132.137h-79.115-1.039-79.113c30.546 37.288 48.919 83.437 52.04 132.137 8.931.531 18.169.813 27.593.813z" fill="#b76c4e"/><path d="m235.409 55.097h-59.042c30.546 37.288 48.919 83.437 52.04 132.137 8.931.53 18.17.813 27.593.813.248 0 .493-.005.741-.005 6.741-48.968-14.437-112.665-20.683-130.866-.243-.71-.458-1.402-.649-2.079z" fill="#a05838"/><path d="m178.046 57.174h77.434 1.039 77.435c8.663-10.828 18.331-20.939 28.951-30.165h-106.386-1.039-106.384c10.62 9.226 20.287 19.337 28.95 30.165z" fill="#ffb332"/><path d="m247.31 28.048-.218-1.039h-97.996c10.619 9.226 20.287 19.337 28.95 30.165h58.012c-7.666-22.341 11.252-29.126 11.252-29.126z" fill="#ffa219"/><path d="m293.16 213.577c-11.923.826-24.387 1.267-37.161 1.267-12.773 0-25.237-.441-37.16-1.267-3.483 3.08-7.739 5.356-12.523 6.482-23.359 5.495-50.27 15.708-69.692 34.673 18.36 14.327 69.55 22.57 119.375 22.57 49.826 0 101.016-8.244 119.376-22.571-19.422-18.965-46.334-29.178-69.692-34.673-4.784-1.125-9.04-3.401-12.523-6.481z" fill="#b76c4e"/><path d="m218.84 213.577c-3.483 3.08-7.739 5.356-12.523 6.482-23.359 5.495-50.27 15.708-69.692 34.673 10.596 8.268 32.135 14.505 58.028 18.306 11.54-20.591 28.084-36.061 39.537-45.177 4.736-3.77 8.845-8.197 12.241-13.1-9.436-.164-18.665-.566-27.591-1.184z" fill="#a05838"/><path d="m283.395 190.363c.079-1.566.186-3.128.297-4.69-8.91.529-18.172.814-27.692.814s-18.783-.285-27.692-.814c.111 1.561.218 3.123.297 4.69.499 9.87-4.028 19.002-11.525 24.649 12.387.903 25.435 1.39 38.92 1.39s26.533-.487 38.921-1.39c-7.498-5.647-12.025-14.778-11.526-24.649z" fill="#a05838"/><path d="m256.949 186.481c-.318.001-.631.007-.949.007-9.52 0-18.783-.285-27.692-.814.111 1.561.217 3.123.297 4.69.498 9.87-4.028 19.002-11.525 24.649 9.089.662 18.535 1.099 28.247 1.285 5.883-7.958 9.817-17.28 11.272-27.212.126-.863.241-1.733.35-2.605z" fill="#7f3822"/><path d="m189.936 485.081c7.583 6.898 14.47 14.497 20.58 22.687 14.74 2.768 29.94 4.232 45.484 4.232s30.743-1.464 45.483-4.232c6.111-8.19 12.998-15.789 20.58-22.687-19.575 2.939-42.2 4.643-66.063 4.643-23.864 0-46.489-1.704-66.064-4.643z" fill="#b76c4e"/><path d="m249.962 489.683c-21.636-.261-42.11-1.912-60.026-4.602 7.582 6.898 14.47 14.497 20.58 22.687 14.444 2.712 29.331 4.163 44.548 4.221-.963-7.597-2.666-15.07-5.102-22.306z" fill="#a05838"/><path d="m256 433.849c51.061 0 95.636-6.88 120.936-17.634 14.296-26.408 25.016-58.635 25.016-95.917 0-16.319-3.417-30.139-9.201-41.846-18.617 14.679-73.715 25.648-136.751 25.648-63.035 0-118.134-10.969-136.75-25.648-5.784 11.707-9.202 25.527-9.202 41.846 0 37.281 10.72 69.509 25.017 95.917 25.299 10.754 69.874 17.634 120.935 17.634z" fill="#ffdd40"/><path d="m119.249 278.452c-5.784 11.707-9.202 25.527-9.202 41.846 0 37.281 10.72 69.509 25.017 95.917 18.931 8.047 48.656 13.924 83.813 16.373-15.517-28.147-31.168-62.875-36.447-95.698-2.187-13.594-1.251-26.261 1.701-37.873-30.368-4.59-53.936-11.934-64.882-20.565z" fill="#ffb332"/><path d="m158.066 451.067c24.429 6.875 59.263 11.177 97.934 11.177 38.672 0 73.505-4.302 97.935-11.177 8.427-10.713 16.84-23.127 24.218-37.133-24.574 10.981-70.074 18.356-122.153 18.356s-97.579-7.375-122.152-18.357c7.378 14.007 15.79 26.421 24.218 37.134z" fill="#ffb332"/><path d="m217.965 430.933c-35.728-2.608-65.762-8.797-84.117-16.999 7.378 14.006 15.791 26.421 24.218 37.133 20.189 5.682 47.488 9.603 78.183 10.794-5.635-8.863-11.963-19.359-18.284-30.928z" fill="#ffa219"/><path d="m189.376 484.556c.639.575 1.251 1.177 1.88 1.763 19.268 2.818 41.417 4.444 64.744 4.444s45.476-1.625 64.744-4.444c.629-.585 1.241-1.187 1.88-1.762 9.273-8.356 21.191-20.327 32.955-35.601-24.466 7.137-60.358 11.731-99.579 11.731s-75.112-4.594-99.578-11.731c11.764 15.273 23.682 27.244 32.954 35.6z" fill="#90482d"/><path d="m189.376 484.556c.638.575 1.251 1.177 1.88 1.763 17.692 2.588 37.816 4.166 59.048 4.408-3.04-9.324-7.261-18.273-12.616-26.61-.802-1.249-1.626-2.547-2.458-3.867-30.978-1.3-58.738-5.441-78.807-11.295 11.763 15.274 23.681 27.245 32.953 35.601z" fill="#7f3822"/><path d="m256 305.658c63.832 0 118.031-10.809 137.411-25.826-4.831-10.246-11.456-18.907-19.207-26.226-16.809 12.877-63.38 22.137-118.205 22.137-54.824 0-101.395-9.26-118.204-22.137-7.751 7.319-14.375 15.98-19.207 26.226 19.381 15.017 73.581 25.826 137.412 25.826z" fill="#a05838"/><path d="m137.796 253.607c-7.751 7.319-14.375 15.98-19.207 26.226 11.391 8.826 34.819 16.195 65.152 20.773 2.49-10.54 6.656-20.227 11.705-28.965-26.815-3.904-47.578-10.318-57.65-18.034z" fill="#7f3822"/><circle cx="166.66" cy="357.189" fill="#ffa219" r="25.71"/><circle cx="256" cy="368.616" fill="#ffb332" r="25.71"/><circle cx="345.34" cy="357.189" fill="#ffb332" r="25.71"/><g><path d="m374.782 28.048h-237.564c-7.745 0-14.024-6.278-14.024-14.024s6.279-14.024 14.024-14.024h237.563c7.745 0 14.024 6.278 14.024 14.024.001 7.745-6.278 14.024-14.023 14.024z" fill="#ffdd40"/></g><path d="m233.286 14.024c0-7.746 6.278-14.024 14.024-14.024h-110.092c-7.745 0-14.024 6.278-14.024 14.024s6.279 14.024 14.024 14.024h110.092c-7.746 0-14.024-6.279-14.024-14.024z" fill="#ffb332"/></g></svg>